<svg width="360" height="883" viewBox="0 0 360 883" fill="none" xmlns="http://www.w3.org/2000/svg">
<g clip-path="url(#clip0_57_1475)">
<rect width="360" height="883" fill="white"/>
<rect x="16" y="83" width="70" height="800" fill="#D9D9D9"/>
<rect x="102" y="83" width="70" height="800" fill="#D9D9D9"/>
<rect x="188" y="83" width="70" height="800" fill="#D9D9D9"/>
<rect x="274" y="83" width="70" height="800" fill="#D9D9D9"/>
<rect x="-15" y="83" width="390" height="55" fill="#FFAFAF" fill-opacity="0.3"/>
<path d="M3 50L3 31H356V50" stroke="black"/>
<path d="M143.815 23.9119V22.8977L148.29 15.8182H149.026V17.3892H148.528L145.148 22.7386V22.8182H151.173V23.9119H143.815ZM148.608 26V23.6037V23.1314V15.8182H149.781V26H148.608ZM159.536 26.1591C158.82 26.1591 158.204 25.9901 157.687 25.652C157.17 25.3139 156.772 24.8482 156.493 24.255C156.215 23.6617 156.076 22.9839 156.076 22.2216C156.076 21.446 156.218 20.7616 156.503 20.1683C156.792 19.5717 157.193 19.1061 157.707 18.7713C158.224 18.4332 158.827 18.2642 159.516 18.2642C160.053 18.2642 160.537 18.3636 160.968 18.5625C161.399 18.7614 161.752 19.0398 162.027 19.3977C162.302 19.7557 162.473 20.1733 162.539 20.6506H161.366C161.276 20.3026 161.077 19.9943 160.769 19.7259C160.464 19.4541 160.053 19.3182 159.536 19.3182C159.079 19.3182 158.678 19.4375 158.333 19.6761C157.992 19.9115 157.725 20.2446 157.533 20.6754C157.344 21.103 157.249 21.6051 157.249 22.1818C157.249 22.7718 157.342 23.2855 157.528 23.723C157.716 24.1605 157.982 24.5002 158.323 24.7422C158.668 24.9841 159.072 25.1051 159.536 25.1051C159.841 25.1051 160.118 25.0521 160.366 24.946C160.615 24.84 160.825 24.6875 160.998 24.4886C161.17 24.2898 161.293 24.0511 161.366 23.7727H162.539C162.473 24.2235 162.309 24.6295 162.047 24.9908C161.788 25.3487 161.445 25.6338 161.018 25.8459C160.593 26.0547 160.1 26.1591 159.536 26.1591ZM167.076 26.1591C166.387 26.1591 165.782 25.995 165.262 25.6669C164.745 25.3388 164.34 24.8797 164.049 24.2898C163.76 23.6998 163.616 23.0104 163.616 22.2216C163.616 21.4261 163.76 20.7318 164.049 20.1385C164.34 19.5452 164.745 19.0845 165.262 18.7564C165.782 18.4283 166.387 18.2642 167.076 18.2642C167.766 18.2642 168.369 18.4283 168.886 18.7564C169.406 19.0845 169.811 19.5452 170.099 20.1385C170.391 20.7318 170.537 21.4261 170.537 22.2216C170.537 23.0104 170.391 23.6998 170.099 24.2898C169.811 24.8797 169.406 25.3388 168.886 25.6669C168.369 25.995 167.766 26.1591 167.076 26.1591ZM167.076 25.1051C167.6 25.1051 168.031 24.9709 168.369 24.7024C168.707 24.4339 168.957 24.081 169.12 23.6435C169.282 23.206 169.363 22.732 169.363 22.2216C169.363 21.7112 169.282 21.2356 169.12 20.7947C168.957 20.3539 168.707 19.9976 168.369 19.7259C168.031 19.4541 167.6 19.3182 167.076 19.3182C166.553 19.3182 166.122 19.4541 165.784 19.7259C165.446 19.9976 165.195 20.3539 165.033 20.7947C164.871 21.2356 164.789 21.7112 164.789 22.2216C164.789 22.732 164.871 23.206 165.033 23.6435C165.195 24.081 165.446 24.4339 165.784 24.7024C166.122 24.9709 166.553 25.1051 167.076 25.1051ZM173.221 15.8182V26H172.048V15.8182H173.221ZM179.902 22.8778V18.3636H181.076V26H179.902V24.7074H179.823C179.644 25.0952 179.365 25.425 178.988 25.6967C178.61 25.9652 178.132 26.0994 177.556 26.0994C177.079 26.0994 176.654 25.995 176.283 25.7862C175.912 25.5741 175.62 25.2559 175.408 24.8317C175.196 24.4041 175.09 23.8655 175.09 23.2159V18.3636H176.263V23.1364C176.263 23.6932 176.419 24.1373 176.731 24.4688C177.045 24.8002 177.446 24.9659 177.934 24.9659C178.225 24.9659 178.522 24.8913 178.824 24.7422C179.128 24.593 179.384 24.3643 179.589 24.0561C179.798 23.7479 179.902 23.3551 179.902 22.8778ZM184.118 21.4062V26H182.945V18.3636H184.078V19.5568H184.178C184.357 19.169 184.628 18.8575 184.993 18.6222C185.358 18.3835 185.828 18.2642 186.405 18.2642C186.922 18.2642 187.374 18.3703 187.762 18.5824C188.15 18.7912 188.452 19.1094 188.667 19.5369C188.882 19.9612 188.99 20.4981 188.99 21.1477V26H187.817V21.2273C187.817 20.6274 187.661 20.16 187.349 19.8253C187.038 19.4872 186.61 19.3182 186.067 19.3182C185.692 19.3182 185.358 19.3994 185.063 19.5618C184.771 19.7242 184.541 19.9612 184.371 20.2727C184.202 20.5843 184.118 20.9621 184.118 21.4062ZM193.101 26.179C192.617 26.179 192.178 26.0878 191.784 25.9055C191.389 25.7199 191.076 25.4531 190.844 25.1051C190.612 24.7538 190.496 24.3295 190.496 23.8324C190.496 23.3949 190.582 23.0402 190.755 22.7685C190.927 22.4934 191.157 22.2779 191.446 22.1222C191.734 21.9664 192.052 21.8504 192.4 21.7741C192.752 21.6946 193.105 21.6316 193.459 21.5852C193.923 21.5256 194.299 21.4808 194.588 21.451C194.879 21.4179 195.092 21.3632 195.224 21.2869C195.36 21.2107 195.428 21.0781 195.428 20.8892V20.8494C195.428 20.3589 195.294 19.9777 195.025 19.706C194.76 19.4342 194.357 19.2983 193.817 19.2983C193.257 19.2983 192.818 19.4209 192.5 19.6662C192.182 19.9115 191.958 20.1733 191.829 20.4517L190.715 20.054C190.914 19.59 191.179 19.2287 191.51 18.9702C191.845 18.7083 192.21 18.526 192.604 18.4233C193.002 18.3172 193.393 18.2642 193.777 18.2642C194.023 18.2642 194.304 18.294 194.623 18.3537C194.944 18.41 195.254 18.5277 195.552 18.7067C195.854 18.8857 196.104 19.1558 196.303 19.517C196.502 19.8783 196.601 20.3622 196.601 20.9688V26H195.428V24.9659H195.368C195.289 25.1316 195.156 25.3089 194.971 25.4979C194.785 25.6868 194.538 25.8475 194.23 25.9801C193.922 26.1127 193.545 26.179 193.101 26.179ZM193.28 25.125C193.744 25.125 194.135 25.0339 194.454 24.8516C194.775 24.6693 195.017 24.4339 195.179 24.1456C195.345 23.8572 195.428 23.554 195.428 23.2358V22.1619C195.378 22.2216 195.269 22.2763 195.1 22.326C194.934 22.3724 194.742 22.4138 194.523 22.4503C194.308 22.4834 194.097 22.5133 193.892 22.5398C193.69 22.563 193.526 22.5829 193.4 22.5994C193.095 22.6392 192.81 22.7038 192.544 22.7933C192.283 22.8795 192.07 23.0104 191.908 23.1861C191.749 23.3584 191.669 23.5937 191.669 23.892C191.669 24.2997 191.82 24.608 192.122 24.8168C192.427 25.0223 192.813 25.125 193.28 25.125ZM203.872 20.0739L202.818 20.3722C202.752 20.1965 202.654 20.0258 202.525 19.8601C202.399 19.6911 202.226 19.5518 202.008 19.4425C201.789 19.3331 201.509 19.2784 201.167 19.2784C200.7 19.2784 200.311 19.3861 199.999 19.6016C199.691 19.8137 199.537 20.0838 199.537 20.4119C199.537 20.7036 199.643 20.9339 199.855 21.103C200.067 21.272 200.398 21.4129 200.849 21.5256L201.983 21.804C202.665 21.9697 203.174 22.2232 203.509 22.5646C203.844 22.9027 204.011 23.3385 204.011 23.8722C204.011 24.3097 203.885 24.7008 203.633 25.0455C203.385 25.3902 203.037 25.6619 202.589 25.8608C202.142 26.0597 201.621 26.1591 201.028 26.1591C200.249 26.1591 199.605 25.9901 199.094 25.652C198.584 25.3139 198.261 24.8201 198.125 24.1705L199.238 23.892C199.344 24.303 199.545 24.6113 199.84 24.8168C200.138 25.0223 200.528 25.125 201.008 25.125C201.555 25.125 201.989 25.009 202.311 24.777C202.636 24.5417 202.798 24.2599 202.798 23.9318C202.798 23.6667 202.705 23.4446 202.52 23.2656C202.334 23.0833 202.049 22.9474 201.664 22.858L200.392 22.5597C199.692 22.3939 199.179 22.1371 198.851 21.7891C198.526 21.4377 198.363 20.9986 198.363 20.4716C198.363 20.0407 198.484 19.6596 198.726 19.3281C198.972 18.9967 199.305 18.7365 199.726 18.5476C200.15 18.3587 200.63 18.2642 201.167 18.2642C201.923 18.2642 202.516 18.4299 202.947 18.7614C203.381 19.0928 203.69 19.5303 203.872 20.0739Z" fill="black"/>
<path d="M172 77V70H188V77" stroke="black"/>
<path d="M168.634 54.8182V65H167.401V56.1108H167.341L164.855 57.7614V56.5085L167.401 54.8182H168.634ZM174.662 65.1392C174.245 65.1326 173.827 65.053 173.41 64.9006C172.992 64.7481 172.611 64.4912 172.266 64.13C171.921 63.7654 171.645 63.2732 171.436 62.6534C171.227 62.0303 171.123 61.2481 171.123 60.3068C171.123 59.4053 171.207 58.6065 171.376 57.9105C171.545 57.2112 171.791 56.6229 172.112 56.1456C172.434 55.665 172.821 55.3004 173.275 55.0518C173.733 54.8033 174.248 54.679 174.822 54.679C175.392 54.679 175.899 54.7933 176.343 55.022C176.79 55.2474 177.155 55.5623 177.437 55.9666C177.718 56.371 177.901 56.8366 177.983 57.3636H176.77C176.658 56.9062 176.439 56.5268 176.114 56.2251C175.789 55.9235 175.358 55.7727 174.822 55.7727C174.033 55.7727 173.411 56.1158 172.957 56.8018C172.506 57.4879 172.279 58.4508 172.276 59.6903H172.356C172.541 59.4086 172.762 59.1683 173.017 58.9695C173.275 58.7673 173.56 58.6115 173.872 58.5021C174.184 58.3928 174.513 58.3381 174.861 58.3381C175.445 58.3381 175.978 58.4839 176.462 58.7756C176.946 59.0639 177.334 59.4633 177.626 59.9737C177.917 60.4808 178.063 61.0625 178.063 61.7188C178.063 62.3485 177.922 62.9252 177.64 63.4489C177.359 63.9692 176.963 64.3835 176.452 64.6918C175.945 64.9967 175.349 65.1458 174.662 65.1392ZM174.662 64.0455C175.08 64.0455 175.455 63.9411 175.786 63.7322C176.121 63.5234 176.384 63.2434 176.577 62.892C176.772 62.5407 176.87 62.1496 176.87 61.7188C176.87 61.2978 176.775 60.915 176.586 60.5703C176.401 60.2223 176.144 59.9455 175.816 59.7401C175.491 59.5346 175.12 59.4318 174.702 59.4318C174.387 59.4318 174.094 59.4948 173.822 59.6207C173.55 59.7434 173.312 59.9124 173.106 60.1278C172.904 60.3433 172.745 60.5902 172.629 60.8686C172.513 61.1437 172.455 61.4337 172.455 61.7386C172.455 62.143 172.55 62.5208 172.738 62.8722C172.931 63.2235 173.193 63.5069 173.524 63.7223C173.859 63.9377 174.238 64.0455 174.662 64.0455ZM179.758 67.8636V57.3636H180.892V58.5767H181.031C181.117 58.4441 181.236 58.2751 181.389 58.0696C181.544 57.8608 181.767 57.6752 182.055 57.5128C182.347 57.3471 182.741 57.2642 183.238 57.2642C183.881 57.2642 184.448 57.425 184.938 57.7464C185.429 58.0679 185.812 58.5237 186.087 59.1136C186.362 59.7036 186.499 60.3996 186.499 61.2017C186.499 62.0104 186.362 62.7114 186.087 63.3047C185.812 63.8946 185.431 64.352 184.943 64.6768C184.456 64.9983 183.894 65.1591 183.258 65.1591C182.767 65.1591 182.375 65.0779 182.08 64.9155C181.785 64.7498 181.558 64.5625 181.399 64.3537C181.24 64.1416 181.117 63.9659 181.031 63.8267H180.931V67.8636H179.758ZM180.911 61.1818C180.911 61.7585 180.996 62.2673 181.165 62.7081C181.334 63.1456 181.581 63.4886 181.906 63.7372C182.231 63.9825 182.628 64.1051 183.099 64.1051C183.589 64.1051 183.999 63.9759 184.327 63.7173C184.658 63.4555 184.907 63.1042 185.073 62.6634C185.242 62.2192 185.326 61.7254 185.326 61.1818C185.326 60.6449 185.243 60.161 185.078 59.7301C184.915 59.2959 184.668 58.9529 184.337 58.701C184.009 58.4458 183.596 58.3182 183.099 58.3182C182.622 58.3182 182.221 58.4392 181.896 58.6811C181.571 58.9197 181.326 59.2545 181.16 59.6854C180.994 60.1129 180.911 60.6117 180.911 61.1818ZM188.57 57.3636L190.399 60.4858L192.229 57.3636H193.581L191.115 61.1818L193.581 65H192.229L190.399 62.0369L188.57 65H187.218L189.644 61.1818L187.218 57.3636H188.57Z" fill="black"/>
<path d="M36.3722 65L40.9261 55.9915V55.9119H35.6761V54.8182H42.1989V55.9716L37.6648 65H36.3722ZM46.8743 65.1392C46.1252 65.1392 45.4872 64.9354 44.9602 64.5277C44.4332 64.1167 44.0305 63.5218 43.7521 62.7429C43.4737 61.9607 43.3345 61.0161 43.3345 59.9091C43.3345 58.8087 43.4737 57.8691 43.7521 57.0902C44.0339 56.308 44.4382 55.7114 44.9652 55.3004C45.4955 54.8861 46.1319 54.679 46.8743 54.679C47.6167 54.679 48.2514 54.8861 48.7784 55.3004C49.3087 55.7114 49.7131 56.308 49.9915 57.0902C50.2732 57.8691 50.4141 58.8087 50.4141 59.9091C50.4141 61.0161 50.2749 61.9607 49.9965 62.7429C49.718 63.5218 49.3153 64.1167 48.7884 64.5277C48.2614 64.9354 47.6233 65.1392 46.8743 65.1392ZM46.8743 64.0455C47.6167 64.0455 48.1934 63.6875 48.6044 62.9716C49.0154 62.2557 49.2209 61.2348 49.2209 59.9091C49.2209 59.0275 49.1264 58.2768 48.9375 57.657C48.7519 57.0372 48.4834 56.5649 48.1321 56.2401C47.7841 55.9152 47.3648 55.7528 46.8743 55.7528C46.1385 55.7528 45.5635 56.1158 45.1492 56.8416C44.7349 57.5642 44.5277 58.5866 44.5277 59.9091C44.5277 60.7907 44.6205 61.5398 44.8061 62.1562C44.9917 62.7727 45.2585 63.2417 45.6065 63.5632C45.9579 63.8847 46.3805 64.0455 46.8743 64.0455ZM52.0432 67.8636V57.3636H53.1767V58.5767H53.3159C53.4021 58.4441 53.5214 58.2751 53.6738 58.0696C53.8296 57.8608 54.0517 57.6752 54.34 57.5128C54.6317 57.3471 55.0261 57.2642 55.5233 57.2642C56.1663 57.2642 56.733 57.425 57.2236 57.7464C57.7141 58.0679 58.0969 58.5237 58.372 59.1136C58.6471 59.7036 58.7846 60.3996 58.7846 61.2017C58.7846 62.0104 58.6471 62.7114 58.372 63.3047C58.0969 63.8946 57.7157 64.352 57.2285 64.6768C56.7413 64.9983 56.1795 65.1591 55.5432 65.1591C55.0526 65.1591 54.6599 65.0779 54.3649 64.9155C54.0699 64.7498 53.8429 64.5625 53.6838 64.3537C53.5247 64.1416 53.4021 63.9659 53.3159 63.8267H53.2165V67.8636H52.0432ZM53.1966 61.1818C53.1966 61.7585 53.2811 62.2673 53.4501 62.7081C53.6192 63.1456 53.8661 63.4886 54.1909 63.7372C54.5157 63.9825 54.9134 64.1051 55.3841 64.1051C55.8746 64.1051 56.2839 63.9759 56.6121 63.7173C56.9435 63.4555 57.1921 63.1042 57.3578 62.6634C57.5268 62.2192 57.6113 61.7254 57.6113 61.1818C57.6113 60.6449 57.5285 60.161 57.3628 59.7301C57.2004 59.2959 56.9534 58.9529 56.622 58.701C56.2939 58.4458 55.8812 58.3182 55.3841 58.3182C54.9068 58.3182 54.5058 58.4392 54.1809 58.6811C53.8561 58.9197 53.6109 59.2545 53.4451 59.6854C53.2794 60.1129 53.1966 60.6117 53.1966 61.1818ZM60.855 57.3636L62.6845 60.4858L64.514 57.3636H65.8663L63.4004 61.1818L65.8663 65H64.514L62.6845 62.0369L60.855 65H59.5027L61.9288 61.1818L59.5027 57.3636H60.855Z" fill="black"/>
<path d="M16 77V71H86V77" stroke="black"/>
<rect y="819" width="360" height="64" fill="#FFAFAF" fill-opacity="0.3"/>
</g>
<defs>
<clipPath id="clip0_57_1475">
<rect width="360" height="883" fill="white"/>
</clipPath>
</defs>
</svg>
