<svg width="1440" height="1126" viewBox="0 0 1440 1126" fill="none" xmlns="http://www.w3.org/2000/svg">
<rect width="1440" height="1126" fill="white"/>
<rect x="32" y="102" width="85" height="1024" fill="#D9D9D9"/>
<rect x="149" y="102" width="85" height="1024" fill="#D9D9D9"/>
<rect x="266" y="102" width="85" height="1024" fill="#D9D9D9"/>
<rect x="384" y="102" width="85" height="1024" fill="#D9D9D9"/>
<rect x="501" y="102" width="85" height="1024" fill="#D9D9D9"/>
<rect x="619" y="102" width="85" height="1024" fill="#D9D9D9"/>
<rect x="736" y="102" width="85" height="1024" fill="#D9D9D9"/>
<rect x="853" y="102" width="85" height="1024" fill="#D9D9D9"/>
<rect x="971" y="102" width="85" height="1024" fill="#D9D9D9"/>
<rect x="1088" y="102" width="85" height="1024" fill="#D9D9D9"/>
<rect x="1206" y="102" width="85" height="1024" fill="#D9D9D9"/>
<rect x="1323" y="102" width="85" height="1024" fill="#D9D9D9"/>
<path d="M0.5 60V47.5H1438V60" stroke="black"/>
<path d="M676.619 21.4545V36H674.858V23.3011H674.773L671.222 25.6591V23.8693L674.858 21.4545H676.619ZM680.803 36V34.7216L685.604 29.4659C686.167 28.8504 686.631 28.3153 686.996 27.8608C687.36 27.4015 687.63 26.9706 687.805 26.5682C687.985 26.161 688.075 25.7348 688.075 25.2898C688.075 24.7784 687.952 24.3357 687.706 23.9616C687.464 23.5876 687.133 23.2988 686.712 23.0952C686.29 22.8916 685.817 22.7898 685.291 22.7898C684.732 22.7898 684.245 22.9058 683.828 23.1378C683.416 23.3651 683.097 23.6847 682.869 24.0966C682.647 24.5085 682.536 24.9915 682.536 25.5455H680.859C680.859 24.6932 681.056 23.9451 681.449 23.3011C681.842 22.6572 682.377 22.1553 683.054 21.7955C683.736 21.4356 684.5 21.2557 685.348 21.2557C686.2 21.2557 686.955 21.4356 687.614 21.7955C688.272 22.1553 688.788 22.6406 689.162 23.2514C689.536 23.8622 689.723 24.5417 689.723 25.2898C689.723 25.8248 689.626 26.348 689.432 26.8594C689.242 27.366 688.911 27.9318 688.438 28.5568C687.969 29.1771 687.318 29.9347 686.484 30.8295L683.217 34.3239V34.4375H689.979V36H680.803ZM702.997 36.2273C701.974 36.2273 701.094 35.9858 700.355 35.5028C699.616 35.0199 699.048 34.3546 698.651 33.5071C698.253 32.6596 698.054 31.6913 698.054 30.6023C698.054 29.4943 698.258 28.5166 698.665 27.669C699.077 26.8168 699.65 26.1515 700.384 25.6733C701.122 25.1903 701.984 24.9489 702.969 24.9489C703.736 24.9489 704.427 25.0909 705.043 25.375C705.658 25.6591 706.162 26.0568 706.555 26.5682C706.948 27.0795 707.192 27.6761 707.287 28.358H705.611C705.483 27.8608 705.199 27.4205 704.759 27.0369C704.323 26.6487 703.736 26.4545 702.997 26.4545C702.344 26.4545 701.771 26.625 701.278 26.9659C700.791 27.3021 700.41 27.7779 700.135 28.3935C699.865 29.0043 699.73 29.7216 699.73 30.5455C699.73 31.3883 699.863 32.1222 700.128 32.7472C700.398 33.3722 700.777 33.8575 701.264 34.2031C701.757 34.5488 702.334 34.7216 702.997 34.7216C703.433 34.7216 703.828 34.6458 704.183 34.4943C704.538 34.3428 704.839 34.125 705.085 33.8409C705.331 33.5568 705.507 33.2159 705.611 32.8182H707.287C707.192 33.4621 706.958 34.0421 706.584 34.5582C706.214 35.0696 705.724 35.4768 705.114 35.7798C704.508 36.0781 703.802 36.2273 702.997 36.2273ZM714.169 36.2273C713.184 36.2273 712.32 35.9929 711.577 35.5241C710.838 35.0554 710.26 34.3996 709.844 33.5568C709.432 32.714 709.226 31.7292 709.226 30.6023C709.226 29.4659 709.432 28.474 709.844 27.6264C710.26 26.7789 710.838 26.1207 711.577 25.652C712.32 25.1832 713.184 24.9489 714.169 24.9489C715.154 24.9489 716.016 25.1832 716.754 25.652C717.498 26.1207 718.075 26.7789 718.487 27.6264C718.904 28.474 719.112 29.4659 719.112 30.6023C719.112 31.7292 718.904 32.714 718.487 33.5568C718.075 34.3996 717.498 35.0554 716.754 35.5241C716.016 35.9929 715.154 36.2273 714.169 36.2273ZM714.169 34.7216C714.917 34.7216 715.533 34.5298 716.016 34.1463C716.499 33.7628 716.856 33.2585 717.088 32.6335C717.32 32.0085 717.436 31.3314 717.436 30.6023C717.436 29.8731 717.32 29.1937 717.088 28.5639C716.856 27.9342 716.499 27.4252 716.016 27.0369C715.533 26.6487 714.917 26.4545 714.169 26.4545C713.421 26.4545 712.805 26.6487 712.322 27.0369C711.839 27.4252 711.482 27.9342 711.25 28.5639C711.018 29.1937 710.902 29.8731 710.902 30.6023C710.902 31.3314 711.018 32.0085 711.25 32.6335C711.482 33.2585 711.839 33.7628 712.322 34.1463C712.805 34.5298 713.421 34.7216 714.169 34.7216ZM723.347 21.4545V36H721.671V21.4545H723.347ZM733.292 31.5398V25.0909H734.968V36H733.292V34.1534H733.178C732.923 34.7074 732.525 35.1785 731.985 35.5668C731.445 35.9503 730.763 36.142 729.94 36.142C729.258 36.142 728.652 35.9929 728.121 35.6946C727.591 35.3916 727.174 34.937 726.871 34.331C726.568 33.7202 726.417 32.9508 726.417 32.0227V25.0909H728.093V31.9091C728.093 32.7045 728.316 33.339 728.761 33.8125C729.21 34.286 729.783 34.5227 730.479 34.5227C730.896 34.5227 731.32 34.4162 731.751 34.2031C732.186 33.9901 732.551 33.6634 732.844 33.223C733.143 32.7827 733.292 32.2216 733.292 31.5398ZM739.714 29.4375V36H738.038V25.0909H739.657V26.7955H739.799C740.055 26.2415 740.443 25.7964 740.964 25.4602C741.485 25.1193 742.157 24.9489 742.981 24.9489C743.72 24.9489 744.366 25.1004 744.92 25.4034C745.474 25.7017 745.905 26.1562 746.213 26.767C746.52 27.3731 746.674 28.1402 746.674 29.0682V36H744.998V29.1818C744.998 28.3248 744.776 27.6572 744.331 27.179C743.886 26.696 743.275 26.4545 742.498 26.4545C741.963 26.4545 741.485 26.5705 741.064 26.8026C740.647 27.0346 740.318 27.3731 740.076 27.8182C739.835 28.2633 739.714 28.803 739.714 29.4375ZM752.947 36.2557C752.256 36.2557 751.629 36.1255 751.065 35.8651C750.502 35.5999 750.054 35.2188 749.723 34.7216C749.392 34.2197 749.226 33.6136 749.226 32.9034C749.226 32.2784 749.349 31.7718 749.595 31.3835C749.841 30.9905 750.17 30.6828 750.582 30.4602C750.994 30.2377 751.449 30.072 751.946 29.9631C752.448 29.8494 752.952 29.7595 753.459 29.6932C754.122 29.608 754.659 29.544 755.071 29.5014C755.488 29.4541 755.791 29.3759 755.98 29.267C756.174 29.1581 756.271 28.9687 756.271 28.6989V28.642C756.271 27.9413 756.08 27.3968 755.696 27.0085C755.317 26.6203 754.742 26.4261 753.97 26.4261C753.17 26.4261 752.543 26.6013 752.088 26.9517C751.634 27.3021 751.314 27.6761 751.129 28.0739L749.538 27.5057C749.822 26.8428 750.201 26.3267 750.675 25.9574C751.153 25.5833 751.674 25.3229 752.237 25.1761C752.805 25.0246 753.364 24.9489 753.913 24.9489C754.264 24.9489 754.666 24.9915 755.121 25.0767C755.58 25.1572 756.023 25.3253 756.449 25.581C756.88 25.8366 757.237 26.2225 757.521 26.7386C757.805 27.2547 757.947 27.946 757.947 28.8125V36H756.271V34.5227H756.186C756.072 34.7595 755.883 35.0128 755.618 35.2827C755.353 35.5526 755 35.7822 754.56 35.9716C754.119 36.161 753.582 36.2557 752.947 36.2557ZM753.203 34.75C753.866 34.75 754.425 34.6198 754.879 34.3594C755.339 34.099 755.684 33.7628 755.916 33.3509C756.153 32.9389 756.271 32.5057 756.271 32.0511V30.517C756.2 30.6023 756.044 30.6804 755.803 30.7514C755.566 30.8177 755.291 30.8769 754.979 30.929C754.671 30.9763 754.37 31.0189 754.077 31.0568C753.788 31.09 753.554 31.1184 753.374 31.142C752.938 31.1989 752.531 31.2912 752.152 31.419C751.778 31.5421 751.475 31.7292 751.243 31.9801C751.016 32.2263 750.902 32.5625 750.902 32.9886C750.902 33.571 751.117 34.0114 751.548 34.3097C751.984 34.6032 752.536 34.75 753.203 34.75ZM768.734 27.5341L767.228 27.9602C767.134 27.7093 766.994 27.4654 766.809 27.2287C766.629 26.9872 766.383 26.7884 766.071 26.6321C765.758 26.4759 765.358 26.3977 764.87 26.3977C764.203 26.3977 763.646 26.5516 763.201 26.8594C762.761 27.1624 762.541 27.5483 762.541 28.017C762.541 28.4337 762.692 28.7628 762.995 29.0043C763.298 29.2457 763.772 29.447 764.416 29.608L766.035 30.0057C767.011 30.2424 767.737 30.6046 768.216 31.0923C768.694 31.5753 768.933 32.1979 768.933 32.9602C768.933 33.5852 768.753 34.1439 768.393 34.6364C768.038 35.1288 767.541 35.517 766.902 35.8011C766.262 36.0852 765.519 36.2273 764.672 36.2273C763.559 36.2273 762.638 35.9858 761.909 35.5028C761.18 35.0199 760.718 34.3144 760.524 33.3864L762.115 32.9886C762.266 33.5758 762.553 34.0161 762.974 34.3097C763.4 34.6032 763.957 34.75 764.643 34.75C765.424 34.75 766.045 34.5843 766.504 34.2528C766.968 33.9167 767.2 33.5142 767.2 33.0455C767.2 32.6667 767.067 32.3494 766.802 32.0938C766.537 31.8333 766.13 31.6392 765.581 31.5114L763.762 31.0852C762.763 30.8485 762.029 30.4815 761.561 29.9844C761.097 29.4825 760.865 28.8551 760.865 28.1023C760.865 27.4867 761.038 26.9422 761.383 26.4688C761.734 25.9953 762.209 25.6236 762.811 25.3537C763.417 25.0838 764.103 24.9489 764.87 24.9489C765.95 24.9489 766.797 25.1856 767.413 25.6591C768.033 26.1326 768.474 26.7576 768.734 27.5341Z" fill="black"/>
<path d="M31.5 97.5V91H116V97.5M234 97.5V91H265.5V97.5" stroke="black"/>
<path d="M57.1648 82.1989C56.1894 82.1989 55.3277 82.026 54.5795 81.6804C53.8362 81.33 53.2562 80.8494 52.8395 80.2386C52.4228 79.6231 52.2169 78.9223 52.2216 78.1364C52.2169 77.5208 52.3376 76.9527 52.5838 76.4318C52.83 75.9062 53.1662 75.4683 53.5923 75.1179C54.0232 74.7628 54.5038 74.5379 55.0341 74.4432V74.358C54.3381 74.178 53.7841 73.7874 53.3722 73.1861C52.9602 72.58 52.7566 71.8911 52.7614 71.1193C52.7566 70.3807 52.9437 69.7202 53.3224 69.1378C53.7012 68.5554 54.2221 68.0961 54.8849 67.7599C55.5526 67.4238 56.3125 67.2557 57.1648 67.2557C58.0076 67.2557 58.7604 67.4238 59.4233 67.7599C60.0862 68.0961 60.607 68.5554 60.9858 69.1378C61.3693 69.7202 61.5634 70.3807 61.5682 71.1193C61.5634 71.8911 61.3527 72.58 60.9361 73.1861C60.5241 73.7874 59.9773 74.178 59.2955 74.358V74.4432C59.821 74.5379 60.2945 74.7628 60.7159 75.1179C61.1373 75.4683 61.4735 75.9062 61.7244 76.4318C61.9754 76.9527 62.1032 77.5208 62.108 78.1364C62.1032 78.9223 61.8902 79.6231 61.4688 80.2386C61.0521 80.8494 60.4721 81.33 59.7287 81.6804C58.9901 82.026 58.1354 82.1989 57.1648 82.1989ZM57.1648 80.6364C57.8229 80.6364 58.3911 80.5298 58.8693 80.3168C59.3475 80.1037 59.7169 79.803 59.9773 79.4148C60.2377 79.0265 60.3703 78.572 60.375 78.0511C60.3703 77.5019 60.2282 77.0166 59.9489 76.5952C59.6695 76.1738 59.2884 75.8423 58.8054 75.6009C58.3272 75.3594 57.7803 75.2386 57.1648 75.2386C56.5445 75.2386 55.9905 75.3594 55.5028 75.6009C55.0199 75.8423 54.6387 76.1738 54.3594 76.5952C54.0848 77.0166 53.9498 77.5019 53.9545 78.0511C53.9498 78.572 54.0753 79.0265 54.331 79.4148C54.5914 79.803 54.9631 80.1037 55.446 80.3168C55.929 80.5298 56.5019 80.6364 57.1648 80.6364ZM57.1648 73.733C57.6856 73.733 58.1473 73.6288 58.5497 73.4205C58.9569 73.2121 59.2765 72.9209 59.5085 72.5469C59.7405 72.1728 59.8589 71.7348 59.8636 71.233C59.8589 70.7405 59.7429 70.312 59.5156 69.9474C59.2884 69.5781 58.9735 69.294 58.571 69.0952C58.1686 68.8916 57.6998 68.7898 57.1648 68.7898C56.6203 68.7898 56.1444 68.8916 55.7372 69.0952C55.33 69.294 55.0152 69.5781 54.7926 69.9474C54.5701 70.312 54.4612 70.7405 54.4659 71.233C54.4612 71.7348 54.5724 72.1728 54.7997 72.5469C55.0317 72.9209 55.3513 73.2121 55.7585 73.4205C56.1657 73.6288 56.6345 73.733 57.1648 73.733ZM69.3754 82.1989C68.542 82.1989 67.7915 82.0331 67.1239 81.7017C66.4563 81.3703 65.9213 80.9157 65.5188 80.3381C65.1164 79.7604 64.8962 79.1023 64.8583 78.3636H66.5629C66.6291 79.0218 66.9274 79.5663 67.4577 79.9972C67.9928 80.4233 68.632 80.6364 69.3754 80.6364C69.9719 80.6364 70.5022 80.4967 70.9663 80.2173C71.435 79.938 71.802 79.5545 72.0671 79.0668C72.337 78.5743 72.4719 78.018 72.4719 77.3977C72.4719 76.7633 72.3323 76.1974 72.0529 75.7003C71.7783 75.1984 71.3995 74.803 70.9165 74.5142C70.4336 74.2254 69.882 74.0786 69.2617 74.0739C68.8166 74.0691 68.3597 74.1378 67.891 74.2798C67.4222 74.4171 67.0363 74.5947 66.7333 74.8125L65.0856 74.6136L65.9663 67.4545H73.5231V69.017H67.4435L66.9322 73.3068H67.0174C67.3157 73.0701 67.6897 72.8736 68.1396 72.7173C68.5894 72.5611 69.0581 72.483 69.5458 72.483C70.436 72.483 71.229 72.696 71.9251 73.1222C72.6258 73.5436 73.1751 74.1212 73.5728 74.8551C73.9753 75.589 74.1765 76.4271 74.1765 77.3693C74.1765 78.2973 73.9682 79.1259 73.5515 79.8551C73.1396 80.5795 72.5714 81.1525 71.8469 81.5739C71.1225 81.9905 70.2987 82.1989 69.3754 82.1989ZM77.0263 86.0909V71.0909H78.6456V72.8239H78.8445C78.9676 72.6345 79.138 72.393 79.3558 72.0994C79.5784 71.8011 79.8956 71.536 80.3075 71.304C80.7242 71.0672 81.2876 70.9489 81.9979 70.9489C82.9164 70.9489 83.7261 71.1785 84.4268 71.6378C85.1276 72.0971 85.6745 72.7481 86.0675 73.5909C86.4605 74.4337 86.657 75.428 86.657 76.5739C86.657 77.7292 86.4605 78.7306 86.0675 79.5781C85.6745 80.4209 85.13 81.0743 84.4339 81.5384C83.7379 81.9976 82.9354 82.2273 82.0263 82.2273C81.3255 82.2273 80.7644 82.1113 80.343 81.8793C79.9216 81.6425 79.5973 81.375 79.37 81.0767C79.1428 80.7737 78.9676 80.5227 78.8445 80.3239H78.7024V86.0909H77.0263ZM78.674 76.5455C78.674 77.3693 78.7947 78.0961 79.0362 78.7259C79.2777 79.3509 79.6304 79.8409 80.0945 80.196C80.5585 80.5464 81.1267 80.7216 81.799 80.7216C82.4998 80.7216 83.0845 80.5369 83.5533 80.1676C84.0268 79.7936 84.3819 79.2917 84.6186 78.6619C84.8601 78.0275 84.9808 77.322 84.9808 76.5455C84.9808 75.7784 84.8625 75.0871 84.6257 74.4716C84.3937 73.8513 84.041 73.3613 83.5675 73.0014C83.0987 72.6368 82.5092 72.4545 81.799 72.4545C81.1172 72.4545 80.5443 72.6274 80.0803 72.973C79.6162 73.3139 79.2659 73.7921 79.0291 74.4077C78.7924 75.0185 78.674 75.7311 78.674 76.5455ZM90.0146 71.0909L92.6282 75.5511L95.2418 71.0909H97.1737L93.6509 76.5455L97.1737 82H95.2418L92.6282 77.767L90.0146 82H88.0827L91.5487 76.5455L88.0827 71.0909H90.0146Z" fill="black"/>
<path d="M234.42 82.1989C233.483 82.1989 232.647 82.0379 231.913 81.7159C231.184 81.3939 230.604 80.9465 230.173 80.3736C229.747 79.7959 229.515 79.1259 229.477 78.3636H231.267C231.305 78.8324 231.466 79.2372 231.75 79.5781C232.034 79.9143 232.406 80.1747 232.865 80.3594C233.324 80.544 233.833 80.6364 234.392 80.6364C235.017 80.6364 235.571 80.5275 236.054 80.3097C236.537 80.0919 236.916 79.7888 237.19 79.4006C237.465 79.0123 237.602 78.5625 237.602 78.0511C237.602 77.5161 237.47 77.045 237.205 76.6378C236.939 76.2259 236.551 75.9039 236.04 75.6719C235.528 75.4399 234.903 75.3239 234.165 75.3239H233V73.7614H234.165C234.742 73.7614 235.249 73.6572 235.685 73.4489C236.125 73.2405 236.468 72.947 236.714 72.5682C236.965 72.1894 237.091 71.7443 237.091 71.233C237.091 70.7405 236.982 70.312 236.764 69.9474C236.546 69.5829 236.239 69.2988 235.841 69.0952C235.448 68.8916 234.984 68.7898 234.449 68.7898C233.947 68.7898 233.473 68.8821 233.028 69.0668C232.588 69.2467 232.228 69.5095 231.949 69.8551C231.67 70.196 231.518 70.608 231.494 71.0909H229.79C229.818 70.3286 230.048 69.661 230.479 69.0881C230.91 68.5104 231.473 68.0606 232.169 67.7386C232.87 67.4167 233.639 67.2557 234.477 67.2557C235.377 67.2557 236.149 67.438 236.793 67.8026C237.437 68.1624 237.931 68.6383 238.277 69.2301C238.623 69.822 238.795 70.4612 238.795 71.1477C238.795 71.9669 238.58 72.6652 238.149 73.2429C237.723 73.8205 237.143 74.2206 236.409 74.4432V74.5568C237.328 74.7083 238.045 75.099 238.561 75.7287C239.077 76.3537 239.335 77.1278 239.335 78.0511C239.335 78.8419 239.12 79.5521 238.689 80.1818C238.263 80.8068 237.68 81.2992 236.942 81.6591C236.203 82.0189 235.363 82.1989 234.42 82.1989ZM242.24 82V80.7216L247.041 75.4659C247.605 74.8504 248.069 74.3153 248.433 73.8608C248.798 73.4015 249.068 72.9706 249.243 72.5682C249.423 72.161 249.513 71.7348 249.513 71.2898C249.513 70.7784 249.39 70.3357 249.143 69.9616C248.902 69.5876 248.571 69.2988 248.149 69.0952C247.728 68.8916 247.254 68.7898 246.729 68.7898C246.17 68.7898 245.682 68.9058 245.266 69.1378C244.854 69.3651 244.534 69.6847 244.307 70.0966C244.084 70.5085 243.973 70.9915 243.973 71.5455H242.297C242.297 70.6932 242.493 69.9451 242.886 69.3011C243.279 68.6572 243.814 68.1553 244.491 67.7955C245.173 67.4356 245.938 67.2557 246.786 67.2557C247.638 67.2557 248.393 67.4356 249.051 67.7955C249.709 68.1553 250.225 68.6406 250.599 69.2514C250.973 69.8622 251.161 70.5417 251.161 71.2898C251.161 71.8248 251.063 72.348 250.869 72.8594C250.68 73.366 250.348 73.9318 249.875 74.5568C249.406 75.1771 248.755 75.9347 247.922 76.8295L244.655 80.3239V80.4375H251.416V82H242.24ZM254.378 86.0909V71.0909H255.997V72.8239H256.196C256.319 72.6345 256.49 72.393 256.707 72.0994C256.93 71.8011 257.247 71.536 257.659 71.304C258.076 71.0672 258.639 70.9489 259.349 70.9489C260.268 70.9489 261.078 71.1785 261.778 71.6378C262.479 72.0971 263.026 72.7481 263.419 73.5909C263.812 74.4337 264.009 75.428 264.009 76.5739C264.009 77.7292 263.812 78.7306 263.419 79.5781C263.026 80.4209 262.482 81.0743 261.786 81.5384C261.089 81.9976 260.287 82.2273 259.378 82.2273C258.677 82.2273 258.116 82.1113 257.695 81.8793C257.273 81.6425 256.949 81.375 256.722 81.0767C256.494 80.7737 256.319 80.5227 256.196 80.3239H256.054V86.0909H254.378ZM256.026 76.5455C256.026 77.3693 256.146 78.0961 256.388 78.7259C256.629 79.3509 256.982 79.8409 257.446 80.196C257.91 80.5464 258.478 80.7216 259.151 80.7216C259.851 80.7216 260.436 80.5369 260.905 80.1676C261.378 79.7936 261.733 79.2917 261.97 78.6619C262.212 78.0275 262.332 77.322 262.332 76.5455C262.332 75.7784 262.214 75.0871 261.977 74.4716C261.745 73.8513 261.393 73.3613 260.919 73.0014C260.45 72.6368 259.861 72.4545 259.151 72.4545C258.469 72.4545 257.896 72.6274 257.432 72.973C256.968 73.3139 256.617 73.7921 256.381 74.4077C256.144 75.0185 256.026 75.7311 256.026 76.5455ZM267.366 71.0909L269.98 75.5511L272.593 71.0909H274.525L271.002 76.5455L274.525 82H272.593L269.98 77.767L267.366 82H265.434L268.9 76.5455L265.434 71.0909H267.366Z" fill="black"/>
</svg>
