<svg width="1440" height="1024" viewBox="0 0 1440 1024" fill="none" xmlns="http://www.w3.org/2000/svg">
<rect width="1440" height="1024" fill="#F1F1F1"/>
<path d="M270.233 57V46.8182H273.793C274.502 46.8182 275.087 46.9408 275.548 47.1861C276.008 47.428 276.351 47.7545 276.577 48.1655C276.802 48.5732 276.915 49.0256 276.915 49.5227C276.915 49.9602 276.837 50.3215 276.681 50.6065C276.529 50.8916 276.326 51.117 276.075 51.2827C275.826 51.4484 275.556 51.571 275.264 51.6506V51.75C275.576 51.7699 275.889 51.8793 276.204 52.0781C276.519 52.277 276.782 52.562 276.994 52.9332C277.206 53.3045 277.312 53.7585 277.312 54.2955C277.312 54.8059 277.196 55.2649 276.964 55.6726C276.732 56.0803 276.366 56.4034 275.866 56.642C275.365 56.8807 274.714 57 273.912 57H270.233ZM271.466 55.9062H273.912C274.717 55.9062 275.289 55.7505 275.627 55.4389C275.969 55.1241 276.139 54.7429 276.139 54.2955C276.139 53.9508 276.051 53.6326 275.876 53.3409C275.7 53.0459 275.45 52.8106 275.125 52.6349C274.8 52.456 274.416 52.3665 273.972 52.3665H271.466V55.9062ZM271.466 51.2926H273.753C274.124 51.2926 274.459 51.2197 274.757 51.0739C275.059 50.928 275.297 50.7225 275.473 50.4574C275.652 50.1922 275.741 49.8807 275.741 49.5227C275.741 49.0753 275.586 48.6958 275.274 48.3842C274.963 48.0694 274.469 47.9119 273.793 47.9119H271.466V51.2926ZM282.002 57.1591C281.312 57.1591 280.707 56.995 280.187 56.6669C279.67 56.3388 279.266 55.8797 278.974 55.2898C278.686 54.6998 278.541 54.0104 278.541 53.2216C278.541 52.4261 278.686 51.7318 278.974 51.1385C279.266 50.5452 279.67 50.0845 280.187 49.7564C280.707 49.4283 281.312 49.2642 282.002 49.2642C282.691 49.2642 283.294 49.4283 283.811 49.7564C284.332 50.0845 284.736 50.5452 285.024 51.1385C285.316 51.7318 285.462 52.4261 285.462 53.2216C285.462 54.0104 285.316 54.6998 285.024 55.2898C284.736 55.8797 284.332 56.3388 283.811 56.6669C283.294 56.995 282.691 57.1591 282.002 57.1591ZM282.002 56.1051C282.525 56.1051 282.956 55.9709 283.294 55.7024C283.632 55.4339 283.883 55.081 284.045 54.6435C284.207 54.206 284.289 53.732 284.289 53.2216C284.289 52.7112 284.207 52.2356 284.045 51.7947C283.883 51.3539 283.632 50.9976 283.294 50.7259C282.956 50.4541 282.525 50.3182 282.002 50.3182C281.478 50.3182 281.047 50.4541 280.709 50.7259C280.371 50.9976 280.121 51.3539 279.958 51.7947C279.796 52.2356 279.715 52.7112 279.715 53.2216C279.715 53.732 279.796 54.206 279.958 54.6435C280.121 55.081 280.371 55.4339 280.709 55.7024C281.047 55.9709 281.478 56.1051 282.002 56.1051ZM289.22 57.179C288.736 57.179 288.297 57.0878 287.903 56.9055C287.508 56.7199 287.195 56.4531 286.963 56.1051C286.731 55.7538 286.615 55.3295 286.615 54.8324C286.615 54.3949 286.701 54.0402 286.873 53.7685C287.046 53.4934 287.276 53.2779 287.564 53.1222C287.853 52.9664 288.171 52.8504 288.519 52.7741C288.87 52.6946 289.223 52.6316 289.578 52.5852C290.042 52.5256 290.418 52.4808 290.707 52.451C290.998 52.4179 291.21 52.3632 291.343 52.2869C291.479 52.2107 291.547 52.0781 291.547 51.8892V51.8494C291.547 51.3589 291.412 50.9777 291.144 50.706C290.879 50.4342 290.476 50.2983 289.936 50.2983C289.376 50.2983 288.937 50.4209 288.618 50.6662C288.3 50.9115 288.077 51.1733 287.947 51.4517L286.834 51.054C287.033 50.59 287.298 50.2287 287.629 49.9702C287.964 49.7083 288.328 49.526 288.723 49.4233C289.121 49.3172 289.512 49.2642 289.896 49.2642C290.141 49.2642 290.423 49.294 290.741 49.3537C291.063 49.41 291.373 49.5277 291.671 49.7067C291.973 49.8857 292.223 50.1558 292.422 50.517C292.621 50.8783 292.72 51.3622 292.72 51.9688V57H291.547V55.9659H291.487C291.408 56.1316 291.275 56.3089 291.089 56.4979C290.904 56.6868 290.657 56.8475 290.349 56.9801C290.04 57.1127 289.664 57.179 289.22 57.179ZM289.399 56.125C289.863 56.125 290.254 56.0339 290.572 55.8516C290.894 55.6693 291.136 55.4339 291.298 55.1456C291.464 54.8572 291.547 54.554 291.547 54.2358V53.1619C291.497 53.2216 291.388 53.2763 291.219 53.326C291.053 53.3724 290.861 53.4138 290.642 53.4503C290.426 53.4834 290.216 53.5133 290.01 53.5398C289.808 53.563 289.644 53.5829 289.518 53.5994C289.213 53.6392 288.928 53.7038 288.663 53.7933C288.401 53.8795 288.189 54.0104 288.027 54.1861C287.868 54.3584 287.788 54.5937 287.788 54.892C287.788 55.2997 287.939 55.608 288.241 55.8168C288.546 56.0223 288.932 56.125 289.399 56.125ZM301.56 49.3636V50.358H297.603V49.3636H301.56ZM298.756 47.5341H299.929V54.8125C299.929 55.1439 299.977 55.3925 300.074 55.5582C300.173 55.7206 300.299 55.83 300.451 55.8864C300.607 55.9394 300.771 55.9659 300.944 55.9659C301.073 55.9659 301.179 55.9593 301.262 55.946C301.345 55.9295 301.411 55.9162 301.461 55.9062L301.699 56.9602C301.62 56.9901 301.509 57.0199 301.366 57.0497C301.224 57.0829 301.043 57.0994 300.824 57.0994C300.493 57.0994 300.168 57.0282 299.85 56.8857C299.535 56.7431 299.273 56.526 299.064 56.2344C298.859 55.9427 298.756 55.5748 298.756 55.1307V47.5341ZM305.292 57.179C304.808 57.179 304.369 57.0878 303.975 56.9055C303.58 56.7199 303.267 56.4531 303.035 56.1051C302.803 55.7538 302.687 55.3295 302.687 54.8324C302.687 54.3949 302.773 54.0402 302.946 53.7685C303.118 53.4934 303.348 53.2779 303.637 53.1222C303.925 52.9664 304.243 52.8504 304.591 52.7741C304.942 52.6946 305.295 52.6316 305.65 52.5852C306.114 52.5256 306.49 52.4808 306.779 52.451C307.07 52.4179 307.282 52.3632 307.415 52.2869C307.551 52.2107 307.619 52.0781 307.619 51.8892V51.8494C307.619 51.3589 307.485 50.9777 307.216 50.706C306.951 50.4342 306.548 50.2983 306.008 50.2983C305.448 50.2983 305.009 50.4209 304.691 50.6662C304.372 50.9115 304.149 51.1733 304.019 51.4517L302.906 51.054C303.105 50.59 303.37 50.2287 303.701 49.9702C304.036 49.7083 304.401 49.526 304.795 49.4233C305.193 49.3172 305.584 49.2642 305.968 49.2642C306.214 49.2642 306.495 49.294 306.813 49.3537C307.135 49.41 307.445 49.5277 307.743 49.7067C308.045 49.8857 308.295 50.1558 308.494 50.517C308.693 50.8783 308.792 51.3622 308.792 51.9688V57H307.619V55.9659H307.559C307.48 56.1316 307.347 56.3089 307.161 56.4979C306.976 56.6868 306.729 56.8475 306.421 56.9801C306.112 57.1127 305.736 57.179 305.292 57.179ZM305.471 56.125C305.935 56.125 306.326 56.0339 306.644 55.8516C306.966 55.6693 307.208 55.4339 307.37 55.1456C307.536 54.8572 307.619 54.554 307.619 54.2358V53.1619C307.569 53.2216 307.46 53.2763 307.291 53.326C307.125 53.3724 306.933 53.4138 306.714 53.4503C306.499 53.4834 306.288 53.5133 306.083 53.5398C305.88 53.563 305.716 53.5829 305.59 53.5994C305.285 53.6392 305 53.7038 304.735 53.7933C304.473 53.8795 304.261 54.0104 304.099 54.1861C303.94 54.3584 303.86 54.5937 303.86 54.892C303.86 55.2997 304.011 55.608 304.313 55.8168C304.618 56.0223 305.004 56.125 305.471 56.125ZM310.654 57V49.3636H311.787V50.517H311.867C312.006 50.1392 312.258 49.8326 312.622 49.5973C312.987 49.362 313.398 49.2443 313.855 49.2443C313.942 49.2443 314.049 49.246 314.178 49.2493C314.308 49.2526 314.406 49.2576 314.472 49.2642V50.4574C314.432 50.4474 314.341 50.4325 314.198 50.4126C314.059 50.3894 313.912 50.3778 313.756 50.3778C313.385 50.3778 313.053 50.4557 312.762 50.6115C312.473 50.764 312.245 50.9761 312.076 51.2479C311.91 51.5163 311.827 51.8229 311.827 52.1676V57H310.654ZM318.234 57.1591C317.597 57.1591 317.036 56.9983 316.548 56.6768C316.061 56.352 315.68 55.8946 315.405 55.3047C315.13 54.7114 314.992 54.0104 314.992 53.2017C314.992 52.3996 315.13 51.7036 315.405 51.1136C315.68 50.5237 316.063 50.0679 316.553 49.7464C317.044 49.425 317.611 49.2642 318.254 49.2642C318.751 49.2642 319.144 49.3471 319.432 49.5128C319.724 49.6752 319.946 49.8608 320.098 50.0696C320.254 50.2751 320.375 50.4441 320.461 50.5767H320.56V46.8182H321.734V57H320.6V55.8267H320.461C320.375 55.9659 320.252 56.1416 320.093 56.3537C319.934 56.5625 319.707 56.7498 319.412 56.9155C319.117 57.0779 318.724 57.1591 318.234 57.1591ZM318.393 56.1051C318.863 56.1051 319.261 55.9825 319.586 55.7372C319.911 55.4886 320.158 55.1456 320.327 54.7081C320.496 54.2673 320.58 53.7585 320.58 53.1818C320.58 52.6117 320.497 52.1129 320.332 51.6854C320.166 51.2545 319.921 50.9197 319.596 50.6811C319.271 50.4392 318.87 50.3182 318.393 50.3182C317.896 50.3182 317.481 50.4458 317.15 50.701C316.822 50.9529 316.575 51.2959 316.409 51.7301C316.247 52.161 316.166 52.6449 316.166 53.1818C316.166 53.7254 316.248 54.2192 316.414 54.6634C316.583 55.1042 316.832 55.4555 317.16 55.7173C317.491 55.9759 317.902 56.1051 318.393 56.1051ZM326.967 57.1591C326.231 57.1591 325.597 56.9967 325.063 56.6719C324.533 56.3438 324.123 55.8864 323.835 55.2997C323.55 54.7098 323.408 54.0237 323.408 53.2415C323.408 52.4593 323.55 51.7699 323.835 51.1733C324.123 50.5734 324.524 50.1061 325.038 49.7713C325.555 49.4332 326.158 49.2642 326.848 49.2642C327.246 49.2642 327.638 49.3305 328.026 49.4631C328.414 49.5956 328.767 49.8111 329.085 50.1094C329.403 50.4044 329.657 50.7955 329.846 51.2827C330.035 51.7699 330.129 52.3698 330.129 53.0824V53.5795H324.243V52.5653H328.936C328.936 52.1345 328.85 51.75 328.677 51.4119C328.508 51.0739 328.266 50.8071 327.952 50.6115C327.64 50.416 327.272 50.3182 326.848 50.3182C326.381 50.3182 325.976 50.4342 325.635 50.6662C325.297 50.8949 325.037 51.1932 324.854 51.5611C324.672 51.929 324.581 52.3234 324.581 52.7443V53.4205C324.581 53.9972 324.68 54.486 324.879 54.8871C325.081 55.2848 325.361 55.5881 325.719 55.7969C326.077 56.0024 326.493 56.1051 326.967 56.1051C327.275 56.1051 327.554 56.062 327.802 55.9759C328.054 55.8864 328.271 55.7538 328.454 55.5781C328.636 55.3991 328.777 55.1771 328.876 54.9119L330.01 55.2301C329.891 55.6146 329.69 55.9527 329.408 56.2443C329.127 56.5327 328.779 56.758 328.364 56.9205C327.95 57.0795 327.484 57.1591 326.967 57.1591ZM335.451 57V46.8182H341.556V47.9119H336.683V51.3523H341.098V52.446H336.683V57H335.451ZM345.869 57.1591C345.134 57.1591 344.499 56.9967 343.965 56.6719C343.435 56.3438 343.026 55.8864 342.737 55.2997C342.452 54.7098 342.31 54.0237 342.31 53.2415C342.31 52.4593 342.452 51.7699 342.737 51.1733C343.026 50.5734 343.427 50.1061 343.94 49.7713C344.457 49.4332 345.061 49.2642 345.75 49.2642C346.148 49.2642 346.541 49.3305 346.928 49.4631C347.316 49.5956 347.669 49.8111 347.987 50.1094C348.305 50.4044 348.559 50.7955 348.748 51.2827C348.937 51.7699 349.031 52.3698 349.031 53.0824V53.5795H343.145V52.5653H347.838C347.838 52.1345 347.752 51.75 347.58 51.4119C347.411 51.0739 347.169 50.8071 346.854 50.6115C346.542 50.416 346.174 50.3182 345.75 50.3182C345.283 50.3182 344.878 50.4342 344.537 50.6662C344.199 50.8949 343.939 51.1932 343.756 51.5611C343.574 51.929 343.483 52.3234 343.483 52.7443V53.4205C343.483 53.9972 343.582 54.486 343.781 54.8871C343.984 55.2848 344.264 55.5881 344.622 55.7969C344.979 56.0024 345.395 56.1051 345.869 56.1051C346.178 56.1051 346.456 56.062 346.705 55.9759C346.957 55.8864 347.174 55.7538 347.356 55.5781C347.538 55.3991 347.679 55.1771 347.778 54.9119L348.912 55.2301C348.793 55.6146 348.592 55.9527 348.31 56.2443C348.029 56.5327 347.681 56.758 347.266 56.9205C346.852 57.0795 346.386 57.1591 345.869 57.1591ZM350.536 57V49.3636H351.67V50.517H351.749C351.888 50.1392 352.14 49.8326 352.505 49.5973C352.869 49.362 353.28 49.2443 353.738 49.2443C353.824 49.2443 353.932 49.246 354.061 49.2493C354.19 49.2526 354.288 49.2576 354.354 49.2642V50.4574C354.315 50.4474 354.223 50.4325 354.081 50.4126C353.942 50.3894 353.794 50.3778 353.638 50.3778C353.267 50.3778 352.936 50.4557 352.644 50.6115C352.356 50.764 352.127 50.9761 351.958 51.2479C351.792 51.5163 351.709 51.8229 351.709 52.1676V57H350.536ZM356.638 52.4062V57H355.465V49.3636H356.599V50.5568H356.698C356.877 50.169 357.149 49.8575 357.513 49.6222C357.878 49.3835 358.349 49.2642 358.925 49.2642C359.442 49.2642 359.895 49.3703 360.283 49.5824C360.67 49.7912 360.972 50.1094 361.187 50.5369C361.403 50.9612 361.511 51.4981 361.511 52.1477V57H360.337V52.2273C360.337 51.6274 360.181 51.16 359.87 50.8253C359.558 50.4872 359.131 50.3182 358.587 50.3182C358.213 50.3182 357.878 50.3994 357.583 50.5618C357.291 50.7242 357.061 50.9612 356.892 51.2727C356.723 51.5843 356.638 51.9621 356.638 52.4062ZM365.622 57.179C365.138 57.179 364.699 57.0878 364.304 56.9055C363.91 56.7199 363.597 56.4531 363.365 56.1051C363.133 55.7538 363.017 55.3295 363.017 54.8324C363.017 54.3949 363.103 54.0402 363.275 53.7685C363.447 53.4934 363.678 53.2779 363.966 53.1222C364.255 52.9664 364.573 52.8504 364.921 52.7741C365.272 52.6946 365.625 52.6316 365.98 52.5852C366.444 52.5256 366.82 52.4808 367.108 52.451C367.4 52.4179 367.612 52.3632 367.745 52.2869C367.88 52.2107 367.948 52.0781 367.948 51.8892V51.8494C367.948 51.3589 367.814 50.9777 367.546 50.706C367.281 50.4342 366.878 50.2983 366.338 50.2983C365.778 50.2983 365.338 50.4209 365.02 50.6662C364.702 50.9115 364.478 51.1733 364.349 51.4517L363.235 51.054C363.434 50.59 363.699 50.2287 364.031 49.9702C364.366 49.7083 364.73 49.526 365.125 49.4233C365.522 49.3172 365.913 49.2642 366.298 49.2642C366.543 49.2642 366.825 49.294 367.143 49.3537C367.465 49.41 367.774 49.5277 368.073 49.7067C368.374 49.8857 368.625 50.1558 368.823 50.517C369.022 50.8783 369.122 51.3622 369.122 51.9688V57H367.948V55.9659H367.889C367.809 56.1316 367.677 56.3089 367.491 56.4979C367.305 56.6868 367.059 56.8475 366.75 56.9801C366.442 57.1127 366.066 57.179 365.622 57.179ZM365.801 56.125C366.265 56.125 366.656 56.0339 366.974 55.8516C367.295 55.6693 367.537 55.4339 367.7 55.1456C367.866 54.8572 367.948 54.554 367.948 54.2358V53.1619C367.899 53.2216 367.789 53.2763 367.62 53.326C367.455 53.3724 367.262 53.4138 367.044 53.4503C366.828 53.4834 366.618 53.5133 366.412 53.5398C366.21 53.563 366.046 53.5829 365.92 53.5994C365.615 53.6392 365.33 53.7038 365.065 53.7933C364.803 53.8795 364.591 54.0104 364.429 54.1861C364.269 54.3584 364.19 54.5937 364.19 54.892C364.19 55.2997 364.341 55.608 364.642 55.8168C364.947 56.0223 365.333 56.125 365.801 56.125ZM372.157 52.4062V57H370.983V49.3636H372.117V50.5568H372.216C372.395 50.169 372.667 49.8575 373.032 49.6222C373.396 49.3835 373.867 49.2642 374.443 49.2642C374.961 49.2642 375.413 49.3703 375.801 49.5824C376.188 49.7912 376.49 50.1094 376.706 50.5369C376.921 50.9612 377.029 51.4981 377.029 52.1477V57H375.855V52.2273C375.855 51.6274 375.7 51.16 375.388 50.8253C375.077 50.4872 374.649 50.3182 374.105 50.3182C373.731 50.3182 373.396 50.3994 373.101 50.5618C372.809 50.7242 372.579 50.9612 372.41 51.2727C372.241 51.5843 372.157 51.9621 372.157 52.4062ZM381.776 57.1591C381.14 57.1591 380.578 56.9983 380.091 56.6768C379.604 56.352 379.222 55.8946 378.947 55.3047C378.672 54.7114 378.535 54.0104 378.535 53.2017C378.535 52.3996 378.672 51.7036 378.947 51.1136C379.222 50.5237 379.605 50.0679 380.096 49.7464C380.586 49.425 381.153 49.2642 381.796 49.2642C382.293 49.2642 382.686 49.3471 382.974 49.5128C383.266 49.6752 383.488 49.8608 383.641 50.0696C383.796 50.2751 383.917 50.4441 384.003 50.5767H384.103V46.8182H385.276V57H384.143V55.8267H384.003C383.917 55.9659 383.795 56.1416 383.636 56.3537C383.476 56.5625 383.249 56.7498 382.954 56.9155C382.659 57.0779 382.267 57.1591 381.776 57.1591ZM381.935 56.1051C382.406 56.1051 382.804 55.9825 383.128 55.7372C383.453 55.4886 383.7 55.1456 383.869 54.7081C384.038 54.2673 384.123 53.7585 384.123 53.1818C384.123 52.6117 384.04 52.1129 383.874 51.6854C383.709 51.2545 383.463 50.9197 383.138 50.6811C382.814 50.4392 382.413 50.3182 381.935 50.3182C381.438 50.3182 381.024 50.4458 380.692 50.701C380.364 50.9529 380.117 51.2959 379.952 51.7301C379.789 52.161 379.708 52.6449 379.708 53.1818C379.708 53.7254 379.791 54.2192 379.957 54.6634C380.126 55.1042 380.374 55.4555 380.702 55.7173C381.034 55.9759 381.445 56.1051 381.935 56.1051ZM390.41 57.1591C389.721 57.1591 389.116 56.995 388.596 56.6669C388.079 56.3388 387.674 55.8797 387.383 55.2898C387.094 54.6998 386.95 54.0104 386.95 53.2216C386.95 52.4261 387.094 51.7318 387.383 51.1385C387.674 50.5452 388.079 50.0845 388.596 49.7564C389.116 49.4283 389.721 49.2642 390.41 49.2642C391.1 49.2642 391.703 49.4283 392.22 49.7564C392.74 50.0845 393.145 50.5452 393.433 51.1385C393.725 51.7318 393.871 52.4261 393.871 53.2216C393.871 54.0104 393.725 54.6998 393.433 55.2898C393.145 55.8797 392.74 56.3388 392.22 56.6669C391.703 56.995 391.1 57.1591 390.41 57.1591ZM390.41 56.1051C390.934 56.1051 391.365 55.9709 391.703 55.7024C392.041 55.4339 392.291 55.081 392.454 54.6435C392.616 54.206 392.697 53.732 392.697 53.2216C392.697 52.7112 392.616 52.2356 392.454 51.7947C392.291 51.3539 392.041 50.9976 391.703 50.7259C391.365 50.4541 390.934 50.3182 390.41 50.3182C389.887 50.3182 389.456 50.4541 389.118 50.7259C388.78 50.9976 388.529 51.3539 388.367 51.7947C388.205 52.2356 388.123 52.7112 388.123 53.2216C388.123 53.732 388.205 54.206 388.367 54.6435C388.529 55.081 388.78 55.4339 389.118 55.7024C389.456 55.9709 389.887 56.1051 390.41 56.1051ZM397.132 55.608L397.052 56.1449C396.996 56.5227 396.909 56.9271 396.793 57.358C396.681 57.7888 396.563 58.1948 396.44 58.576C396.318 58.9571 396.217 59.2604 396.137 59.4858H395.242C395.285 59.2737 395.342 58.9936 395.411 58.6456C395.481 58.2976 395.551 57.9081 395.62 57.4773C395.693 57.0497 395.753 56.6122 395.799 56.1648L395.859 55.608H397.132Z" fill="black"/>
<path d="M271.023 106V82.7273H280.341C282.053 82.7273 283.481 82.9811 284.625 83.4886C285.769 83.9962 286.629 84.7008 287.205 85.6023C287.78 86.4962 288.068 87.5265 288.068 88.6932C288.068 89.6023 287.886 90.4015 287.523 91.0909C287.159 91.7727 286.659 92.3333 286.023 92.7727C285.394 93.2045 284.674 93.5114 283.864 93.6932V93.9205C284.75 93.9583 285.58 94.2083 286.352 94.6705C287.133 95.1326 287.765 95.7803 288.25 96.6136C288.735 97.4394 288.977 98.4242 288.977 99.5682C288.977 100.803 288.67 101.905 288.057 102.875C287.451 103.837 286.553 104.598 285.364 105.159C284.174 105.72 282.708 106 280.966 106H271.023ZM275.943 101.977H279.955C281.326 101.977 282.326 101.716 282.955 101.193C283.583 100.663 283.898 99.9583 283.898 99.0795C283.898 98.4356 283.742 97.8674 283.432 97.375C283.121 96.8826 282.678 96.4962 282.102 96.2159C281.534 95.9356 280.856 95.7955 280.068 95.7955H275.943V101.977ZM275.943 92.4659H279.591C280.265 92.4659 280.864 92.3485 281.386 92.1136C281.917 91.8712 282.333 91.5303 282.636 91.0909C282.947 90.6515 283.102 90.125 283.102 89.5114C283.102 88.6705 282.803 87.9924 282.205 87.4773C281.614 86.9621 280.773 86.7045 279.682 86.7045H275.943V92.4659ZM299.403 106.341C297.607 106.341 296.062 105.977 294.766 105.25C293.478 104.515 292.486 103.477 291.789 102.136C291.092 100.788 290.744 99.1932 290.744 97.3523C290.744 95.5568 291.092 93.9811 291.789 92.625C292.486 91.2689 293.467 90.2121 294.732 89.4545C296.005 88.697 297.497 88.3182 299.209 88.3182C300.361 88.3182 301.433 88.5038 302.425 88.875C303.425 89.2386 304.297 89.7879 305.039 90.5227C305.789 91.2576 306.372 92.1818 306.789 93.2955C307.206 94.4015 307.414 95.697 307.414 97.1818V98.5114H292.675V95.5114H302.857C302.857 94.8144 302.706 94.197 302.403 93.6591C302.1 93.1212 301.679 92.7008 301.141 92.3977C300.611 92.0871 299.994 91.9318 299.289 91.9318C298.554 91.9318 297.903 92.1023 297.334 92.4432C296.774 92.7765 296.334 93.2273 296.016 93.7955C295.698 94.3561 295.535 94.9811 295.528 95.6705V98.5227C295.528 99.3864 295.687 100.133 296.005 100.761C296.331 101.39 296.789 101.875 297.38 102.216C297.971 102.557 298.672 102.727 299.482 102.727C300.02 102.727 300.512 102.652 300.959 102.5C301.406 102.348 301.789 102.121 302.107 101.818C302.425 101.515 302.668 101.144 302.834 100.705L307.312 101C307.084 102.076 306.619 103.015 305.914 103.818C305.217 104.614 304.315 105.235 303.209 105.682C302.111 106.121 300.842 106.341 299.403 106.341ZM309.933 106V88.5455H314.547V91.625H314.751C315.115 90.6023 315.721 89.7955 316.569 89.2045C317.418 88.6136 318.433 88.3182 319.615 88.3182C320.812 88.3182 321.831 88.6174 322.672 89.2159C323.513 89.8068 324.073 90.6098 324.354 91.625H324.535C324.891 90.625 325.535 89.8258 326.467 89.2273C327.407 88.6212 328.516 88.3182 329.797 88.3182C331.425 88.3182 332.747 88.8371 333.763 89.875C334.785 90.9053 335.297 92.3674 335.297 94.2614V106H330.467V95.2159C330.467 94.2462 330.21 93.5189 329.694 93.0341C329.179 92.5492 328.535 92.3068 327.763 92.3068C326.884 92.3068 326.198 92.5871 325.706 93.1477C325.213 93.7008 324.967 94.4318 324.967 95.3409V106H320.274V95.1136C320.274 94.2576 320.028 93.5758 319.535 93.0682C319.05 92.5606 318.41 92.3068 317.615 92.3068C317.077 92.3068 316.592 92.4432 316.16 92.7159C315.736 92.9811 315.399 93.3561 315.149 93.8409C314.899 94.3182 314.774 94.8788 314.774 95.5227V106H309.933ZM349.542 82.7273L355.167 100.409H355.383L361.02 82.7273H366.474L358.451 106H352.11L344.076 82.7273H349.542ZM368.544 106V88.5455H373.385V106H368.544ZM370.976 86.2955C370.256 86.2955 369.639 86.0568 369.124 85.5795C368.616 85.0947 368.363 84.5152 368.363 83.8409C368.363 83.1742 368.616 82.6023 369.124 82.125C369.639 81.6402 370.256 81.3977 370.976 81.3977C371.696 81.3977 372.309 81.6402 372.817 82.125C373.332 82.6023 373.59 83.1742 373.59 83.8409C373.59 84.5152 373.332 85.0947 372.817 85.5795C372.309 86.0568 371.696 86.2955 370.976 86.2955ZM381.464 95.9091V106H376.623V88.5455H381.237V91.625H381.441C381.828 90.6098 382.475 89.8068 383.384 89.2159C384.294 88.6174 385.396 88.3182 386.691 88.3182C387.903 88.3182 388.96 88.5833 389.862 89.1136C390.763 89.6439 391.464 90.4015 391.964 91.3864C392.464 92.3636 392.714 93.5303 392.714 94.8864V106H387.873V95.75C387.881 94.6818 387.608 93.8485 387.055 93.25C386.502 92.6439 385.74 92.3409 384.771 92.3409C384.119 92.3409 383.544 92.4811 383.044 92.7614C382.551 93.0417 382.165 93.4508 381.884 93.9886C381.612 94.5189 381.472 95.1591 381.464 95.9091ZM402.321 106.284C400.995 106.284 399.795 105.943 398.719 105.261C397.651 104.572 396.802 103.561 396.173 102.227C395.552 100.886 395.242 99.2424 395.242 97.2955C395.242 95.2955 395.564 93.6326 396.207 92.3068C396.851 90.9735 397.707 89.9773 398.776 89.3182C399.851 88.6515 401.029 88.3182 402.31 88.3182C403.287 88.3182 404.101 88.4848 404.753 88.8182C405.412 89.1439 405.942 89.553 406.344 90.0455C406.753 90.5303 407.064 91.0076 407.276 91.4773H407.423V82.7273H412.253V106H407.48V103.205H407.276C407.048 103.689 406.726 104.17 406.31 104.648C405.901 105.117 405.367 105.508 404.707 105.818C404.056 106.129 403.261 106.284 402.321 106.284ZM403.855 102.432C404.636 102.432 405.295 102.22 405.832 101.795C406.378 101.364 406.795 100.761 407.082 99.9886C407.378 99.2159 407.526 98.3106 407.526 97.2727C407.526 96.2348 407.382 95.3333 407.094 94.5682C406.806 93.803 406.389 93.2121 405.844 92.7955C405.298 92.3788 404.636 92.1705 403.855 92.1705C403.06 92.1705 402.389 92.3864 401.844 92.8182C401.298 93.25 400.886 93.8485 400.605 94.6136C400.325 95.3788 400.185 96.2652 400.185 97.2727C400.185 98.2879 400.325 99.1856 400.605 99.9659C400.893 100.739 401.306 101.345 401.844 101.784C402.389 102.216 403.06 102.432 403.855 102.432ZM423.479 106.341C421.714 106.341 420.188 105.966 418.9 105.216C417.62 104.458 416.631 103.405 415.934 102.057C415.237 100.701 414.889 99.1288 414.889 97.3409C414.889 95.5379 415.237 93.9621 415.934 92.6136C416.631 91.2576 417.62 90.2045 418.9 89.4545C420.188 88.697 421.714 88.3182 423.479 88.3182C425.245 88.3182 426.767 88.697 428.048 89.4545C429.335 90.2045 430.328 91.2576 431.025 92.6136C431.722 93.9621 432.07 95.5379 432.07 97.3409C432.07 99.1288 431.722 100.701 431.025 102.057C430.328 103.405 429.335 104.458 428.048 105.216C426.767 105.966 425.245 106.341 423.479 106.341ZM423.502 102.591C424.305 102.591 424.976 102.364 425.514 101.909C426.051 101.447 426.457 100.818 426.729 100.023C427.01 99.2273 427.15 98.322 427.15 97.3068C427.15 96.2917 427.01 95.3864 426.729 94.5909C426.457 93.7955 426.051 93.1667 425.514 92.7045C424.976 92.2424 424.305 92.0114 423.502 92.0114C422.692 92.0114 422.01 92.2424 421.457 92.7045C420.911 93.1667 420.498 93.7955 420.218 94.5909C419.945 95.3864 419.809 96.2917 419.809 97.3068C419.809 98.322 419.945 99.2273 420.218 100.023C420.498 100.818 420.911 101.447 421.457 101.909C422.01 102.364 422.692 102.591 423.502 102.591ZM445.447 106H440.174L448.208 82.7273H454.549L462.572 106H457.299L451.469 88.0455H451.288L445.447 106ZM445.117 96.8523H457.572V100.693H445.117V96.8523ZM471.716 106.341C469.951 106.341 468.424 105.966 467.136 105.216C465.856 104.458 464.867 103.405 464.17 102.057C463.473 100.701 463.125 99.1288 463.125 97.3409C463.125 95.5379 463.473 93.9621 464.17 92.6136C464.867 91.2576 465.856 90.2045 467.136 89.4545C468.424 88.697 469.951 88.3182 471.716 88.3182C473.481 88.3182 475.004 88.697 476.284 89.4545C477.572 90.2045 478.564 91.2576 479.261 92.6136C479.958 93.9621 480.307 95.5379 480.307 97.3409C480.307 99.1288 479.958 100.701 479.261 102.057C478.564 103.405 477.572 104.458 476.284 105.216C475.004 105.966 473.481 106.341 471.716 106.341ZM471.738 102.591C472.541 102.591 473.212 102.364 473.75 101.909C474.288 101.447 474.693 100.818 474.966 100.023C475.246 99.2273 475.386 98.322 475.386 97.3068C475.386 96.2917 475.246 95.3864 474.966 94.5909C474.693 93.7955 474.288 93.1667 473.75 92.7045C473.212 92.2424 472.541 92.0114 471.738 92.0114C470.928 92.0114 470.246 92.2424 469.693 92.7045C469.148 93.1667 468.735 93.7955 468.454 94.5909C468.182 95.3864 468.045 96.2917 468.045 97.3068C468.045 98.322 468.182 99.2273 468.454 100.023C468.735 100.818 469.148 101.447 469.693 101.909C470.246 102.364 470.928 102.591 471.738 102.591ZM510.206 90.875H505.228C505.137 90.2311 504.952 89.6591 504.671 89.1591C504.391 88.6515 504.031 88.2197 503.592 87.8636C503.153 87.5076 502.645 87.2348 502.069 87.0455C501.501 86.8561 500.884 86.7614 500.217 86.7614C499.012 86.7614 497.963 87.0606 497.069 87.6591C496.175 88.25 495.482 89.1136 494.99 90.25C494.497 91.3788 494.251 92.75 494.251 94.3636C494.251 96.0227 494.497 97.4167 494.99 98.5455C495.49 99.6742 496.187 100.527 497.081 101.102C497.975 101.678 499.009 101.966 500.183 101.966C500.842 101.966 501.452 101.879 502.012 101.705C502.581 101.53 503.084 101.277 503.524 100.943C503.963 100.602 504.327 100.189 504.615 99.7045C504.91 99.2197 505.115 98.6667 505.228 98.0455L510.206 98.0682C510.077 99.1364 509.755 100.167 509.24 101.159C508.732 102.144 508.046 103.027 507.183 103.807C506.327 104.58 505.304 105.193 504.115 105.648C502.933 106.095 501.596 106.318 500.103 106.318C498.028 106.318 496.171 105.848 494.535 104.909C492.906 103.97 491.618 102.61 490.671 100.83C489.732 99.0492 489.262 96.8939 489.262 94.3636C489.262 91.8258 489.74 89.6667 490.694 87.8864C491.649 86.1061 492.944 84.75 494.581 83.8182C496.217 82.8788 498.058 82.4091 500.103 82.4091C501.452 82.4091 502.702 82.5985 503.853 82.9773C505.012 83.3561 506.039 83.9091 506.933 84.6364C507.827 85.3561 508.554 86.2386 509.115 87.2841C509.683 88.3295 510.046 89.5265 510.206 90.875ZM517.844 82.7273V106H513.003V82.7273H517.844ZM521.082 106V88.5455H525.923V106H521.082ZM523.514 86.2955C522.794 86.2955 522.177 86.0568 521.661 85.5795C521.154 85.0947 520.9 84.5152 520.9 83.8409C520.9 83.1742 521.154 82.6023 521.661 82.125C522.177 81.6402 522.794 81.3977 523.514 81.3977C524.233 81.3977 524.847 81.6402 525.355 82.125C525.87 82.6023 526.127 83.1742 526.127 83.8409C526.127 84.5152 525.87 85.0947 525.355 85.5795C524.847 86.0568 524.233 86.2955 523.514 86.2955ZM537.115 106.341C535.32 106.341 533.774 105.977 532.479 105.25C531.191 104.515 530.198 103.477 529.501 102.136C528.805 100.788 528.456 99.1932 528.456 97.3523C528.456 95.5568 528.805 93.9811 529.501 92.625C530.198 91.2689 531.18 90.2121 532.445 89.4545C533.717 88.697 535.21 88.3182 536.922 88.3182C538.073 88.3182 539.145 88.5038 540.138 88.875C541.138 89.2386 542.009 89.7879 542.751 90.5227C543.501 91.2576 544.085 92.1818 544.501 93.2955C544.918 94.4015 545.126 95.697 545.126 97.1818V98.5114H530.388V95.5114H540.57C540.57 94.8144 540.418 94.197 540.115 93.6591C539.812 93.1212 539.392 92.7008 538.854 92.3977C538.323 92.0871 537.706 91.9318 537.001 91.9318C536.267 91.9318 535.615 92.1023 535.047 92.4432C534.486 92.7765 534.047 93.2273 533.729 93.7955C533.411 94.3561 533.248 94.9811 533.24 95.6705V98.5227C533.24 99.3864 533.399 100.133 533.717 100.761C534.043 101.39 534.501 101.875 535.092 102.216C535.683 102.557 536.384 102.727 537.195 102.727C537.733 102.727 538.225 102.652 538.672 102.5C539.119 102.348 539.501 102.121 539.82 101.818C540.138 101.515 540.38 101.144 540.547 100.705L545.024 101C544.797 102.076 544.331 103.015 543.626 103.818C542.93 104.614 542.028 105.235 540.922 105.682C539.823 106.121 538.555 106.341 537.115 106.341ZM552.486 95.9091V106H547.646V88.5455H552.259V91.625H552.464C552.85 90.6098 553.498 89.8068 554.407 89.2159C555.316 88.6174 556.418 88.3182 557.714 88.3182C558.926 88.3182 559.983 88.5833 560.884 89.1136C561.786 89.6439 562.486 90.4015 562.986 91.3864C563.486 92.3636 563.736 93.5303 563.736 94.8864V106H558.896V95.75C558.903 94.6818 558.63 93.8485 558.077 93.25C557.524 92.6439 556.763 92.3409 555.793 92.3409C555.142 92.3409 554.566 92.4811 554.066 92.7614C553.574 93.0417 553.187 93.4508 552.907 93.9886C552.634 94.5189 552.494 95.1591 552.486 95.9091ZM576.196 88.5455V92.1818H565.685V88.5455H576.196ZM568.071 84.3636H572.912V100.636C572.912 101.083 572.98 101.432 573.116 101.682C573.253 101.924 573.442 102.095 573.685 102.193C573.935 102.292 574.222 102.341 574.548 102.341C574.775 102.341 575.003 102.322 575.23 102.284C575.457 102.239 575.632 102.205 575.753 102.182L576.514 105.784C576.272 105.86 575.931 105.947 575.491 106.045C575.052 106.152 574.518 106.216 573.889 106.239C572.722 106.284 571.7 106.129 570.821 105.773C569.95 105.417 569.272 104.864 568.787 104.114C568.302 103.364 568.063 102.417 568.071 101.273V84.3636ZM584.68 86.7841V82.7273H603.794V86.7841H596.669V106H591.805V86.7841H584.68ZM604.398 106V88.5455H609.091V91.5909H609.273C609.591 90.5076 610.125 89.6894 610.875 89.1364C611.625 88.5758 612.489 88.2955 613.466 88.2955C613.709 88.2955 613.97 88.3106 614.25 88.3409C614.531 88.3712 614.777 88.4129 614.989 88.4659V92.7614C614.762 92.6932 614.447 92.6326 614.046 92.5795C613.644 92.5265 613.277 92.5 612.944 92.5C612.231 92.5 611.595 92.6553 611.034 92.9659C610.481 93.2689 610.042 93.6932 609.716 94.2386C609.398 94.7841 609.239 95.4129 609.239 96.125V106H604.398ZM623.994 106.341C622.198 106.341 620.653 105.977 619.358 105.25C618.07 104.515 617.077 103.477 616.38 102.136C615.683 100.788 615.335 99.1932 615.335 97.3523C615.335 95.5568 615.683 93.9811 616.38 92.625C617.077 91.2689 618.058 90.2121 619.323 89.4545C620.596 88.697 622.089 88.3182 623.801 88.3182C624.952 88.3182 626.024 88.5038 627.017 88.875C628.017 89.2386 628.888 89.7879 629.63 90.5227C630.38 91.2576 630.964 92.1818 631.38 93.2955C631.797 94.4015 632.005 95.697 632.005 97.1818V98.5114H617.267V95.5114H627.448C627.448 94.8144 627.297 94.197 626.994 93.6591C626.691 93.1212 626.27 92.7008 625.733 92.3977C625.202 92.0871 624.585 91.9318 623.88 91.9318C623.145 91.9318 622.494 92.1023 621.926 92.4432C621.365 92.7765 620.926 93.2273 620.608 93.7955C620.289 94.3561 620.126 94.9811 620.119 95.6705V98.5227C620.119 99.3864 620.278 100.133 620.596 100.761C620.922 101.39 621.38 101.875 621.971 102.216C622.562 102.557 623.263 102.727 624.073 102.727C624.611 102.727 625.104 102.652 625.551 102.5C625.998 102.348 626.38 102.121 626.698 101.818C627.017 101.515 627.259 101.144 627.426 100.705L631.903 101C631.676 102.076 631.21 103.015 630.505 103.818C629.808 104.614 628.907 105.235 627.801 105.682C626.702 106.121 625.433 106.341 623.994 106.341ZM650.328 88.5455L644.226 106H638.771L632.669 88.5455H637.783L641.408 101.034H641.59L645.203 88.5455H650.328ZM659.489 106.341C657.724 106.341 656.198 105.966 654.91 105.216C653.63 104.458 652.641 103.405 651.944 102.057C651.247 100.701 650.899 99.1288 650.899 97.3409C650.899 95.5379 651.247 93.9621 651.944 92.6136C652.641 91.2576 653.63 90.2045 654.91 89.4545C656.198 88.697 657.724 88.3182 659.489 88.3182C661.255 88.3182 662.777 88.697 664.058 89.4545C665.346 90.2045 666.338 91.2576 667.035 92.6136C667.732 93.9621 668.08 95.5379 668.08 97.3409C668.08 99.1288 667.732 100.701 667.035 102.057C666.338 103.405 665.346 104.458 664.058 105.216C662.777 105.966 661.255 106.341 659.489 106.341ZM659.512 102.591C660.315 102.591 660.986 102.364 661.524 101.909C662.061 101.447 662.467 100.818 662.739 100.023C663.02 99.2273 663.16 98.322 663.16 97.3068C663.16 96.2917 663.02 95.3864 662.739 94.5909C662.467 93.7955 662.061 93.1667 661.524 92.7045C660.986 92.2424 660.315 92.0114 659.512 92.0114C658.702 92.0114 658.02 92.2424 657.467 92.7045C656.921 93.1667 656.508 93.7955 656.228 94.5909C655.955 95.3864 655.819 96.2917 655.819 97.3068C655.819 98.322 655.955 99.2273 656.228 100.023C656.508 100.818 656.921 101.447 657.467 101.909C658.02 102.364 658.702 102.591 659.512 102.591ZM685.695 106H677.445V82.7273H685.763C688.104 82.7273 690.119 83.1932 691.809 84.125C693.498 85.0492 694.797 86.3788 695.707 88.1136C696.623 89.8485 697.082 91.9242 697.082 94.3409C697.082 96.7652 696.623 98.8485 695.707 100.591C694.797 102.333 693.491 103.67 691.786 104.602C690.089 105.534 688.059 106 685.695 106ZM682.366 101.784H685.491C686.945 101.784 688.169 101.527 689.161 101.011C690.161 100.489 690.911 99.6818 691.411 98.5909C691.919 97.4924 692.172 96.0758 692.172 94.3409C692.172 92.6212 691.919 91.2159 691.411 90.125C690.911 89.0341 690.165 88.2311 689.172 87.7159C688.18 87.2008 686.957 86.9432 685.502 86.9432H682.366V101.784ZM699.996 106V88.5455H704.836V106H699.996ZM702.427 86.2955C701.708 86.2955 701.09 86.0568 700.575 85.5795C700.068 85.0947 699.814 84.5152 699.814 83.8409C699.814 83.1742 700.068 82.6023 700.575 82.125C701.09 81.6402 701.708 81.3977 702.427 81.3977C703.147 81.3977 703.761 81.6402 704.268 82.125C704.783 82.6023 705.041 83.1742 705.041 83.8409C705.041 84.5152 704.783 85.0947 704.268 85.5795C703.761 86.0568 703.147 86.2955 702.427 86.2955ZM715.938 112.909C714.37 112.909 713.025 112.693 711.904 112.261C710.79 111.837 709.904 111.258 709.245 110.523C708.586 109.788 708.158 108.962 707.961 108.045L712.438 107.443C712.574 107.792 712.79 108.117 713.086 108.42C713.381 108.723 713.771 108.966 714.256 109.148C714.749 109.337 715.347 109.432 716.052 109.432C717.105 109.432 717.972 109.174 718.654 108.659C719.343 108.152 719.688 107.299 719.688 106.102V102.909H719.483C719.271 103.394 718.953 103.852 718.529 104.284C718.105 104.716 717.559 105.068 716.892 105.341C716.226 105.614 715.43 105.75 714.506 105.75C713.196 105.75 712.002 105.447 710.927 104.841C709.858 104.227 709.006 103.292 708.37 102.034C707.741 100.769 707.427 99.1705 707.427 97.2386C707.427 95.2614 707.749 93.6098 708.392 92.2841C709.036 90.9583 709.892 89.9659 710.961 89.3068C712.036 88.6477 713.214 88.3182 714.495 88.3182C715.472 88.3182 716.29 88.4848 716.949 88.8182C717.608 89.1439 718.139 89.553 718.54 90.0455C718.949 90.5303 719.264 91.0076 719.483 91.4773H719.665V88.5455H724.472V106.17C724.472 107.655 724.108 108.898 723.381 109.898C722.654 110.898 721.646 111.648 720.358 112.148C719.078 112.655 717.605 112.909 715.938 112.909ZM716.04 102.114C716.821 102.114 717.48 101.92 718.017 101.534C718.563 101.14 718.98 100.58 719.267 99.8523C719.563 99.1174 719.711 98.2386 719.711 97.2159C719.711 96.1932 719.567 95.3068 719.279 94.5568C718.991 93.7992 718.574 93.2121 718.029 92.7955C717.483 92.3788 716.821 92.1705 716.04 92.1705C715.245 92.1705 714.574 92.3864 714.029 92.8182C713.483 93.2424 713.071 93.8333 712.79 94.5909C712.51 95.3485 712.37 96.2235 712.37 97.2159C712.37 98.2235 712.51 99.0947 712.79 99.8295C713.078 100.557 713.491 101.121 714.029 101.523C714.574 101.917 715.245 102.114 716.04 102.114ZM727.684 106V88.5455H732.525V106H727.684ZM730.116 86.2955C729.396 86.2955 728.779 86.0568 728.264 85.5795C727.756 85.0947 727.503 84.5152 727.503 83.8409C727.503 83.1742 727.756 82.6023 728.264 82.125C728.779 81.6402 729.396 81.3977 730.116 81.3977C730.836 81.3977 731.449 81.6402 731.957 82.125C732.472 82.6023 732.73 83.1742 732.73 83.8409C732.73 84.5152 732.472 85.0947 731.957 85.5795C731.449 86.0568 730.836 86.2955 730.116 86.2955ZM745.047 88.5455V92.1818H734.536V88.5455H745.047ZM736.922 84.3636H741.763V100.636C741.763 101.083 741.831 101.432 741.968 101.682C742.104 101.924 742.293 102.095 742.536 102.193C742.786 102.292 743.074 102.341 743.399 102.341C743.627 102.341 743.854 102.322 744.081 102.284C744.309 102.239 744.483 102.205 744.604 102.182L745.365 105.784C745.123 105.86 744.782 105.947 744.343 106.045C743.903 106.152 743.369 106.216 742.74 106.239C741.574 106.284 740.551 106.129 739.672 105.773C738.801 105.417 738.123 104.864 737.638 104.114C737.153 103.364 736.915 102.417 736.922 101.273V84.3636ZM752.538 106.33C751.424 106.33 750.432 106.136 749.561 105.75C748.689 105.356 748 104.777 747.492 104.011C746.992 103.239 746.742 102.277 746.742 101.125C746.742 100.155 746.92 99.3409 747.276 98.6818C747.633 98.0227 748.117 97.4924 748.731 97.0909C749.345 96.6894 750.042 96.3864 750.822 96.1818C751.61 95.9773 752.436 95.8333 753.299 95.75C754.314 95.6439 755.133 95.5455 755.754 95.4545C756.375 95.3561 756.826 95.2121 757.106 95.0227C757.386 94.8333 757.526 94.553 757.526 94.1818V94.1136C757.526 93.3939 757.299 92.8371 756.845 92.4432C756.398 92.0492 755.761 91.8523 754.936 91.8523C754.064 91.8523 753.371 92.0455 752.856 92.4318C752.341 92.8106 752 93.2879 751.833 93.8636L747.356 93.5C747.583 92.4394 748.03 91.5227 748.697 90.75C749.364 89.9697 750.223 89.3712 751.276 88.9545C752.337 88.5303 753.564 88.3182 754.958 88.3182C755.928 88.3182 756.856 88.4318 757.742 88.6591C758.636 88.8864 759.428 89.2386 760.117 89.7159C760.814 90.1932 761.364 90.8068 761.765 91.5568C762.167 92.2992 762.367 93.1894 762.367 94.2273V106H757.776V103.58H757.64C757.36 104.125 756.985 104.606 756.515 105.023C756.045 105.432 755.481 105.754 754.822 105.989C754.163 106.216 753.401 106.33 752.538 106.33ZM753.924 102.989C754.636 102.989 755.265 102.848 755.811 102.568C756.356 102.28 756.784 101.894 757.095 101.409C757.405 100.924 757.561 100.375 757.561 99.7614V97.9091C757.409 98.0076 757.201 98.0985 756.936 98.1818C756.678 98.2576 756.386 98.3295 756.061 98.3977C755.735 98.4583 755.409 98.5152 755.083 98.5682C754.758 98.6136 754.462 98.6553 754.197 98.6932C753.629 98.7765 753.133 98.9091 752.708 99.0909C752.284 99.2727 751.955 99.5189 751.72 99.8295C751.485 100.133 751.367 100.511 751.367 100.966C751.367 101.625 751.606 102.129 752.083 102.477C752.568 102.818 753.182 102.989 753.924 102.989ZM770.324 82.7273V106H765.483V82.7273H770.324ZM779.346 82.7273L778.903 99.0227H774.744L774.289 82.7273H779.346ZM776.823 106.295C776.073 106.295 775.429 106.03 774.891 105.5C774.353 104.962 774.088 104.318 774.096 103.568C774.088 102.826 774.353 102.189 774.891 101.659C775.429 101.129 776.073 100.864 776.823 100.864C777.543 100.864 778.175 101.129 778.721 101.659C779.266 102.189 779.543 102.826 779.55 103.568C779.543 104.068 779.41 104.527 779.153 104.943C778.903 105.352 778.573 105.682 778.164 105.932C777.755 106.174 777.308 106.295 776.823 106.295Z" fill="black"/>
<rect x="1052" y="164" width="356" height="45" rx="10" fill="#C5C5C5"/>
<path d="M396 164H523V209H396V164Z" fill="#C5C5C5"/>
<path d="M269 174C269 168.477 273.477 164 279 164H396V209H279C273.477 209 269 204.523 269 199V174Z" fill="#C5C5C5"/>
<path d="M850 174C850 168.477 854.477 164 860 164H1000C1005.52 164 1010 168.477 1010 174V199C1010 204.523 1005.52 209 1000 209H860C854.477 209 850 204.523 850 199V174Z" fill="#C5C5C5"/>
<path d="M523 164H640C645.523 164 650 168.477 650 174V199C650 204.523 645.523 209 640 209H523V164Z" fill="#C5C5C5"/>
<rect x="269" y="253" width="233" height="162" rx="10" fill="#C5C5C5"/>
<rect x="527" y="253" width="228" height="162" rx="10" fill="#C5C5C5"/>
<rect x="782" y="253" width="228" height="162" rx="10" fill="#C5C5C5"/>
<rect x="269" y="451" width="741" height="147" rx="10" fill="#C5C5C5"/>
<rect x="269" y="640" width="352" height="345" rx="10" fill="#C5C5C5"/>
<rect x="1058" y="253" width="350" height="346" rx="10" fill="#C5C5C5"/>
<rect x="663" y="642" width="351" height="345" rx="10" fill="#C5C5C5"/>
<rect x="1056" y="641" width="352" height="346" rx="10" fill="#C5C5C5"/>
<rect width="234" height="1024" fill="#C5C5C5"/>
<rect x="33" width="85" height="1024" fill="#FF7B7B" fill-opacity="0.25"/>
<rect x="150" width="85" height="1024" fill="#FF7B7B" fill-opacity="0.25"/>
<rect x="267" width="85" height="1024" fill="#FF7B7B" fill-opacity="0.25"/>
<rect x="385" width="85" height="1024" fill="#FF7B7B" fill-opacity="0.25"/>
<rect x="502" width="85" height="1024" fill="#FF7B7B" fill-opacity="0.25"/>
<rect x="620" width="85" height="1024" fill="#FF7B7B" fill-opacity="0.25"/>
<rect x="737" width="85" height="1024" fill="#FF7B7B" fill-opacity="0.25"/>
<rect x="854" width="85" height="1024" fill="#FF7B7B" fill-opacity="0.25"/>
<rect x="972" width="85" height="1024" fill="#FF7B7B" fill-opacity="0.25"/>
<rect x="1089" width="85" height="1024" fill="#FF7B7B" fill-opacity="0.25"/>
<rect x="1207" width="85" height="1024" fill="#FF7B7B" fill-opacity="0.25"/>
<rect x="1324" width="85" height="1024" fill="#FF7B7B" fill-opacity="0.25"/>
</svg>
