<svg width="1440" height="1024" viewBox="0 0 1440 1024" fill="none" xmlns="http://www.w3.org/2000/svg">
<rect width="1440" height="1024" fill="#F1F1F1"/>
<path d="M150.233 57V46.8182H153.793C154.502 46.8182 155.087 46.9408 155.548 47.1861C156.008 47.428 156.351 47.7545 156.577 48.1655C156.802 48.5732 156.915 49.0256 156.915 49.5227C156.915 49.9602 156.837 50.3215 156.681 50.6065C156.529 50.8916 156.326 51.117 156.075 51.2827C155.826 51.4484 155.556 51.571 155.264 51.6506V51.75C155.576 51.7699 155.889 51.8793 156.204 52.0781C156.519 52.277 156.782 52.562 156.994 52.9332C157.206 53.3045 157.312 53.7585 157.312 54.2955C157.312 54.8059 157.196 55.2649 156.964 55.6726C156.732 56.0803 156.366 56.4034 155.866 56.642C155.365 56.8807 154.714 57 153.912 57H150.233ZM151.466 55.9062H153.912C154.717 55.9062 155.289 55.7505 155.627 55.4389C155.969 55.1241 156.139 54.7429 156.139 54.2955C156.139 53.9508 156.051 53.6326 155.876 53.3409C155.7 53.0459 155.45 52.8106 155.125 52.6349C154.8 52.456 154.416 52.3665 153.972 52.3665H151.466V55.9062ZM151.466 51.2926H153.753C154.124 51.2926 154.459 51.2197 154.757 51.0739C155.059 50.928 155.297 50.7225 155.473 50.4574C155.652 50.1922 155.741 49.8807 155.741 49.5227C155.741 49.0753 155.586 48.6958 155.274 48.3842C154.963 48.0694 154.469 47.9119 153.793 47.9119H151.466V51.2926ZM162.002 57.1591C161.312 57.1591 160.707 56.995 160.187 56.6669C159.67 56.3388 159.266 55.8797 158.974 55.2898C158.686 54.6998 158.541 54.0104 158.541 53.2216C158.541 52.4261 158.686 51.7318 158.974 51.1385C159.266 50.5452 159.67 50.0845 160.187 49.7564C160.707 49.4283 161.312 49.2642 162.002 49.2642C162.691 49.2642 163.294 49.4283 163.811 49.7564C164.332 50.0845 164.736 50.5452 165.024 51.1385C165.316 51.7318 165.462 52.4261 165.462 53.2216C165.462 54.0104 165.316 54.6998 165.024 55.2898C164.736 55.8797 164.332 56.3388 163.811 56.6669C163.294 56.995 162.691 57.1591 162.002 57.1591ZM162.002 56.1051C162.525 56.1051 162.956 55.9709 163.294 55.7024C163.632 55.4339 163.883 55.081 164.045 54.6435C164.207 54.206 164.289 53.732 164.289 53.2216C164.289 52.7112 164.207 52.2356 164.045 51.7947C163.883 51.3539 163.632 50.9976 163.294 50.7259C162.956 50.4541 162.525 50.3182 162.002 50.3182C161.478 50.3182 161.047 50.4541 160.709 50.7259C160.371 50.9976 160.121 51.3539 159.958 51.7947C159.796 52.2356 159.715 52.7112 159.715 53.2216C159.715 53.732 159.796 54.206 159.958 54.6435C160.121 55.081 160.371 55.4339 160.709 55.7024C161.047 55.9709 161.478 56.1051 162.002 56.1051ZM169.22 57.179C168.736 57.179 168.297 57.0878 167.903 56.9055C167.508 56.7199 167.195 56.4531 166.963 56.1051C166.731 55.7538 166.615 55.3295 166.615 54.8324C166.615 54.3949 166.701 54.0402 166.873 53.7685C167.046 53.4934 167.276 53.2779 167.564 53.1222C167.853 52.9664 168.171 52.8504 168.519 52.7741C168.87 52.6946 169.223 52.6316 169.578 52.5852C170.042 52.5256 170.418 52.4808 170.707 52.451C170.998 52.4179 171.21 52.3632 171.343 52.2869C171.479 52.2107 171.547 52.0781 171.547 51.8892V51.8494C171.547 51.3589 171.412 50.9777 171.144 50.706C170.879 50.4342 170.476 50.2983 169.936 50.2983C169.376 50.2983 168.937 50.4209 168.618 50.6662C168.3 50.9115 168.077 51.1733 167.947 51.4517L166.834 51.054C167.033 50.59 167.298 50.2287 167.629 49.9702C167.964 49.7083 168.328 49.526 168.723 49.4233C169.121 49.3172 169.512 49.2642 169.896 49.2642C170.141 49.2642 170.423 49.294 170.741 49.3537C171.063 49.41 171.373 49.5277 171.671 49.7067C171.973 49.8857 172.223 50.1558 172.422 50.517C172.621 50.8783 172.72 51.3622 172.72 51.9688V57H171.547V55.9659H171.487C171.408 56.1316 171.275 56.3089 171.089 56.4979C170.904 56.6868 170.657 56.8475 170.349 56.9801C170.04 57.1127 169.664 57.179 169.22 57.179ZM169.399 56.125C169.863 56.125 170.254 56.0339 170.572 55.8516C170.894 55.6693 171.136 55.4339 171.298 55.1456C171.464 54.8572 171.547 54.554 171.547 54.2358V53.1619C171.497 53.2216 171.388 53.2763 171.219 53.326C171.053 53.3724 170.861 53.4138 170.642 53.4503C170.426 53.4834 170.216 53.5133 170.01 53.5398C169.808 53.563 169.644 53.5829 169.518 53.5994C169.213 53.6392 168.928 53.7038 168.663 53.7933C168.401 53.8795 168.189 54.0104 168.027 54.1861C167.868 54.3584 167.788 54.5937 167.788 54.892C167.788 55.2997 167.939 55.608 168.241 55.8168C168.546 56.0223 168.932 56.125 169.399 56.125ZM181.56 49.3636V50.358H177.603V49.3636H181.56ZM178.756 47.5341H179.929V54.8125C179.929 55.1439 179.977 55.3925 180.074 55.5582C180.173 55.7206 180.299 55.83 180.451 55.8864C180.607 55.9394 180.771 55.9659 180.944 55.9659C181.073 55.9659 181.179 55.9593 181.262 55.946C181.345 55.9295 181.411 55.9162 181.461 55.9062L181.699 56.9602C181.62 56.9901 181.509 57.0199 181.366 57.0497C181.224 57.0829 181.043 57.0994 180.824 57.0994C180.493 57.0994 180.168 57.0282 179.85 56.8857C179.535 56.7431 179.273 56.526 179.064 56.2344C178.859 55.9427 178.756 55.5748 178.756 55.1307V47.5341ZM185.292 57.179C184.808 57.179 184.369 57.0878 183.975 56.9055C183.58 56.7199 183.267 56.4531 183.035 56.1051C182.803 55.7538 182.687 55.3295 182.687 54.8324C182.687 54.3949 182.773 54.0402 182.946 53.7685C183.118 53.4934 183.348 53.2779 183.637 53.1222C183.925 52.9664 184.243 52.8504 184.591 52.7741C184.942 52.6946 185.295 52.6316 185.65 52.5852C186.114 52.5256 186.49 52.4808 186.779 52.451C187.07 52.4179 187.282 52.3632 187.415 52.2869C187.551 52.2107 187.619 52.0781 187.619 51.8892V51.8494C187.619 51.3589 187.485 50.9777 187.216 50.706C186.951 50.4342 186.548 50.2983 186.008 50.2983C185.448 50.2983 185.009 50.4209 184.691 50.6662C184.372 50.9115 184.149 51.1733 184.019 51.4517L182.906 51.054C183.105 50.59 183.37 50.2287 183.701 49.9702C184.036 49.7083 184.401 49.526 184.795 49.4233C185.193 49.3172 185.584 49.2642 185.968 49.2642C186.214 49.2642 186.495 49.294 186.813 49.3537C187.135 49.41 187.445 49.5277 187.743 49.7067C188.045 49.8857 188.295 50.1558 188.494 50.517C188.693 50.8783 188.792 51.3622 188.792 51.9688V57H187.619V55.9659H187.559C187.48 56.1316 187.347 56.3089 187.161 56.4979C186.976 56.6868 186.729 56.8475 186.421 56.9801C186.112 57.1127 185.736 57.179 185.292 57.179ZM185.471 56.125C185.935 56.125 186.326 56.0339 186.644 55.8516C186.966 55.6693 187.208 55.4339 187.37 55.1456C187.536 54.8572 187.619 54.554 187.619 54.2358V53.1619C187.569 53.2216 187.46 53.2763 187.291 53.326C187.125 53.3724 186.933 53.4138 186.714 53.4503C186.499 53.4834 186.288 53.5133 186.083 53.5398C185.88 53.563 185.716 53.5829 185.59 53.5994C185.285 53.6392 185 53.7038 184.735 53.7933C184.473 53.8795 184.261 54.0104 184.099 54.1861C183.94 54.3584 183.86 54.5937 183.86 54.892C183.86 55.2997 184.011 55.608 184.313 55.8168C184.618 56.0223 185.004 56.125 185.471 56.125ZM190.654 57V49.3636H191.787V50.517H191.867C192.006 50.1392 192.258 49.8326 192.622 49.5973C192.987 49.362 193.398 49.2443 193.855 49.2443C193.942 49.2443 194.049 49.246 194.178 49.2493C194.308 49.2526 194.406 49.2576 194.472 49.2642V50.4574C194.432 50.4474 194.341 50.4325 194.198 50.4126C194.059 50.3894 193.912 50.3778 193.756 50.3778C193.385 50.3778 193.053 50.4557 192.762 50.6115C192.473 50.764 192.245 50.9761 192.076 51.2479C191.91 51.5163 191.827 51.8229 191.827 52.1676V57H190.654ZM198.234 57.1591C197.597 57.1591 197.036 56.9983 196.548 56.6768C196.061 56.352 195.68 55.8946 195.405 55.3047C195.13 54.7114 194.992 54.0104 194.992 53.2017C194.992 52.3996 195.13 51.7036 195.405 51.1136C195.68 50.5237 196.063 50.0679 196.553 49.7464C197.044 49.425 197.611 49.2642 198.254 49.2642C198.751 49.2642 199.144 49.3471 199.432 49.5128C199.724 49.6752 199.946 49.8608 200.098 50.0696C200.254 50.2751 200.375 50.4441 200.461 50.5767H200.56V46.8182H201.734V57H200.6V55.8267H200.461C200.375 55.9659 200.252 56.1416 200.093 56.3537C199.934 56.5625 199.707 56.7498 199.412 56.9155C199.117 57.0779 198.724 57.1591 198.234 57.1591ZM198.393 56.1051C198.863 56.1051 199.261 55.9825 199.586 55.7372C199.911 55.4886 200.158 55.1456 200.327 54.7081C200.496 54.2673 200.58 53.7585 200.58 53.1818C200.58 52.6117 200.497 52.1129 200.332 51.6854C200.166 51.2545 199.921 50.9197 199.596 50.6811C199.271 50.4392 198.87 50.3182 198.393 50.3182C197.896 50.3182 197.481 50.4458 197.15 50.701C196.822 50.9529 196.575 51.2959 196.409 51.7301C196.247 52.161 196.166 52.6449 196.166 53.1818C196.166 53.7254 196.248 54.2192 196.414 54.6634C196.583 55.1042 196.832 55.4555 197.16 55.7173C197.491 55.9759 197.902 56.1051 198.393 56.1051ZM206.967 57.1591C206.231 57.1591 205.597 56.9967 205.063 56.6719C204.533 56.3438 204.123 55.8864 203.835 55.2997C203.55 54.7098 203.408 54.0237 203.408 53.2415C203.408 52.4593 203.55 51.7699 203.835 51.1733C204.123 50.5734 204.524 50.1061 205.038 49.7713C205.555 49.4332 206.158 49.2642 206.848 49.2642C207.246 49.2642 207.638 49.3305 208.026 49.4631C208.414 49.5956 208.767 49.8111 209.085 50.1094C209.403 50.4044 209.657 50.7955 209.846 51.2827C210.035 51.7699 210.129 52.3698 210.129 53.0824V53.5795H204.243V52.5653H208.936C208.936 52.1345 208.85 51.75 208.677 51.4119C208.508 51.0739 208.266 50.8071 207.952 50.6115C207.64 50.416 207.272 50.3182 206.848 50.3182C206.381 50.3182 205.976 50.4342 205.635 50.6662C205.297 50.8949 205.037 51.1932 204.854 51.5611C204.672 51.929 204.581 52.3234 204.581 52.7443V53.4205C204.581 53.9972 204.68 54.486 204.879 54.8871C205.081 55.2848 205.361 55.5881 205.719 55.7969C206.077 56.0024 206.493 56.1051 206.967 56.1051C207.275 56.1051 207.554 56.062 207.802 55.9759C208.054 55.8864 208.271 55.7538 208.454 55.5781C208.636 55.3991 208.777 55.1771 208.876 54.9119L210.01 55.2301C209.891 55.6146 209.69 55.9527 209.408 56.2443C209.127 56.5327 208.779 56.758 208.364 56.9205C207.95 57.0795 207.484 57.1591 206.967 57.1591ZM215.451 57V46.8182H221.556V47.9119H216.683V51.3523H221.098V52.446H216.683V57H215.451ZM225.869 57.1591C225.134 57.1591 224.499 56.9967 223.965 56.6719C223.435 56.3438 223.026 55.8864 222.737 55.2997C222.452 54.7098 222.31 54.0237 222.31 53.2415C222.31 52.4593 222.452 51.7699 222.737 51.1733C223.026 50.5734 223.427 50.1061 223.94 49.7713C224.457 49.4332 225.061 49.2642 225.75 49.2642C226.148 49.2642 226.541 49.3305 226.928 49.4631C227.316 49.5956 227.669 49.8111 227.987 50.1094C228.305 50.4044 228.559 50.7955 228.748 51.2827C228.937 51.7699 229.031 52.3698 229.031 53.0824V53.5795H223.145V52.5653H227.838C227.838 52.1345 227.752 51.75 227.58 51.4119C227.411 51.0739 227.169 50.8071 226.854 50.6115C226.542 50.416 226.174 50.3182 225.75 50.3182C225.283 50.3182 224.878 50.4342 224.537 50.6662C224.199 50.8949 223.939 51.1932 223.756 51.5611C223.574 51.929 223.483 52.3234 223.483 52.7443V53.4205C223.483 53.9972 223.582 54.486 223.781 54.8871C223.984 55.2848 224.264 55.5881 224.622 55.7969C224.979 56.0024 225.395 56.1051 225.869 56.1051C226.178 56.1051 226.456 56.062 226.705 55.9759C226.957 55.8864 227.174 55.7538 227.356 55.5781C227.538 55.3991 227.679 55.1771 227.778 54.9119L228.912 55.2301C228.793 55.6146 228.592 55.9527 228.31 56.2443C228.029 56.5327 227.681 56.758 227.266 56.9205C226.852 57.0795 226.386 57.1591 225.869 57.1591ZM230.536 57V49.3636H231.67V50.517H231.749C231.888 50.1392 232.14 49.8326 232.505 49.5973C232.869 49.362 233.28 49.2443 233.738 49.2443C233.824 49.2443 233.932 49.246 234.061 49.2493C234.19 49.2526 234.288 49.2576 234.354 49.2642V50.4574C234.315 50.4474 234.223 50.4325 234.081 50.4126C233.942 50.3894 233.794 50.3778 233.638 50.3778C233.267 50.3778 232.936 50.4557 232.644 50.6115C232.356 50.764 232.127 50.9761 231.958 51.2479C231.792 51.5163 231.709 51.8229 231.709 52.1676V57H230.536ZM236.638 52.4062V57H235.465V49.3636H236.599V50.5568H236.698C236.877 50.169 237.149 49.8575 237.513 49.6222C237.878 49.3835 238.349 49.2642 238.925 49.2642C239.442 49.2642 239.895 49.3703 240.283 49.5824C240.67 49.7912 240.972 50.1094 241.187 50.5369C241.403 50.9612 241.511 51.4981 241.511 52.1477V57H240.337V52.2273C240.337 51.6274 240.181 51.16 239.87 50.8253C239.558 50.4872 239.131 50.3182 238.587 50.3182C238.213 50.3182 237.878 50.3994 237.583 50.5618C237.291 50.7242 237.061 50.9612 236.892 51.2727C236.723 51.5843 236.638 51.9621 236.638 52.4062ZM245.622 57.179C245.138 57.179 244.699 57.0878 244.304 56.9055C243.91 56.7199 243.597 56.4531 243.365 56.1051C243.133 55.7538 243.017 55.3295 243.017 54.8324C243.017 54.3949 243.103 54.0402 243.275 53.7685C243.447 53.4934 243.678 53.2779 243.966 53.1222C244.255 52.9664 244.573 52.8504 244.921 52.7741C245.272 52.6946 245.625 52.6316 245.98 52.5852C246.444 52.5256 246.82 52.4808 247.108 52.451C247.4 52.4179 247.612 52.3632 247.745 52.2869C247.88 52.2107 247.948 52.0781 247.948 51.8892V51.8494C247.948 51.3589 247.814 50.9777 247.546 50.706C247.281 50.4342 246.878 50.2983 246.338 50.2983C245.778 50.2983 245.338 50.4209 245.02 50.6662C244.702 50.9115 244.478 51.1733 244.349 51.4517L243.235 51.054C243.434 50.59 243.699 50.2287 244.031 49.9702C244.366 49.7083 244.73 49.526 245.125 49.4233C245.522 49.3172 245.913 49.2642 246.298 49.2642C246.543 49.2642 246.825 49.294 247.143 49.3537C247.465 49.41 247.774 49.5277 248.073 49.7067C248.374 49.8857 248.625 50.1558 248.823 50.517C249.022 50.8783 249.122 51.3622 249.122 51.9688V57H247.948V55.9659H247.889C247.809 56.1316 247.677 56.3089 247.491 56.4979C247.305 56.6868 247.059 56.8475 246.75 56.9801C246.442 57.1127 246.066 57.179 245.622 57.179ZM245.801 56.125C246.265 56.125 246.656 56.0339 246.974 55.8516C247.295 55.6693 247.537 55.4339 247.7 55.1456C247.866 54.8572 247.948 54.554 247.948 54.2358V53.1619C247.899 53.2216 247.789 53.2763 247.62 53.326C247.455 53.3724 247.262 53.4138 247.044 53.4503C246.828 53.4834 246.618 53.5133 246.412 53.5398C246.21 53.563 246.046 53.5829 245.92 53.5994C245.615 53.6392 245.33 53.7038 245.065 53.7933C244.803 53.8795 244.591 54.0104 244.429 54.1861C244.269 54.3584 244.19 54.5937 244.19 54.892C244.19 55.2997 244.341 55.608 244.642 55.8168C244.947 56.0223 245.333 56.125 245.801 56.125ZM252.157 52.4062V57H250.983V49.3636H252.117V50.5568H252.216C252.395 50.169 252.667 49.8575 253.032 49.6222C253.396 49.3835 253.867 49.2642 254.443 49.2642C254.961 49.2642 255.413 49.3703 255.801 49.5824C256.188 49.7912 256.49 50.1094 256.706 50.5369C256.921 50.9612 257.029 51.4981 257.029 52.1477V57H255.855V52.2273C255.855 51.6274 255.7 51.16 255.388 50.8253C255.077 50.4872 254.649 50.3182 254.105 50.3182C253.731 50.3182 253.396 50.3994 253.101 50.5618C252.809 50.7242 252.579 50.9612 252.41 51.2727C252.241 51.5843 252.157 51.9621 252.157 52.4062ZM261.776 57.1591C261.14 57.1591 260.578 56.9983 260.091 56.6768C259.604 56.352 259.222 55.8946 258.947 55.3047C258.672 54.7114 258.535 54.0104 258.535 53.2017C258.535 52.3996 258.672 51.7036 258.947 51.1136C259.222 50.5237 259.605 50.0679 260.096 49.7464C260.586 49.425 261.153 49.2642 261.796 49.2642C262.293 49.2642 262.686 49.3471 262.974 49.5128C263.266 49.6752 263.488 49.8608 263.641 50.0696C263.796 50.2751 263.917 50.4441 264.003 50.5767H264.103V46.8182H265.276V57H264.143V55.8267H264.003C263.917 55.9659 263.795 56.1416 263.636 56.3537C263.476 56.5625 263.249 56.7498 262.954 56.9155C262.659 57.0779 262.267 57.1591 261.776 57.1591ZM261.935 56.1051C262.406 56.1051 262.804 55.9825 263.128 55.7372C263.453 55.4886 263.7 55.1456 263.869 54.7081C264.038 54.2673 264.123 53.7585 264.123 53.1818C264.123 52.6117 264.04 52.1129 263.874 51.6854C263.709 51.2545 263.463 50.9197 263.138 50.6811C262.814 50.4392 262.413 50.3182 261.935 50.3182C261.438 50.3182 261.024 50.4458 260.692 50.701C260.364 50.9529 260.117 51.2959 259.952 51.7301C259.789 52.161 259.708 52.6449 259.708 53.1818C259.708 53.7254 259.791 54.2192 259.957 54.6634C260.126 55.1042 260.374 55.4555 260.702 55.7173C261.034 55.9759 261.445 56.1051 261.935 56.1051ZM270.41 57.1591C269.721 57.1591 269.116 56.995 268.596 56.6669C268.079 56.3388 267.674 55.8797 267.383 55.2898C267.094 54.6998 266.95 54.0104 266.95 53.2216C266.95 52.4261 267.094 51.7318 267.383 51.1385C267.674 50.5452 268.079 50.0845 268.596 49.7564C269.116 49.4283 269.721 49.2642 270.41 49.2642C271.1 49.2642 271.703 49.4283 272.22 49.7564C272.74 50.0845 273.145 50.5452 273.433 51.1385C273.725 51.7318 273.871 52.4261 273.871 53.2216C273.871 54.0104 273.725 54.6998 273.433 55.2898C273.145 55.8797 272.74 56.3388 272.22 56.6669C271.703 56.995 271.1 57.1591 270.41 57.1591ZM270.41 56.1051C270.934 56.1051 271.365 55.9709 271.703 55.7024C272.041 55.4339 272.291 55.081 272.454 54.6435C272.616 54.206 272.697 53.732 272.697 53.2216C272.697 52.7112 272.616 52.2356 272.454 51.7947C272.291 51.3539 272.041 50.9976 271.703 50.7259C271.365 50.4541 270.934 50.3182 270.41 50.3182C269.887 50.3182 269.456 50.4541 269.118 50.7259C268.78 50.9976 268.529 51.3539 268.367 51.7947C268.205 52.2356 268.123 52.7112 268.123 53.2216C268.123 53.732 268.205 54.206 268.367 54.6435C268.529 55.081 268.78 55.4339 269.118 55.7024C269.456 55.9709 269.887 56.1051 270.41 56.1051ZM277.132 55.608L277.052 56.1449C276.996 56.5227 276.909 56.9271 276.793 57.358C276.681 57.7888 276.563 58.1948 276.44 58.576C276.318 58.9571 276.217 59.2604 276.137 59.4858H275.242C275.285 59.2737 275.342 58.9936 275.411 58.6456C275.481 58.2976 275.551 57.9081 275.62 57.4773C275.693 57.0497 275.753 56.6122 275.799 56.1648L275.859 55.608H277.132Z" fill="black"/>
<path d="M151.023 106V82.7273H160.341C162.053 82.7273 163.481 82.9811 164.625 83.4886C165.769 83.9962 166.629 84.7008 167.205 85.6023C167.78 86.4962 168.068 87.5265 168.068 88.6932C168.068 89.6023 167.886 90.4015 167.523 91.0909C167.159 91.7727 166.659 92.3333 166.023 92.7727C165.394 93.2045 164.674 93.5114 163.864 93.6932V93.9205C164.75 93.9583 165.58 94.2083 166.352 94.6705C167.133 95.1326 167.765 95.7803 168.25 96.6136C168.735 97.4394 168.977 98.4242 168.977 99.5682C168.977 100.803 168.67 101.905 168.057 102.875C167.451 103.837 166.553 104.598 165.364 105.159C164.174 105.72 162.708 106 160.966 106H151.023ZM155.943 101.977H159.955C161.326 101.977 162.326 101.716 162.955 101.193C163.583 100.663 163.898 99.9583 163.898 99.0795C163.898 98.4356 163.742 97.8674 163.432 97.375C163.121 96.8826 162.678 96.4962 162.102 96.2159C161.534 95.9356 160.856 95.7955 160.068 95.7955H155.943V101.977ZM155.943 92.4659H159.591C160.265 92.4659 160.864 92.3485 161.386 92.1136C161.917 91.8712 162.333 91.5303 162.636 91.0909C162.947 90.6515 163.102 90.125 163.102 89.5114C163.102 88.6705 162.803 87.9924 162.205 87.4773C161.614 86.9621 160.773 86.7045 159.682 86.7045H155.943V92.4659ZM179.403 106.341C177.607 106.341 176.062 105.977 174.766 105.25C173.478 104.515 172.486 103.477 171.789 102.136C171.092 100.788 170.744 99.1932 170.744 97.3523C170.744 95.5568 171.092 93.9811 171.789 92.625C172.486 91.2689 173.467 90.2121 174.732 89.4545C176.005 88.697 177.497 88.3182 179.209 88.3182C180.361 88.3182 181.433 88.5038 182.425 88.875C183.425 89.2386 184.297 89.7879 185.039 90.5227C185.789 91.2576 186.372 92.1818 186.789 93.2955C187.206 94.4015 187.414 95.697 187.414 97.1818V98.5114H172.675V95.5114H182.857C182.857 94.8144 182.706 94.197 182.403 93.6591C182.1 93.1212 181.679 92.7008 181.141 92.3977C180.611 92.0871 179.994 91.9318 179.289 91.9318C178.554 91.9318 177.903 92.1023 177.334 92.4432C176.774 92.7765 176.334 93.2273 176.016 93.7955C175.698 94.3561 175.535 94.9811 175.528 95.6705V98.5227C175.528 99.3864 175.687 100.133 176.005 100.761C176.331 101.39 176.789 101.875 177.38 102.216C177.971 102.557 178.672 102.727 179.482 102.727C180.02 102.727 180.512 102.652 180.959 102.5C181.406 102.348 181.789 102.121 182.107 101.818C182.425 101.515 182.668 101.144 182.834 100.705L187.312 101C187.084 102.076 186.619 103.015 185.914 103.818C185.217 104.614 184.315 105.235 183.209 105.682C182.111 106.121 180.842 106.341 179.403 106.341ZM189.933 106V88.5455H194.547V91.625H194.751C195.115 90.6023 195.721 89.7955 196.569 89.2045C197.418 88.6136 198.433 88.3182 199.615 88.3182C200.812 88.3182 201.831 88.6174 202.672 89.2159C203.513 89.8068 204.073 90.6098 204.354 91.625H204.535C204.891 90.625 205.535 89.8258 206.467 89.2273C207.407 88.6212 208.516 88.3182 209.797 88.3182C211.425 88.3182 212.747 88.8371 213.763 89.875C214.785 90.9053 215.297 92.3674 215.297 94.2614V106H210.467V95.2159C210.467 94.2462 210.21 93.5189 209.694 93.0341C209.179 92.5492 208.535 92.3068 207.763 92.3068C206.884 92.3068 206.198 92.5871 205.706 93.1477C205.213 93.7008 204.967 94.4318 204.967 95.3409V106H200.274V95.1136C200.274 94.2576 200.028 93.5758 199.535 93.0682C199.05 92.5606 198.41 92.3068 197.615 92.3068C197.077 92.3068 196.592 92.4432 196.16 92.7159C195.736 92.9811 195.399 93.3561 195.149 93.8409C194.899 94.3182 194.774 94.8788 194.774 95.5227V106H189.933ZM229.542 82.7273L235.167 100.409H235.383L241.02 82.7273H246.474L238.451 106H232.11L224.076 82.7273H229.542ZM248.544 106V88.5455H253.385V106H248.544ZM250.976 86.2955C250.256 86.2955 249.639 86.0568 249.124 85.5795C248.616 85.0947 248.363 84.5152 248.363 83.8409C248.363 83.1742 248.616 82.6023 249.124 82.125C249.639 81.6402 250.256 81.3977 250.976 81.3977C251.696 81.3977 252.309 81.6402 252.817 82.125C253.332 82.6023 253.59 83.1742 253.59 83.8409C253.59 84.5152 253.332 85.0947 252.817 85.5795C252.309 86.0568 251.696 86.2955 250.976 86.2955ZM261.464 95.9091V106H256.623V88.5455H261.237V91.625H261.441C261.828 90.6098 262.475 89.8068 263.384 89.2159C264.294 88.6174 265.396 88.3182 266.691 88.3182C267.903 88.3182 268.96 88.5833 269.862 89.1136C270.763 89.6439 271.464 90.4015 271.964 91.3864C272.464 92.3636 272.714 93.5303 272.714 94.8864V106H267.873V95.75C267.881 94.6818 267.608 93.8485 267.055 93.25C266.502 92.6439 265.74 92.3409 264.771 92.3409C264.119 92.3409 263.544 92.4811 263.044 92.7614C262.551 93.0417 262.165 93.4508 261.884 93.9886C261.612 94.5189 261.472 95.1591 261.464 95.9091ZM282.321 106.284C280.995 106.284 279.795 105.943 278.719 105.261C277.651 104.572 276.802 103.561 276.173 102.227C275.552 100.886 275.242 99.2424 275.242 97.2955C275.242 95.2955 275.564 93.6326 276.207 92.3068C276.851 90.9735 277.707 89.9773 278.776 89.3182C279.851 88.6515 281.029 88.3182 282.31 88.3182C283.287 88.3182 284.101 88.4848 284.753 88.8182C285.412 89.1439 285.942 89.553 286.344 90.0455C286.753 90.5303 287.064 91.0076 287.276 91.4773H287.423V82.7273H292.253V106H287.48V103.205H287.276C287.048 103.689 286.726 104.17 286.31 104.648C285.901 105.117 285.367 105.508 284.707 105.818C284.056 106.129 283.261 106.284 282.321 106.284ZM283.855 102.432C284.636 102.432 285.295 102.22 285.832 101.795C286.378 101.364 286.795 100.761 287.082 99.9886C287.378 99.2159 287.526 98.3106 287.526 97.2727C287.526 96.2348 287.382 95.3333 287.094 94.5682C286.806 93.803 286.389 93.2121 285.844 92.7955C285.298 92.3788 284.636 92.1705 283.855 92.1705C283.06 92.1705 282.389 92.3864 281.844 92.8182C281.298 93.25 280.886 93.8485 280.605 94.6136C280.325 95.3788 280.185 96.2652 280.185 97.2727C280.185 98.2879 280.325 99.1856 280.605 99.9659C280.893 100.739 281.306 101.345 281.844 101.784C282.389 102.216 283.06 102.432 283.855 102.432ZM303.479 106.341C301.714 106.341 300.188 105.966 298.9 105.216C297.62 104.458 296.631 103.405 295.934 102.057C295.237 100.701 294.889 99.1288 294.889 97.3409C294.889 95.5379 295.237 93.9621 295.934 92.6136C296.631 91.2576 297.62 90.2045 298.9 89.4545C300.188 88.697 301.714 88.3182 303.479 88.3182C305.245 88.3182 306.767 88.697 308.048 89.4545C309.335 90.2045 310.328 91.2576 311.025 92.6136C311.722 93.9621 312.07 95.5379 312.07 97.3409C312.07 99.1288 311.722 100.701 311.025 102.057C310.328 103.405 309.335 104.458 308.048 105.216C306.767 105.966 305.245 106.341 303.479 106.341ZM303.502 102.591C304.305 102.591 304.976 102.364 305.514 101.909C306.051 101.447 306.457 100.818 306.729 100.023C307.01 99.2273 307.15 98.322 307.15 97.3068C307.15 96.2917 307.01 95.3864 306.729 94.5909C306.457 93.7955 306.051 93.1667 305.514 92.7045C304.976 92.2424 304.305 92.0114 303.502 92.0114C302.692 92.0114 302.01 92.2424 301.457 92.7045C300.911 93.1667 300.498 93.7955 300.218 94.5909C299.945 95.3864 299.809 96.2917 299.809 97.3068C299.809 98.322 299.945 99.2273 300.218 100.023C300.498 100.818 300.911 101.447 301.457 101.909C302.01 102.364 302.692 102.591 303.502 102.591ZM325.447 106H320.174L328.208 82.7273H334.549L342.572 106H337.299L331.469 88.0455H331.288L325.447 106ZM325.117 96.8523H337.572V100.693H325.117V96.8523ZM351.716 106.341C349.951 106.341 348.424 105.966 347.136 105.216C345.856 104.458 344.867 103.405 344.17 102.057C343.473 100.701 343.125 99.1288 343.125 97.3409C343.125 95.5379 343.473 93.9621 344.17 92.6136C344.867 91.2576 345.856 90.2045 347.136 89.4545C348.424 88.697 349.951 88.3182 351.716 88.3182C353.481 88.3182 355.004 88.697 356.284 89.4545C357.572 90.2045 358.564 91.2576 359.261 92.6136C359.958 93.9621 360.307 95.5379 360.307 97.3409C360.307 99.1288 359.958 100.701 359.261 102.057C358.564 103.405 357.572 104.458 356.284 105.216C355.004 105.966 353.481 106.341 351.716 106.341ZM351.738 102.591C352.541 102.591 353.212 102.364 353.75 101.909C354.288 101.447 354.693 100.818 354.966 100.023C355.246 99.2273 355.386 98.322 355.386 97.3068C355.386 96.2917 355.246 95.3864 354.966 94.5909C354.693 93.7955 354.288 93.1667 353.75 92.7045C353.212 92.2424 352.541 92.0114 351.738 92.0114C350.928 92.0114 350.246 92.2424 349.693 92.7045C349.148 93.1667 348.735 93.7955 348.454 94.5909C348.182 95.3864 348.045 96.2917 348.045 97.3068C348.045 98.322 348.182 99.2273 348.454 100.023C348.735 100.818 349.148 101.447 349.693 101.909C350.246 102.364 350.928 102.591 351.738 102.591ZM390.206 90.875H385.228C385.137 90.2311 384.952 89.6591 384.671 89.1591C384.391 88.6515 384.031 88.2197 383.592 87.8636C383.153 87.5076 382.645 87.2348 382.069 87.0455C381.501 86.8561 380.884 86.7614 380.217 86.7614C379.012 86.7614 377.963 87.0606 377.069 87.6591C376.175 88.25 375.482 89.1136 374.99 90.25C374.497 91.3788 374.251 92.75 374.251 94.3636C374.251 96.0227 374.497 97.4167 374.99 98.5455C375.49 99.6742 376.187 100.527 377.081 101.102C377.975 101.678 379.009 101.966 380.183 101.966C380.842 101.966 381.452 101.879 382.012 101.705C382.581 101.53 383.084 101.277 383.524 100.943C383.963 100.602 384.327 100.189 384.615 99.7045C384.91 99.2197 385.115 98.6667 385.228 98.0455L390.206 98.0682C390.077 99.1364 389.755 100.167 389.24 101.159C388.732 102.144 388.046 103.027 387.183 103.807C386.327 104.58 385.304 105.193 384.115 105.648C382.933 106.095 381.596 106.318 380.103 106.318C378.028 106.318 376.171 105.848 374.535 104.909C372.906 103.97 371.618 102.61 370.671 100.83C369.732 99.0492 369.262 96.8939 369.262 94.3636C369.262 91.8258 369.74 89.6667 370.694 87.8864C371.649 86.1061 372.944 84.75 374.581 83.8182C376.217 82.8788 378.058 82.4091 380.103 82.4091C381.452 82.4091 382.702 82.5985 383.853 82.9773C385.012 83.3561 386.039 83.9091 386.933 84.6364C387.827 85.3561 388.554 86.2386 389.115 87.2841C389.683 88.3295 390.046 89.5265 390.206 90.875ZM397.844 82.7273V106H393.003V82.7273H397.844ZM401.082 106V88.5455H405.923V106H401.082ZM403.514 86.2955C402.794 86.2955 402.177 86.0568 401.661 85.5795C401.154 85.0947 400.9 84.5152 400.9 83.8409C400.9 83.1742 401.154 82.6023 401.661 82.125C402.177 81.6402 402.794 81.3977 403.514 81.3977C404.233 81.3977 404.847 81.6402 405.355 82.125C405.87 82.6023 406.127 83.1742 406.127 83.8409C406.127 84.5152 405.87 85.0947 405.355 85.5795C404.847 86.0568 404.233 86.2955 403.514 86.2955ZM417.115 106.341C415.32 106.341 413.774 105.977 412.479 105.25C411.191 104.515 410.198 103.477 409.501 102.136C408.805 100.788 408.456 99.1932 408.456 97.3523C408.456 95.5568 408.805 93.9811 409.501 92.625C410.198 91.2689 411.18 90.2121 412.445 89.4545C413.717 88.697 415.21 88.3182 416.922 88.3182C418.073 88.3182 419.145 88.5038 420.138 88.875C421.138 89.2386 422.009 89.7879 422.751 90.5227C423.501 91.2576 424.085 92.1818 424.501 93.2955C424.918 94.4015 425.126 95.697 425.126 97.1818V98.5114H410.388V95.5114H420.57C420.57 94.8144 420.418 94.197 420.115 93.6591C419.812 93.1212 419.392 92.7008 418.854 92.3977C418.323 92.0871 417.706 91.9318 417.001 91.9318C416.267 91.9318 415.615 92.1023 415.047 92.4432C414.486 92.7765 414.047 93.2273 413.729 93.7955C413.411 94.3561 413.248 94.9811 413.24 95.6705V98.5227C413.24 99.3864 413.399 100.133 413.717 100.761C414.043 101.39 414.501 101.875 415.092 102.216C415.683 102.557 416.384 102.727 417.195 102.727C417.733 102.727 418.225 102.652 418.672 102.5C419.119 102.348 419.501 102.121 419.82 101.818C420.138 101.515 420.38 101.144 420.547 100.705L425.024 101C424.797 102.076 424.331 103.015 423.626 103.818C422.93 104.614 422.028 105.235 420.922 105.682C419.823 106.121 418.555 106.341 417.115 106.341ZM432.486 95.9091V106H427.646V88.5455H432.259V91.625H432.464C432.85 90.6098 433.498 89.8068 434.407 89.2159C435.316 88.6174 436.418 88.3182 437.714 88.3182C438.926 88.3182 439.983 88.5833 440.884 89.1136C441.786 89.6439 442.486 90.4015 442.986 91.3864C443.486 92.3636 443.736 93.5303 443.736 94.8864V106H438.896V95.75C438.903 94.6818 438.63 93.8485 438.077 93.25C437.524 92.6439 436.763 92.3409 435.793 92.3409C435.142 92.3409 434.566 92.4811 434.066 92.7614C433.574 93.0417 433.187 93.4508 432.907 93.9886C432.634 94.5189 432.494 95.1591 432.486 95.9091ZM456.196 88.5455V92.1818H445.685V88.5455H456.196ZM448.071 84.3636H452.912V100.636C452.912 101.083 452.98 101.432 453.116 101.682C453.253 101.924 453.442 102.095 453.685 102.193C453.935 102.292 454.222 102.341 454.548 102.341C454.775 102.341 455.003 102.322 455.23 102.284C455.457 102.239 455.632 102.205 455.753 102.182L456.514 105.784C456.272 105.86 455.931 105.947 455.491 106.045C455.052 106.152 454.518 106.216 453.889 106.239C452.722 106.284 451.7 106.129 450.821 105.773C449.95 105.417 449.272 104.864 448.787 104.114C448.302 103.364 448.063 102.417 448.071 101.273V84.3636ZM464.68 86.7841V82.7273H483.794V86.7841H476.669V106H471.805V86.7841H464.68ZM484.398 106V88.5455H489.091V91.5909H489.273C489.591 90.5076 490.125 89.6894 490.875 89.1364C491.625 88.5758 492.489 88.2955 493.466 88.2955C493.709 88.2955 493.97 88.3106 494.25 88.3409C494.531 88.3712 494.777 88.4129 494.989 88.4659V92.7614C494.762 92.6932 494.447 92.6326 494.046 92.5795C493.644 92.5265 493.277 92.5 492.944 92.5C492.231 92.5 491.595 92.6553 491.034 92.9659C490.481 93.2689 490.042 93.6932 489.716 94.2386C489.398 94.7841 489.239 95.4129 489.239 96.125V106H484.398ZM503.994 106.341C502.198 106.341 500.653 105.977 499.358 105.25C498.07 104.515 497.077 103.477 496.38 102.136C495.683 100.788 495.335 99.1932 495.335 97.3523C495.335 95.5568 495.683 93.9811 496.38 92.625C497.077 91.2689 498.058 90.2121 499.323 89.4545C500.596 88.697 502.089 88.3182 503.801 88.3182C504.952 88.3182 506.024 88.5038 507.017 88.875C508.017 89.2386 508.888 89.7879 509.63 90.5227C510.38 91.2576 510.964 92.1818 511.38 93.2955C511.797 94.4015 512.005 95.697 512.005 97.1818V98.5114H497.267V95.5114H507.448C507.448 94.8144 507.297 94.197 506.994 93.6591C506.691 93.1212 506.27 92.7008 505.733 92.3977C505.202 92.0871 504.585 91.9318 503.88 91.9318C503.145 91.9318 502.494 92.1023 501.926 92.4432C501.365 92.7765 500.926 93.2273 500.608 93.7955C500.289 94.3561 500.126 94.9811 500.119 95.6705V98.5227C500.119 99.3864 500.278 100.133 500.596 100.761C500.922 101.39 501.38 101.875 501.971 102.216C502.562 102.557 503.263 102.727 504.073 102.727C504.611 102.727 505.104 102.652 505.551 102.5C505.998 102.348 506.38 102.121 506.698 101.818C507.017 101.515 507.259 101.144 507.426 100.705L511.903 101C511.676 102.076 511.21 103.015 510.505 103.818C509.808 104.614 508.907 105.235 507.801 105.682C506.702 106.121 505.433 106.341 503.994 106.341ZM530.328 88.5455L524.226 106H518.771L512.669 88.5455H517.783L521.408 101.034H521.59L525.203 88.5455H530.328ZM539.489 106.341C537.724 106.341 536.198 105.966 534.91 105.216C533.63 104.458 532.641 103.405 531.944 102.057C531.247 100.701 530.899 99.1288 530.899 97.3409C530.899 95.5379 531.247 93.9621 531.944 92.6136C532.641 91.2576 533.63 90.2045 534.91 89.4545C536.198 88.697 537.724 88.3182 539.489 88.3182C541.255 88.3182 542.777 88.697 544.058 89.4545C545.346 90.2045 546.338 91.2576 547.035 92.6136C547.732 93.9621 548.08 95.5379 548.08 97.3409C548.08 99.1288 547.732 100.701 547.035 102.057C546.338 103.405 545.346 104.458 544.058 105.216C542.777 105.966 541.255 106.341 539.489 106.341ZM539.512 102.591C540.315 102.591 540.986 102.364 541.524 101.909C542.061 101.447 542.467 100.818 542.739 100.023C543.02 99.2273 543.16 98.322 543.16 97.3068C543.16 96.2917 543.02 95.3864 542.739 94.5909C542.467 93.7955 542.061 93.1667 541.524 92.7045C540.986 92.2424 540.315 92.0114 539.512 92.0114C538.702 92.0114 538.02 92.2424 537.467 92.7045C536.921 93.1667 536.508 93.7955 536.228 94.5909C535.955 95.3864 535.819 96.2917 535.819 97.3068C535.819 98.322 535.955 99.2273 536.228 100.023C536.508 100.818 536.921 101.447 537.467 101.909C538.02 102.364 538.702 102.591 539.512 102.591ZM565.695 106H557.445V82.7273H565.763C568.104 82.7273 570.119 83.1932 571.809 84.125C573.498 85.0492 574.797 86.3788 575.707 88.1136C576.623 89.8485 577.082 91.9242 577.082 94.3409C577.082 96.7652 576.623 98.8485 575.707 100.591C574.797 102.333 573.491 103.67 571.786 104.602C570.089 105.534 568.059 106 565.695 106ZM562.366 101.784H565.491C566.945 101.784 568.169 101.527 569.161 101.011C570.161 100.489 570.911 99.6818 571.411 98.5909C571.919 97.4924 572.172 96.0758 572.172 94.3409C572.172 92.6212 571.919 91.2159 571.411 90.125C570.911 89.0341 570.165 88.2311 569.172 87.7159C568.18 87.2008 566.957 86.9432 565.502 86.9432H562.366V101.784ZM579.996 106V88.5455H584.836V106H579.996ZM582.427 86.2955C581.708 86.2955 581.09 86.0568 580.575 85.5795C580.068 85.0947 579.814 84.5152 579.814 83.8409C579.814 83.1742 580.068 82.6023 580.575 82.125C581.09 81.6402 581.708 81.3977 582.427 81.3977C583.147 81.3977 583.761 81.6402 584.268 82.125C584.783 82.6023 585.041 83.1742 585.041 83.8409C585.041 84.5152 584.783 85.0947 584.268 85.5795C583.761 86.0568 583.147 86.2955 582.427 86.2955ZM595.938 112.909C594.37 112.909 593.025 112.693 591.904 112.261C590.79 111.837 589.904 111.258 589.245 110.523C588.586 109.788 588.158 108.962 587.961 108.045L592.438 107.443C592.574 107.792 592.79 108.117 593.086 108.42C593.381 108.723 593.771 108.966 594.256 109.148C594.749 109.337 595.347 109.432 596.052 109.432C597.105 109.432 597.972 109.174 598.654 108.659C599.343 108.152 599.688 107.299 599.688 106.102V102.909H599.483C599.271 103.394 598.953 103.852 598.529 104.284C598.105 104.716 597.559 105.068 596.892 105.341C596.226 105.614 595.43 105.75 594.506 105.75C593.196 105.75 592.002 105.447 590.927 104.841C589.858 104.227 589.006 103.292 588.37 102.034C587.741 100.769 587.427 99.1705 587.427 97.2386C587.427 95.2614 587.749 93.6098 588.392 92.2841C589.036 90.9583 589.892 89.9659 590.961 89.3068C592.036 88.6477 593.214 88.3182 594.495 88.3182C595.472 88.3182 596.29 88.4848 596.949 88.8182C597.608 89.1439 598.139 89.553 598.54 90.0455C598.949 90.5303 599.264 91.0076 599.483 91.4773H599.665V88.5455H604.472V106.17C604.472 107.655 604.108 108.898 603.381 109.898C602.654 110.898 601.646 111.648 600.358 112.148C599.078 112.655 597.605 112.909 595.938 112.909ZM596.04 102.114C596.821 102.114 597.48 101.92 598.017 101.534C598.563 101.14 598.98 100.58 599.267 99.8523C599.563 99.1174 599.711 98.2386 599.711 97.2159C599.711 96.1932 599.567 95.3068 599.279 94.5568C598.991 93.7992 598.574 93.2121 598.029 92.7955C597.483 92.3788 596.821 92.1705 596.04 92.1705C595.245 92.1705 594.574 92.3864 594.029 92.8182C593.483 93.2424 593.071 93.8333 592.79 94.5909C592.51 95.3485 592.37 96.2235 592.37 97.2159C592.37 98.2235 592.51 99.0947 592.79 99.8295C593.078 100.557 593.491 101.121 594.029 101.523C594.574 101.917 595.245 102.114 596.04 102.114ZM607.684 106V88.5455H612.525V106H607.684ZM610.116 86.2955C609.396 86.2955 608.779 86.0568 608.264 85.5795C607.756 85.0947 607.503 84.5152 607.503 83.8409C607.503 83.1742 607.756 82.6023 608.264 82.125C608.779 81.6402 609.396 81.3977 610.116 81.3977C610.836 81.3977 611.449 81.6402 611.957 82.125C612.472 82.6023 612.73 83.1742 612.73 83.8409C612.73 84.5152 612.472 85.0947 611.957 85.5795C611.449 86.0568 610.836 86.2955 610.116 86.2955ZM625.047 88.5455V92.1818H614.536V88.5455H625.047ZM616.922 84.3636H621.763V100.636C621.763 101.083 621.831 101.432 621.968 101.682C622.104 101.924 622.293 102.095 622.536 102.193C622.786 102.292 623.074 102.341 623.399 102.341C623.627 102.341 623.854 102.322 624.081 102.284C624.309 102.239 624.483 102.205 624.604 102.182L625.365 105.784C625.123 105.86 624.782 105.947 624.343 106.045C623.903 106.152 623.369 106.216 622.74 106.239C621.574 106.284 620.551 106.129 619.672 105.773C618.801 105.417 618.123 104.864 617.638 104.114C617.153 103.364 616.915 102.417 616.922 101.273V84.3636ZM632.538 106.33C631.424 106.33 630.432 106.136 629.561 105.75C628.689 105.356 628 104.777 627.492 104.011C626.992 103.239 626.742 102.277 626.742 101.125C626.742 100.155 626.92 99.3409 627.276 98.6818C627.633 98.0227 628.117 97.4924 628.731 97.0909C629.345 96.6894 630.042 96.3864 630.822 96.1818C631.61 95.9773 632.436 95.8333 633.299 95.75C634.314 95.6439 635.133 95.5455 635.754 95.4545C636.375 95.3561 636.826 95.2121 637.106 95.0227C637.386 94.8333 637.526 94.553 637.526 94.1818V94.1136C637.526 93.3939 637.299 92.8371 636.845 92.4432C636.398 92.0492 635.761 91.8523 634.936 91.8523C634.064 91.8523 633.371 92.0455 632.856 92.4318C632.341 92.8106 632 93.2879 631.833 93.8636L627.356 93.5C627.583 92.4394 628.03 91.5227 628.697 90.75C629.364 89.9697 630.223 89.3712 631.276 88.9545C632.337 88.5303 633.564 88.3182 634.958 88.3182C635.928 88.3182 636.856 88.4318 637.742 88.6591C638.636 88.8864 639.428 89.2386 640.117 89.7159C640.814 90.1932 641.364 90.8068 641.765 91.5568C642.167 92.2992 642.367 93.1894 642.367 94.2273V106H637.776V103.58H637.64C637.36 104.125 636.985 104.606 636.515 105.023C636.045 105.432 635.481 105.754 634.822 105.989C634.163 106.216 633.401 106.33 632.538 106.33ZM633.924 102.989C634.636 102.989 635.265 102.848 635.811 102.568C636.356 102.28 636.784 101.894 637.095 101.409C637.405 100.924 637.561 100.375 637.561 99.7614V97.9091C637.409 98.0076 637.201 98.0985 636.936 98.1818C636.678 98.2576 636.386 98.3295 636.061 98.3977C635.735 98.4583 635.409 98.5152 635.083 98.5682C634.758 98.6136 634.462 98.6553 634.197 98.6932C633.629 98.7765 633.133 98.9091 632.708 99.0909C632.284 99.2727 631.955 99.5189 631.72 99.8295C631.485 100.133 631.367 100.511 631.367 100.966C631.367 101.625 631.606 102.129 632.083 102.477C632.568 102.818 633.182 102.989 633.924 102.989ZM650.324 82.7273V106H645.483V82.7273H650.324ZM659.346 82.7273L658.903 99.0227H654.744L654.289 82.7273H659.346ZM656.823 106.295C656.073 106.295 655.429 106.03 654.891 105.5C654.353 104.962 654.088 104.318 654.096 103.568C654.088 102.826 654.353 102.189 654.891 101.659C655.429 101.129 656.073 100.864 656.823 100.864C657.543 100.864 658.175 101.129 658.721 101.659C659.266 102.189 659.543 102.826 659.55 103.568C659.543 104.068 659.41 104.527 659.153 104.943C658.903 105.352 658.573 105.682 658.164 105.932C657.755 106.174 657.308 106.295 656.823 106.295Z" fill="black"/>
<rect x="972" y="164" width="437" height="45" rx="10" fill="#C5C5C5"/>
<path d="M276 164H403V209H276V164Z" fill="#C5C5C5"/>
<rect x="801" y="164" width="127" height="45" rx="10" fill="#C5C5C5"/>
<path d="M149 174C149 168.477 153.477 164 159 164H276V209H159C153.477 209 149 204.523 149 199V174Z" fill="#C5C5C5"/>
<path d="M403 164H520C525.523 164 530 168.477 530 174V199C530 204.523 525.523 209 520 209H403V164Z" fill="#C5C5C5"/>
<rect x="149" y="451" width="823" height="147" rx="10" fill="#C5C5C5"/>
<rect x="149" y="640" width="389" height="345" rx="10" fill="#C5C5C5"/>
<rect x="1019" y="253" width="389" height="346" rx="10" fill="#C5C5C5"/>
<rect x="585" y="642" width="387" height="345" rx="10" fill="#C5C5C5"/>
<rect x="1019" y="641" width="389" height="346" rx="10" fill="#C5C5C5"/>
<rect width="117" height="1024" fill="#C5C5C5"/>
<rect x="149" y="253" width="254" height="162" rx="10" fill="#C5C5C5"/>
<rect x="599" y="253" width="241.977" height="162" rx="10" fill="#C5C5C5"/>
<rect x="856" y="253" width="115" height="162" rx="10" fill="#C5C5C5"/>
<rect x="420.562" y="253" width="165.503" height="162" rx="10" fill="#C5C5C5"/>
<rect x="33" width="85" height="1024" fill="#FF7B7B" fill-opacity="0.25"/>
<rect x="150" width="85" height="1024" fill="#FF7B7B" fill-opacity="0.25"/>
<rect x="267" width="85" height="1024" fill="#FF7B7B" fill-opacity="0.25"/>
<rect x="385" width="85" height="1024" fill="#FF7B7B" fill-opacity="0.25"/>
<rect x="502" width="85" height="1024" fill="#FF7B7B" fill-opacity="0.25"/>
<rect x="620" width="85" height="1024" fill="#FF7B7B" fill-opacity="0.25"/>
<rect x="737" width="85" height="1024" fill="#FF7B7B" fill-opacity="0.25"/>
<rect x="854" width="85" height="1024" fill="#FF7B7B" fill-opacity="0.25"/>
<rect x="972" width="85" height="1024" fill="#FF7B7B" fill-opacity="0.25"/>
<rect x="1089" width="85" height="1024" fill="#FF7B7B" fill-opacity="0.25"/>
<rect x="1207" width="85" height="1024" fill="#FF7B7B" fill-opacity="0.25"/>
<rect x="1324" width="85" height="1024" fill="#FF7B7B" fill-opacity="0.25"/>
</svg>
