<svg width="311" height="175" viewBox="0 0 311 175" fill="none" xmlns="http://www.w3.org/2000/svg">
<g clip-path="url(#clip0_18_598)">
<rect width="311" height="175" fill="white"/>
<rect y="6.10352e-05" width="150" height="100" fill="#9A1919"/>
<rect x="161" y="6.10352e-05" width="150" height="100" fill="white"/>
<path d="M6.79901 20.0001V12.7273H11.3587V13.6719H7.89631V15.8878H11.1207V16.8289H7.89631V19.0555H11.4013V20.0001H6.79901ZM12.7392 20.0001V14.5455H13.7654V15.412H13.8223C13.9217 15.1184 14.0969 14.8876 14.3478 14.7195C14.6011 14.5491 14.8876 14.4638 15.2072 14.4638C15.2735 14.4638 15.3516 14.4662 15.4416 14.4709C15.5339 14.4757 15.6061 14.4816 15.6582 14.4887V15.5043C15.6156 15.4925 15.5398 15.4795 15.4309 15.4653C15.322 15.4487 15.2131 15.4404 15.1042 15.4404C14.8533 15.4404 14.6296 15.4937 14.4331 15.6002C14.2389 15.7044 14.085 15.85 13.9714 16.037C13.8578 16.2217 13.801 16.4324 13.801 16.6691V20.0001H12.7392ZM16.5771 20.0001V14.5455H17.6033V15.412H17.6602C17.7596 15.1184 17.9348 14.8876 18.1857 14.7195C18.439 14.5491 18.7255 14.4638 19.0451 14.4638C19.1114 14.4638 19.1895 14.4662 19.2795 14.4709C19.3718 14.4757 19.444 14.4816 19.4961 14.4887V15.5043C19.4535 15.4925 19.3777 15.4795 19.2688 15.4653C19.1599 15.4487 19.051 15.4404 18.9421 15.4404C18.6912 15.4404 18.4674 15.4937 18.271 15.6002C18.0768 15.7044 17.9229 15.85 17.8093 16.037C17.6957 16.2217 17.6388 16.4324 17.6388 16.6691V20.0001H16.5771ZM22.5172 20.1101C22.0059 20.1101 21.5596 19.993 21.1784 19.7586C20.7973 19.5242 20.5014 19.1963 20.2907 18.7749C20.08 18.3535 19.9746 17.8611 19.9746 17.2976C19.9746 16.7318 20.08 16.237 20.2907 15.8133C20.5014 15.3895 20.7973 15.0604 21.1784 14.8261C21.5596 14.5917 22.0059 14.4745 22.5172 14.4745C23.0286 14.4745 23.4748 14.5917 23.856 14.8261C24.2372 15.0604 24.5331 15.3895 24.7438 15.8133C24.9545 16.237 25.0598 16.7318 25.0598 17.2976C25.0598 17.8611 24.9545 18.3535 24.7438 18.7749C24.5331 19.1963 24.2372 19.5242 23.856 19.7586C23.4748 19.993 23.0286 20.1101 22.5172 20.1101ZM22.5208 19.2188C22.8522 19.2188 23.1268 19.1312 23.3446 18.956C23.5624 18.7808 23.7234 18.5476 23.8276 18.2565C23.9341 17.9653 23.9874 17.6445 23.9874 17.2941C23.9874 16.9461 23.9341 16.6265 23.8276 16.3353C23.7234 16.0417 23.5624 15.8062 23.3446 15.6286C23.1268 15.4511 22.8522 15.3623 22.5208 15.3623C22.187 15.3623 21.91 15.4511 21.6898 15.6286C21.472 15.8062 21.3098 16.0417 21.2033 16.3353C21.0991 16.6265 21.0471 16.9461 21.0471 17.2941C21.0471 17.6445 21.0991 17.9653 21.2033 18.2565C21.3098 18.5476 21.472 18.7808 21.6898 18.956C21.91 19.1312 22.187 19.2188 22.5208 19.2188Z" fill="white"/>
<path d="M170.153 20.0001H167.799V12.7273H170.228C170.941 12.7273 171.553 12.8729 172.064 13.1641C172.575 13.4529 172.967 13.8684 173.239 14.4106C173.514 14.9503 173.651 15.5978 173.651 16.353C173.651 17.1106 173.513 17.7617 173.236 18.3062C172.961 18.8507 172.563 19.2697 172.043 19.5633C171.522 19.8545 170.892 20.0001 170.153 20.0001ZM168.896 19.0413H170.093C170.647 19.0413 171.107 18.9371 171.474 18.7288C171.841 18.5181 172.116 18.2138 172.298 17.8161C172.481 17.416 172.572 16.9283 172.572 16.353C172.572 15.7825 172.481 15.2984 172.298 14.9006C172.118 14.5029 171.85 14.2011 171.492 13.9951C171.135 13.7891 170.691 13.6861 170.161 13.6861H168.896V19.0413ZM177.281 20.1101C176.744 20.1101 176.281 19.9953 175.893 19.7657C175.507 19.5337 175.209 19.2082 174.998 18.7891C174.79 18.3677 174.686 17.8741 174.686 17.3083C174.686 16.7496 174.79 16.2572 174.998 15.831C175.209 15.4049 175.502 15.0723 175.879 14.8332C176.258 14.594 176.7 14.4745 177.207 14.4745C177.515 14.4745 177.813 14.5254 178.102 14.6272C178.391 14.729 178.65 14.8888 178.879 15.1066C179.109 15.3244 179.29 15.6073 179.423 15.9553C179.555 16.301 179.622 16.7212 179.622 17.216V17.5924H175.286V16.7969H178.581C178.581 16.5176 178.524 16.2702 178.411 16.0547C178.297 15.8369 178.137 15.6653 177.931 15.5398C177.728 15.4144 177.489 15.3516 177.214 15.3516C176.916 15.3516 176.655 15.425 176.433 15.5718C176.213 15.7162 176.042 15.9056 175.921 16.14C175.803 16.372 175.744 16.6241 175.744 16.8964V17.5178C175.744 17.8824 175.808 18.1925 175.936 18.4482C176.066 18.7039 176.247 18.8992 176.479 19.0342C176.711 19.1667 176.982 19.233 177.292 19.233C177.493 19.233 177.677 19.2046 177.843 19.1478C178.008 19.0886 178.151 19.001 178.272 18.885C178.393 18.769 178.485 18.6258 178.549 18.4553L179.554 18.6364C179.474 18.9324 179.329 19.1916 179.121 19.4141C178.915 19.6343 178.656 19.8059 178.343 19.929C178.033 20.0498 177.679 20.1101 177.281 20.1101ZM181.862 16.7614V20.0001H180.8V14.5455H181.819V15.4333H181.886C182.012 15.1445 182.208 14.9125 182.476 14.7373C182.746 14.5621 183.085 14.4745 183.495 14.4745C183.867 14.4745 184.192 14.5526 184.472 14.7089C184.751 14.8628 184.968 15.0924 185.121 15.3978C185.275 15.7032 185.352 16.0808 185.352 16.5306V20.0001H184.29V16.6584C184.29 16.2631 184.188 15.9541 183.982 15.7316C183.776 15.5067 183.493 15.3942 183.133 15.3942C182.887 15.3942 182.668 15.4475 182.476 15.554C182.286 15.6606 182.136 15.8168 182.025 16.0228C181.916 16.2264 181.862 16.4726 181.862 16.7614ZM189.322 14.5455V15.3978H186.343V14.5455H189.322ZM187.142 13.2387H188.204V18.3985C188.204 18.6045 188.235 18.7595 188.296 18.8637C188.358 18.9655 188.437 19.0353 188.534 19.0732C188.634 19.1087 188.741 19.1265 188.857 19.1265C188.942 19.1265 189.017 19.1206 189.081 19.1087C189.145 19.0969 189.195 19.0874 189.23 19.0803L189.422 19.9574C189.36 19.9811 189.273 20.0048 189.159 20.0285C189.045 20.0545 188.903 20.0687 188.733 20.0711C188.454 20.0758 188.193 20.0261 187.952 19.9219C187.71 19.8178 187.515 19.6568 187.366 19.439C187.217 19.2212 187.142 18.9477 187.142 18.6187V13.2387ZM190.497 20.0001V14.5455H191.523V15.412H191.58C191.68 15.1184 191.855 14.8876 192.106 14.7195C192.359 14.5491 192.645 14.4638 192.965 14.4638C193.031 14.4638 193.109 14.4662 193.199 14.4709C193.292 14.4757 193.364 14.4816 193.416 14.4887V15.5043C193.373 15.4925 193.298 15.4795 193.189 15.4653C193.08 15.4487 192.971 15.4404 192.862 15.4404C192.611 15.4404 192.387 15.4937 192.191 15.6002C191.997 15.7044 191.843 15.85 191.729 16.037C191.616 16.2217 191.559 16.4324 191.559 16.6691V20.0001H190.497ZM196.437 20.1101C195.926 20.1101 195.48 19.993 195.098 19.7586C194.717 19.5242 194.421 19.1963 194.211 18.7749C194 18.3535 193.895 17.8611 193.895 17.2976C193.895 16.7318 194 16.237 194.211 15.8133C194.421 15.3895 194.717 15.0604 195.098 14.8261C195.48 14.5917 195.926 14.4745 196.437 14.4745C196.949 14.4745 197.395 14.5917 197.776 14.8261C198.157 15.0604 198.453 15.3895 198.664 15.8133C198.874 16.237 198.98 16.7318 198.98 17.2976C198.98 17.8611 198.874 18.3535 198.664 18.7749C198.453 19.1963 198.157 19.5242 197.776 19.7586C197.395 19.993 196.949 20.1101 196.437 20.1101ZM196.441 19.2188C196.772 19.2188 197.047 19.1312 197.265 18.956C197.482 18.7808 197.643 18.5476 197.748 18.2565C197.854 17.9653 197.907 17.6445 197.907 17.2941C197.907 16.9461 197.854 16.6265 197.748 16.3353C197.643 16.0417 197.482 15.8062 197.265 15.6286C197.047 15.4511 196.772 15.3623 196.441 15.3623C196.107 15.3623 195.83 15.4511 195.61 15.6286C195.392 15.8062 195.23 16.0417 195.123 16.3353C195.019 16.6265 194.967 16.9461 194.967 17.2941C194.967 17.6445 195.019 17.9653 195.123 18.2565C195.23 18.5476 195.392 18.7808 195.61 18.956C195.83 19.1312 196.107 19.2188 196.441 19.2188ZM204.853 20.1066C204.413 20.1066 204.02 19.9941 203.674 19.7692C203.331 19.542 203.061 19.2188 202.865 18.7998C202.671 18.3784 202.574 17.8729 202.574 17.2834C202.574 16.694 202.672 16.1897 202.868 15.7707C203.067 15.3516 203.339 15.0308 203.685 14.8083C204.031 14.5858 204.422 14.4745 204.86 14.4745C205.199 14.4745 205.471 14.5313 205.677 14.6449C205.886 14.7562 206.047 14.8864 206.16 15.0356C206.276 15.1847 206.366 15.3161 206.43 15.4297H206.494V12.7273H207.556V20.0001H206.519V19.1513H206.43C206.366 19.2673 206.274 19.3999 206.153 19.5491C206.035 19.6982 205.871 19.8284 205.663 19.9397C205.455 20.051 205.185 20.1066 204.853 20.1066ZM205.088 19.2011C205.393 19.2011 205.651 19.1206 205.862 18.9596C206.075 18.7962 206.236 18.5701 206.345 18.2813C206.456 17.9925 206.512 17.6563 206.512 17.2728C206.512 16.894 206.457 16.5626 206.348 16.2785C206.239 15.9944 206.08 15.773 205.869 15.6144C205.658 15.4558 205.398 15.3765 205.088 15.3765C204.768 15.3765 204.502 15.4593 204.289 15.6251C204.076 15.7908 203.915 16.0169 203.806 16.3033C203.699 16.5898 203.646 16.9129 203.646 17.2728C203.646 17.6374 203.7 17.9653 203.809 18.2565C203.918 18.5476 204.079 18.7785 204.292 18.9489C204.508 19.117 204.773 19.2011 205.088 19.2011ZM211.369 20.1101C210.857 20.1101 210.411 19.993 210.03 19.7586C209.649 19.5242 209.353 19.1963 209.142 18.7749C208.932 18.3535 208.826 17.8611 208.826 17.2976C208.826 16.7318 208.932 16.237 209.142 15.8133C209.353 15.3895 209.649 15.0604 210.03 14.8261C210.411 14.5917 210.857 14.4745 211.369 14.4745C211.88 14.4745 212.326 14.5917 212.708 14.8261C213.089 15.0604 213.385 15.3895 213.595 15.8133C213.806 16.237 213.911 16.7318 213.911 17.2976C213.911 17.8611 213.806 18.3535 213.595 18.7749C213.385 19.1963 213.089 19.5242 212.708 19.7586C212.326 19.993 211.88 20.1101 211.369 20.1101ZM211.372 19.2188C211.704 19.2188 211.978 19.1312 212.196 18.956C212.414 18.7808 212.575 18.5476 212.679 18.2565C212.786 17.9653 212.839 17.6445 212.839 17.2941C212.839 16.9461 212.786 16.6265 212.679 16.3353C212.575 16.0417 212.414 15.8062 212.196 15.6286C211.978 15.4511 211.704 15.3623 211.372 15.3623C211.039 15.3623 210.762 15.4511 210.541 15.6286C210.324 15.8062 210.161 16.0417 210.055 16.3353C209.951 16.6265 209.899 16.9461 209.899 17.2941C209.899 17.6445 209.951 17.9653 210.055 18.2565C210.161 18.5476 210.324 18.7808 210.541 18.956C210.762 19.1312 211.039 19.2188 211.372 19.2188ZM217.828 20.0001V12.7273H222.388V13.6719H218.926V15.8878H222.15V16.8289H218.926V19.0555H222.431V20.0001H217.828ZM223.768 20.0001V14.5455H224.795V15.412H224.852C224.951 15.1184 225.126 14.8876 225.377 14.7195C225.63 14.5491 225.917 14.4638 226.237 14.4638C226.303 14.4638 226.381 14.4662 226.471 14.4709C226.563 14.4757 226.635 14.4816 226.688 14.4887V15.5043C226.645 15.4925 226.569 15.4795 226.46 15.4653C226.351 15.4487 226.242 15.4404 226.134 15.4404C225.883 15.4404 225.659 15.4937 225.462 15.6002C225.268 15.7044 225.114 15.85 225.001 16.037C224.887 16.2217 224.83 16.4324 224.83 16.6691V20.0001H223.768ZM227.606 20.0001V14.5455H228.633V15.412H228.689C228.789 15.1184 228.964 14.8876 229.215 14.7195C229.468 14.5491 229.755 14.4638 230.074 14.4638C230.141 14.4638 230.219 14.4662 230.309 14.4709C230.401 14.4757 230.473 14.4816 230.525 14.4887V15.5043C230.483 15.4925 230.407 15.4795 230.298 15.4653C230.189 15.4487 230.08 15.4404 229.971 15.4404C229.72 15.4404 229.497 15.4937 229.3 15.6002C229.106 15.7044 228.952 15.85 228.839 16.037C228.725 16.2217 228.668 16.4324 228.668 16.6691V20.0001H227.606ZM233.547 20.1101C233.035 20.1101 232.589 19.993 232.208 19.7586C231.827 19.5242 231.531 19.1963 231.32 18.7749C231.109 18.3535 231.004 17.8611 231.004 17.2976C231.004 16.7318 231.109 16.237 231.32 15.8133C231.531 15.3895 231.827 15.0604 232.208 14.8261C232.589 14.5917 233.035 14.4745 233.547 14.4745C234.058 14.4745 234.504 14.5917 234.885 14.8261C235.266 15.0604 235.562 15.3895 235.773 15.8133C235.984 16.237 236.089 16.7318 236.089 17.2976C236.089 17.8611 235.984 18.3535 235.773 18.7749C235.562 19.1963 235.266 19.5242 234.885 19.7586C234.504 19.993 234.058 20.1101 233.547 20.1101ZM233.55 19.2188C233.882 19.2188 234.156 19.1312 234.374 18.956C234.592 18.7808 234.753 18.5476 234.857 18.2565C234.963 17.9653 235.017 17.6445 235.017 17.2941C235.017 16.9461 234.963 16.6265 234.857 16.3353C234.753 16.0417 234.592 15.8062 234.374 15.6286C234.156 15.4511 233.882 15.3623 233.55 15.3623C233.216 15.3623 232.939 15.4511 232.719 15.6286C232.501 15.8062 232.339 16.0417 232.233 16.3353C232.128 16.6265 232.076 16.9461 232.076 17.2941C232.076 17.6445 232.128 17.9653 232.233 18.2565C232.339 18.5476 232.501 18.7808 232.719 18.956C232.939 19.1312 233.216 19.2188 233.55 19.2188Z" fill="#9A1919"/>
<path d="M48.0217 122.153C48.3796 122.156 48.7376 122.224 49.0955 122.358C49.4535 122.491 49.7802 122.713 50.0756 123.023C50.3711 123.33 50.6083 123.749 50.7873 124.28C50.9663 124.811 51.0558 125.477 51.0558 126.278C51.0558 127.054 50.9819 127.743 50.8342 128.345C50.6893 128.945 50.479 129.45 50.2035 129.862C49.9308 130.274 49.5984 130.587 49.2063 130.8C48.8171 131.013 48.3768 131.119 47.8853 131.119C47.3967 131.119 46.9606 131.023 46.5771 130.83C46.1964 130.634 45.8839 130.362 45.6396 130.016C45.3981 129.666 45.2433 129.261 45.1751 128.801H46.2148C46.3086 129.202 46.4947 129.533 46.7731 129.794C47.0543 130.053 47.4251 130.182 47.8853 130.182C48.5586 130.182 49.0898 129.888 49.479 129.3C49.8711 128.712 50.0671 127.881 50.0671 126.807H49.9989C49.8398 127.045 49.6509 127.251 49.4322 127.425C49.2134 127.598 48.9705 127.732 48.7035 127.825C48.4364 127.919 48.1523 127.966 47.8512 127.966C47.3512 127.966 46.8924 127.842 46.4748 127.595C46.06 127.345 45.7276 127.003 45.4776 126.568C45.2305 126.131 45.1069 125.631 45.1069 125.068C45.1069 124.534 45.2262 124.045 45.4648 123.602C45.7063 123.156 46.0444 122.801 46.479 122.537C46.9165 122.273 47.4308 122.145 48.0217 122.153ZM48.0217 123.091C47.6637 123.091 47.3413 123.18 47.0543 123.359C46.7702 123.536 46.5444 123.774 46.3768 124.075C46.212 124.374 46.1296 124.705 46.1296 125.068C46.1296 125.432 46.2092 125.763 46.3683 126.061C46.5302 126.357 46.7504 126.592 47.0288 126.768C47.31 126.942 47.6296 127.028 47.9876 127.028C48.2575 127.028 48.5089 126.976 48.7418 126.871C48.9748 126.763 49.1779 126.616 49.3512 126.432C49.5273 126.244 49.6651 126.033 49.7646 125.797C49.864 125.558 49.9137 125.31 49.9137 125.051C49.9137 124.71 49.8313 124.391 49.6665 124.092C49.5046 123.794 49.2802 123.553 48.9933 123.368C48.7092 123.183 48.3853 123.091 48.0217 123.091ZM53.2429 131H52.1349L55.3395 122.273H56.4304L59.6349 131H58.527L55.919 123.653H55.8509L53.2429 131ZM53.652 127.591H58.1179V128.528H53.652V127.591ZM63.4989 122.273V131H62.4421V123.381H62.391L60.2603 124.795V123.722L62.4421 122.273H63.4989ZM68.7873 122.153C69.1452 122.156 69.5032 122.224 69.8612 122.358C70.2191 122.491 70.5458 122.713 70.8413 123.023C71.1367 123.33 71.3739 123.749 71.5529 124.28C71.7319 124.811 71.8214 125.477 71.8214 126.278C71.8214 127.054 71.7475 127.743 71.5998 128.345C71.4549 128.945 71.2447 129.45 70.9691 129.862C70.6964 130.274 70.364 130.587 69.9719 130.8C69.5827 131.013 69.1424 131.119 68.6509 131.119C68.1623 131.119 67.7262 131.023 67.3427 130.83C66.962 130.634 66.6495 130.362 66.4052 130.016C66.1637 129.666 66.0089 129.261 65.9407 128.801H66.9805C67.0742 129.202 67.2603 129.533 67.5387 129.794C67.82 130.053 68.1907 130.182 68.6509 130.182C69.3242 130.182 69.8555 129.888 70.2447 129.3C70.6367 128.712 70.8327 127.881 70.8327 126.807H70.7646C70.6055 127.045 70.4165 127.251 70.1978 127.425C69.979 127.598 69.7362 127.732 69.4691 127.825C69.2021 127.919 68.918 127.966 68.6168 127.966C68.1168 127.966 67.658 127.842 67.2404 127.595C66.8256 127.345 66.4933 127.003 66.2433 126.568C65.9961 126.131 65.8725 125.631 65.8725 125.068C65.8725 124.534 65.9918 124.045 66.2305 123.602C66.4719 123.156 66.81 122.801 67.2447 122.537C67.6822 122.273 68.1964 122.145 68.7873 122.153ZM68.7873 123.091C68.4293 123.091 68.1069 123.18 67.82 123.359C67.5359 123.536 67.31 123.774 67.1424 124.075C66.9776 124.374 66.8952 124.705 66.8952 125.068C66.8952 125.432 66.9748 125.763 67.1339 126.061C67.2958 126.357 67.516 126.592 67.7944 126.768C68.0756 126.942 68.3952 127.028 68.7532 127.028C69.0231 127.028 69.2745 126.976 69.5075 126.871C69.7404 126.763 69.9435 126.616 70.1168 126.432C70.293 126.244 70.4308 126.033 70.5302 125.797C70.6296 125.558 70.6793 125.31 70.6793 125.051C70.6793 124.71 70.5969 124.391 70.4322 124.092C70.2702 123.794 70.0458 123.553 69.7589 123.368C69.4748 123.183 69.1509 123.091 68.7873 123.091ZM76.5653 122.273V131H75.5085V123.381H75.4574L73.3267 124.795V123.722L75.5085 122.273H76.5653ZM81.8537 122.153C82.2116 122.156 82.5696 122.224 82.9276 122.358C83.2855 122.491 83.6122 122.713 83.9077 123.023C84.2031 123.33 84.4403 123.749 84.6193 124.28C84.7983 124.811 84.8878 125.477 84.8878 126.278C84.8878 127.054 84.8139 127.743 84.6662 128.345C84.5213 128.945 84.3111 129.45 84.0355 129.862C83.7628 130.274 83.4304 130.587 83.0384 130.8C82.6491 131.013 82.2088 131.119 81.7173 131.119C81.2287 131.119 80.7926 131.023 80.4091 130.83C80.0284 130.634 79.7159 130.362 79.4716 130.016C79.2301 129.666 79.0753 129.261 79.0071 128.801H80.0469C80.1406 129.202 80.3267 129.533 80.6051 129.794C80.8864 130.053 81.2571 130.182 81.7173 130.182C82.3906 130.182 82.9219 129.888 83.3111 129.3C83.7031 128.712 83.8991 127.881 83.8991 126.807H83.831C83.6719 127.045 83.483 127.251 83.2642 127.425C83.0455 127.598 82.8026 127.732 82.5355 127.825C82.2685 127.919 81.9844 127.966 81.6832 127.966C81.1832 127.966 80.7244 127.842 80.3068 127.595C79.892 127.345 79.5597 127.003 79.3097 126.568C79.0625 126.131 78.9389 125.631 78.9389 125.068C78.9389 124.534 79.0582 124.045 79.2969 123.602C79.5384 123.156 79.8764 122.801 80.3111 122.537C80.7486 122.273 81.2628 122.145 81.8537 122.153ZM81.8537 123.091C81.4957 123.091 81.1733 123.18 80.8864 123.359C80.6023 123.536 80.3764 123.774 80.2088 124.075C80.044 124.374 79.9616 124.705 79.9616 125.068C79.9616 125.432 80.0412 125.763 80.2003 126.061C80.3622 126.357 80.5824 126.592 80.8608 126.768C81.142 126.942 81.4616 127.028 81.8196 127.028C82.0895 127.028 82.3409 126.976 82.5739 126.871C82.8068 126.763 83.0099 126.616 83.1832 126.432C83.3594 126.244 83.4972 126.033 83.5966 125.797C83.696 125.558 83.7457 125.31 83.7457 125.051C83.7457 124.71 83.6634 124.391 83.4986 124.092C83.3366 123.794 83.1122 123.553 82.8253 123.368C82.5412 123.183 82.2173 123.091 81.8537 123.091Z" fill="black"/>
<path d="M210.428 131V122.273H215.661V123.21H211.485V126.159H215.269V127.097H211.485V131H210.428ZM217.471 131V122.273H222.704V123.21H218.528V126.159H222.312V127.097H218.528V131H217.471ZM224.514 131V122.273H229.747V123.21H225.571V126.159H229.355V127.097H225.571V131H224.514ZM231.557 131V122.273H236.79V123.21H232.614V126.159H236.398V127.097H232.614V131H231.557ZM238.6 131V122.273H243.833V123.21H239.657V126.159H243.441V127.097H239.657V131H238.6ZM245.643 131V122.273H250.876V123.21H246.7V126.159H250.484V127.097H246.7V131H245.643Z" fill="black"/>
<path d="M45.2775 156V147.273H48.2264C48.9082 147.273 49.4679 147.389 49.9054 147.622C50.3429 147.852 50.6667 148.169 50.877 148.572C51.0872 148.976 51.1923 149.435 51.1923 149.949C51.1923 150.463 51.0872 150.919 50.877 151.317C50.6667 151.714 50.3443 152.027 49.9096 152.254C49.475 152.479 48.9196 152.591 48.2434 152.591H45.8571V151.636H48.2093C48.6752 151.636 49.0502 151.568 49.3343 151.432C49.6213 151.295 49.8287 151.102 49.9565 150.852C50.0872 150.599 50.1525 150.298 50.1525 149.949C50.1525 149.599 50.0872 149.294 49.9565 149.033C49.8258 148.771 49.617 148.57 49.3301 148.428C49.0431 148.283 48.6639 148.21 48.1923 148.21H46.3343V156H45.2775ZM49.3855 152.08L51.5332 156H50.3059L48.1923 152.08H49.3855ZM53.5499 154.884C53.3397 154.884 53.1593 154.808 53.0087 154.658C52.8581 154.507 52.7828 154.327 52.7828 154.116C52.7828 153.906 52.8581 153.726 53.0087 153.575C53.1593 153.425 53.3397 153.349 53.5499 153.349C53.7601 153.349 53.9405 153.425 54.0911 153.575C54.2417 153.726 54.3169 153.906 54.3169 154.116C54.3169 154.256 54.2814 154.384 54.2104 154.5C54.1422 154.616 54.0499 154.71 53.9334 154.781C53.8198 154.849 53.6919 154.884 53.5499 154.884ZM53.5499 150.469C53.3397 150.469 53.1593 150.393 53.0087 150.243C52.8581 150.092 52.7828 149.912 52.7828 149.702C52.7828 149.491 52.8581 149.311 53.0087 149.161C53.1593 149.01 53.3397 148.935 53.5499 148.935C53.7601 148.935 53.9405 149.01 54.0911 149.161C54.2417 149.311 54.3169 149.491 54.3169 149.702C54.3169 149.841 54.2814 149.969 54.2104 150.085C54.1422 150.202 54.0499 150.295 53.9334 150.366C53.8198 150.435 53.6919 150.469 53.5499 150.469ZM59.1728 147.273V156H58.1159V148.381H58.0648L55.9341 149.795V148.722L58.1159 147.273H59.1728ZM64.41 156.119C63.91 156.119 63.4597 156.02 63.0591 155.821C62.6586 155.622 62.3375 155.349 62.0961 155.003C61.8546 154.656 61.7225 154.261 61.6998 153.818H62.7225C62.7623 154.213 62.9412 154.54 63.2594 154.798C63.5804 155.054 63.964 155.182 64.41 155.182C64.7679 155.182 65.0861 155.098 65.3645 154.93C65.6458 154.763 65.8659 154.533 66.025 154.24C66.187 153.945 66.2679 153.611 66.2679 153.239C66.2679 152.858 66.1841 152.518 66.0165 152.22C65.8517 151.919 65.6245 151.682 65.3347 151.509C65.0449 151.335 64.714 151.247 64.3418 151.244C64.0748 151.241 63.8006 151.283 63.5194 151.368C63.2381 151.45 63.0066 151.557 62.8248 151.688L61.8361 151.568L62.3645 147.273H66.8986V148.21H63.2509L62.9441 150.784H62.9952C63.1742 150.642 63.3986 150.524 63.6685 150.43C63.9384 150.337 64.2196 150.29 64.5123 150.29C65.0463 150.29 65.5222 150.418 65.9398 150.673C66.3603 150.926 66.6898 151.273 66.9284 151.713C67.1699 152.153 67.2907 152.656 67.2907 153.222C67.2907 153.778 67.1657 154.276 66.9157 154.713C66.6685 155.148 66.3276 155.491 65.8929 155.744C65.4583 155.994 64.964 156.119 64.41 156.119ZM68.7789 154.21V153.341L72.6142 147.273H73.2449V148.619H72.8187L69.921 153.205V153.273H75.0858V154.21H68.7789ZM72.8869 156V153.946V153.541V147.273H73.8926V156H72.8869Z" fill="black"/>
<path d="M203.133 156V147.273H206.082C206.764 147.273 207.323 147.389 207.761 147.622C208.198 147.852 208.522 148.169 208.732 148.572C208.943 148.976 209.048 149.435 209.048 149.949C209.048 150.463 208.943 150.919 208.732 151.317C208.522 151.714 208.2 152.027 207.765 152.254C207.33 152.479 206.775 152.591 206.099 152.591H203.713V151.636H206.065C206.531 151.636 206.906 151.568 207.19 151.432C207.477 151.295 207.684 151.102 207.812 150.852C207.943 150.599 208.008 150.298 208.008 149.949C208.008 149.599 207.943 149.294 207.812 149.033C207.681 148.771 207.472 148.57 207.186 148.428C206.899 148.283 206.519 148.21 206.048 148.21H204.19V156H203.133ZM207.241 152.08L209.389 156H208.161L206.048 152.08H207.241ZM211.405 154.884C211.195 154.884 211.015 154.808 210.864 154.658C210.714 154.507 210.638 154.327 210.638 154.116C210.638 153.906 210.714 153.726 210.864 153.575C211.015 153.425 211.195 153.349 211.405 153.349C211.616 153.349 211.796 153.425 211.947 153.575C212.097 153.726 212.172 153.906 212.172 154.116C212.172 154.256 212.137 154.384 212.066 154.5C211.998 154.616 211.905 154.71 211.789 154.781C211.675 154.849 211.547 154.884 211.405 154.884ZM211.405 150.469C211.195 150.469 211.015 150.393 210.864 150.243C210.714 150.092 210.638 149.912 210.638 149.702C210.638 149.491 210.714 149.311 210.864 149.161C211.015 149.01 211.195 148.935 211.405 148.935C211.616 148.935 211.796 149.01 211.947 149.161C212.097 149.311 212.172 149.491 212.172 149.702C212.172 149.841 212.137 149.969 212.066 150.085C211.998 150.202 211.905 150.295 211.789 150.366C211.675 150.435 211.547 150.469 211.405 150.469ZM213.96 156V155.233L216.841 152.08C217.179 151.71 217.457 151.389 217.676 151.116C217.895 150.841 218.057 150.582 218.162 150.341C218.27 150.097 218.324 149.841 218.324 149.574C218.324 149.267 218.25 149.001 218.102 148.777C217.957 148.553 217.758 148.379 217.506 148.257C217.253 148.135 216.969 148.074 216.653 148.074C216.318 148.074 216.025 148.143 215.775 148.283C215.528 148.419 215.336 148.611 215.2 148.858C215.067 149.105 215 149.395 215 149.727H213.994C213.994 149.216 214.112 148.767 214.348 148.381C214.584 147.994 214.905 147.693 215.311 147.477C215.72 147.261 216.179 147.153 216.687 147.153C217.199 147.153 217.652 147.261 218.047 147.477C218.442 147.693 218.751 147.984 218.976 148.351C219.2 148.717 219.312 149.125 219.312 149.574C219.312 149.895 219.254 150.209 219.138 150.516C219.024 150.82 218.825 151.159 218.541 151.534C218.26 151.906 217.869 152.361 217.369 152.898L215.409 154.994V155.062H219.466V156H213.96ZM223.953 156.119C223.453 156.119 223.003 156.02 222.602 155.821C222.202 155.622 221.881 155.349 221.639 155.003C221.398 154.656 221.265 154.261 221.243 153.818H222.265C222.305 154.213 222.484 154.54 222.802 154.798C223.123 155.054 223.507 155.182 223.953 155.182C224.311 155.182 224.629 155.098 224.907 154.93C225.189 154.763 225.409 154.533 225.568 154.24C225.73 153.945 225.811 153.611 225.811 153.239C225.811 152.858 225.727 152.518 225.559 152.22C225.395 151.919 225.167 151.682 224.878 151.509C224.588 151.335 224.257 151.247 223.885 151.244C223.618 151.241 223.344 151.283 223.062 151.368C222.781 151.45 222.55 151.557 222.368 151.688L221.379 151.568L221.907 147.273H226.442V148.21H222.794L222.487 150.784H222.538C222.717 150.642 222.942 150.524 223.211 150.43C223.481 150.337 223.763 150.29 224.055 150.29C224.589 150.29 225.065 150.418 225.483 150.673C225.903 150.926 226.233 151.273 226.471 151.713C226.713 152.153 226.834 152.656 226.834 153.222C226.834 153.778 226.709 154.276 226.459 154.713C226.211 155.148 225.871 155.491 225.436 155.744C225.001 155.994 224.507 156.119 223.953 156.119ZM231.254 156.119C230.754 156.119 230.303 156.02 229.903 155.821C229.502 155.622 229.181 155.349 228.94 155.003C228.698 154.656 228.566 154.261 228.544 153.818H229.566C229.606 154.213 229.785 154.54 230.103 154.798C230.424 155.054 230.808 155.182 231.254 155.182C231.612 155.182 231.93 155.098 232.208 154.93C232.49 154.763 232.71 154.533 232.869 154.24C233.031 153.945 233.112 153.611 233.112 153.239C233.112 152.858 233.028 152.518 232.86 152.22C232.695 151.919 232.468 151.682 232.178 151.509C231.889 151.335 231.558 151.247 231.186 151.244C230.919 151.241 230.644 151.283 230.363 151.368C230.082 151.45 229.85 151.557 229.669 151.688L228.68 151.568L229.208 147.273H233.742V148.21H230.095L229.788 150.784H229.839C230.018 150.642 230.242 150.524 230.512 150.43C230.782 150.337 231.063 150.29 231.356 150.29C231.89 150.29 232.366 150.418 232.784 150.673C233.204 150.926 233.534 151.273 233.772 151.713C234.014 152.153 234.134 152.656 234.134 153.222C234.134 153.778 234.009 154.276 233.759 154.713C233.512 155.148 233.171 155.491 232.737 155.744C232.302 155.994 231.808 156.119 231.254 156.119Z" fill="black"/>
<path d="M92.1282 150C92.0344 149.713 91.9109 149.456 91.7575 149.229C91.6069 148.999 91.4265 148.803 91.2163 148.641C91.0089 148.479 90.7731 148.355 90.5089 148.27C90.2447 148.185 89.9549 148.142 89.6396 148.142C89.1225 148.142 88.6523 148.276 88.229 148.543C87.8058 148.81 87.4691 149.203 87.2191 149.723C86.9691 150.243 86.8441 150.881 86.8441 151.636C86.8441 152.392 86.9705 153.03 87.2234 153.55C87.4762 154.07 87.8185 154.463 88.2504 154.73C88.6822 154.997 89.168 155.131 89.7077 155.131C90.2077 155.131 90.6481 155.024 91.0288 154.811C91.4123 154.595 91.7106 154.291 91.9237 153.899C92.1396 153.504 92.2475 153.04 92.2475 152.506L92.5714 152.574H89.9464V151.636H93.2702V152.574C93.2702 153.293 93.1168 153.918 92.81 154.449C92.506 154.98 92.0856 155.392 91.5487 155.685C91.0146 155.974 90.4009 156.119 89.7077 156.119C88.935 156.119 88.256 155.938 87.6708 155.574C87.0884 155.21 86.6339 154.693 86.3072 154.023C85.9833 153.352 85.8214 152.557 85.8214 151.636C85.8214 150.946 85.9137 150.325 86.0984 149.774C86.2859 149.22 86.5501 148.749 86.891 148.359C87.2319 147.97 87.6353 147.672 88.1012 147.464C88.5671 147.257 89.0799 147.153 89.6396 147.153C90.0998 147.153 90.5288 147.223 90.9265 147.362C91.3271 147.499 91.6836 147.693 91.9961 147.946C92.3114 148.196 92.5742 148.496 92.7844 148.845C92.9947 149.192 93.1396 149.577 93.2191 150H92.1282ZM95.6768 154.884C95.4666 154.884 95.2862 154.808 95.1357 154.658C94.9851 154.507 94.9098 154.327 94.9098 154.116C94.9098 153.906 94.9851 153.726 95.1357 153.575C95.2862 153.425 95.4666 153.349 95.6768 153.349C95.8871 153.349 96.0675 153.425 96.218 153.575C96.3686 153.726 96.4439 153.906 96.4439 154.116C96.4439 154.256 96.4084 154.384 96.3374 154.5C96.2692 154.616 96.1768 154.71 96.0604 154.781C95.9467 154.849 95.8189 154.884 95.6768 154.884ZM95.6768 150.469C95.4666 150.469 95.2862 150.393 95.1357 150.243C94.9851 150.092 94.9098 149.912 94.9098 149.702C94.9098 149.491 94.9851 149.311 95.1357 149.161C95.2862 149.01 95.4666 148.935 95.6768 148.935C95.8871 148.935 96.0675 149.01 96.218 149.161C96.3686 149.311 96.4439 149.491 96.4439 149.702C96.4439 149.841 96.4084 149.969 96.3374 150.085C96.2692 150.202 96.1768 150.295 96.0604 150.366C95.9467 150.435 95.8189 150.469 95.6768 150.469ZM98.2315 156V155.233L101.112 152.08C101.45 151.71 101.729 151.389 101.947 151.116C102.166 150.841 102.328 150.582 102.433 150.341C102.541 150.097 102.595 149.841 102.595 149.574C102.595 149.267 102.521 149.001 102.374 148.777C102.229 148.553 102.03 148.379 101.777 148.257C101.524 148.135 101.24 148.074 100.925 148.074C100.589 148.074 100.297 148.143 100.047 148.283C99.7997 148.419 99.608 148.611 99.4716 148.858C99.3381 149.105 99.2713 149.395 99.2713 149.727H98.2656C98.2656 149.216 98.3835 148.767 98.6193 148.381C98.8551 147.994 99.1761 147.693 99.5824 147.477C99.9915 147.261 100.45 147.153 100.959 147.153C101.47 147.153 101.923 147.261 102.318 147.477C102.713 147.693 103.023 147.984 103.247 148.351C103.472 148.717 103.584 149.125 103.584 149.574C103.584 149.895 103.526 150.209 103.409 150.516C103.295 150.82 103.097 151.159 102.812 151.534C102.531 151.906 102.141 152.361 101.641 152.898L99.6804 154.994V155.062H103.737V156H98.2315ZM108.224 156.119C107.724 156.119 107.274 156.02 106.874 155.821C106.473 155.622 106.152 155.349 105.911 155.003C105.669 154.656 105.537 154.261 105.514 153.818H106.537C106.577 154.213 106.756 154.54 107.074 154.798C107.395 155.054 107.778 155.182 108.224 155.182C108.582 155.182 108.901 155.098 109.179 154.93C109.46 154.763 109.68 154.533 109.839 154.24C110.001 153.945 110.082 153.611 110.082 153.239C110.082 152.858 109.999 152.518 109.831 152.22C109.666 151.919 109.439 151.682 109.149 151.509C108.859 151.335 108.528 151.247 108.156 151.244C107.889 151.241 107.615 151.283 107.334 151.368C107.053 151.45 106.821 151.557 106.639 151.688L105.651 151.568L106.179 147.273H110.713V148.21H107.065L106.759 150.784H106.81C106.989 150.642 107.213 150.524 107.483 150.43C107.753 150.337 108.034 150.29 108.327 150.29C108.861 150.29 109.337 150.418 109.754 150.673C110.175 150.926 110.504 151.273 110.743 151.713C110.984 152.153 111.105 152.656 111.105 153.222C111.105 153.778 110.98 154.276 110.73 154.713C110.483 155.148 110.142 155.491 109.707 155.744C109.273 155.994 108.778 156.119 108.224 156.119Z" fill="black"/>
<path d="M245.478 150C245.384 149.713 245.26 149.456 245.107 149.229C244.956 148.999 244.776 148.803 244.566 148.641C244.358 148.479 244.123 148.355 243.858 148.27C243.594 148.185 243.305 148.142 242.989 148.142C242.472 148.142 242.002 148.276 241.579 148.543C241.155 148.81 240.819 149.203 240.569 149.723C240.319 150.243 240.194 150.881 240.194 151.636C240.194 152.392 240.32 153.03 240.573 153.55C240.826 154.07 241.168 154.463 241.6 154.73C242.032 154.997 242.518 155.131 243.057 155.131C243.557 155.131 243.998 155.024 244.378 154.811C244.762 154.595 245.06 154.291 245.273 153.899C245.489 153.504 245.597 153.04 245.597 152.506L245.921 152.574H243.296V151.636H246.62V152.574C246.62 153.293 246.466 153.918 246.16 154.449C245.856 154.98 245.435 155.392 244.898 155.685C244.364 155.974 243.751 156.119 243.057 156.119C242.285 156.119 241.606 155.938 241.02 155.574C240.438 155.21 239.983 154.693 239.657 154.023C239.333 153.352 239.171 152.557 239.171 151.636C239.171 150.946 239.263 150.325 239.448 149.774C239.635 149.22 239.9 148.749 240.241 148.359C240.581 147.97 240.985 147.672 241.451 147.464C241.917 147.257 242.43 147.153 242.989 147.153C243.449 147.153 243.878 147.223 244.276 147.362C244.677 147.499 245.033 147.693 245.346 147.946C245.661 148.196 245.924 148.496 246.134 148.845C246.344 149.192 246.489 149.577 246.569 150H245.478ZM249.026 154.884C248.816 154.884 248.636 154.808 248.485 154.658C248.335 154.507 248.259 154.327 248.259 154.116C248.259 153.906 248.335 153.726 248.485 153.575C248.636 153.425 248.816 153.349 249.026 153.349C249.237 153.349 249.417 153.425 249.568 153.575C249.718 153.726 249.794 153.906 249.794 154.116C249.794 154.256 249.758 154.384 249.687 154.5C249.619 154.616 249.526 154.71 249.41 154.781C249.296 154.849 249.169 154.884 249.026 154.884ZM249.026 150.469C248.816 150.469 248.636 150.393 248.485 150.243C248.335 150.092 248.259 149.912 248.259 149.702C248.259 149.491 248.335 149.311 248.485 149.161C248.636 149.01 248.816 148.935 249.026 148.935C249.237 148.935 249.417 149.01 249.568 149.161C249.718 149.311 249.794 149.491 249.794 149.702C249.794 149.841 249.758 149.969 249.687 150.085C249.619 150.202 249.526 150.295 249.41 150.366C249.296 150.435 249.169 150.469 249.026 150.469ZM251.581 156V155.233L254.462 152.08C254.8 151.71 255.078 151.389 255.297 151.116C255.516 150.841 255.678 150.582 255.783 150.341C255.891 150.097 255.945 149.841 255.945 149.574C255.945 149.267 255.871 149.001 255.723 148.777C255.578 148.553 255.379 148.379 255.127 148.257C254.874 148.135 254.59 148.074 254.274 148.074C253.939 148.074 253.646 148.143 253.396 148.283C253.149 148.419 252.958 148.611 252.821 148.858C252.688 149.105 252.621 149.395 252.621 149.727H251.615C251.615 149.216 251.733 148.767 251.969 148.381C252.205 147.994 252.526 147.693 252.932 147.477C253.341 147.261 253.8 147.153 254.308 147.153C254.82 147.153 255.273 147.261 255.668 147.477C256.063 147.693 256.372 147.984 256.597 148.351C256.821 148.717 256.933 149.125 256.933 149.574C256.933 149.895 256.875 150.209 256.759 150.516C256.645 150.82 256.446 151.159 256.162 151.534C255.881 151.906 255.49 152.361 254.99 152.898L253.03 154.994V155.062H257.087V156H251.581ZM261.574 156.119C261.074 156.119 260.624 156.02 260.223 155.821C259.823 155.622 259.502 155.349 259.26 155.003C259.019 154.656 258.887 154.261 258.864 153.818H259.887C259.926 154.213 260.105 154.54 260.423 154.798C260.744 155.054 261.128 155.182 261.574 155.182C261.932 155.182 262.25 155.098 262.529 154.93C262.81 154.763 263.03 154.533 263.189 154.24C263.351 153.945 263.432 153.611 263.432 153.239C263.432 152.858 263.348 152.518 263.181 152.22C263.016 151.919 262.789 151.682 262.499 151.509C262.209 151.335 261.878 151.247 261.506 151.244C261.239 151.241 260.965 151.283 260.683 151.368C260.402 151.45 260.171 151.557 259.989 151.688L259 151.568L259.529 147.273H264.063V148.21H260.415L260.108 150.784H260.159C260.338 150.642 260.563 150.524 260.833 150.43C261.102 150.337 261.384 150.29 261.676 150.29C262.21 150.29 262.686 150.418 263.104 150.673C263.524 150.926 263.854 151.273 264.093 151.713C264.334 152.153 264.455 152.656 264.455 153.222C264.455 153.778 264.33 154.276 264.08 154.713C263.833 155.148 263.492 155.491 263.057 155.744C262.622 155.994 262.128 156.119 261.574 156.119ZM268.875 156.119C268.375 156.119 267.925 156.02 267.524 155.821C267.123 155.622 266.802 155.349 266.561 155.003C266.319 154.656 266.187 154.261 266.165 153.818H267.187C267.227 154.213 267.406 154.54 267.724 154.798C268.045 155.054 268.429 155.182 268.875 155.182C269.233 155.182 269.551 155.098 269.829 154.93C270.111 154.763 270.331 154.533 270.49 154.24C270.652 153.945 270.733 153.611 270.733 153.239C270.733 152.858 270.649 152.518 270.481 152.22C270.317 151.919 270.089 151.682 269.8 151.509C269.51 151.335 269.179 151.247 268.807 151.244C268.54 151.241 268.265 151.283 267.984 151.368C267.703 151.45 267.471 151.557 267.29 151.688L266.301 151.568L266.829 147.273H271.363V148.21H267.716L267.409 150.784H267.46C267.639 150.642 267.863 150.524 268.133 150.43C268.403 150.337 268.684 150.29 268.977 150.29C269.511 150.29 269.987 150.418 270.405 150.673C270.825 150.926 271.155 151.273 271.393 151.713C271.635 152.153 271.756 152.656 271.756 153.222C271.756 153.778 271.631 154.276 271.381 154.713C271.133 155.148 270.792 155.491 270.358 155.744C269.923 155.994 269.429 156.119 268.875 156.119Z" fill="black"/>
<path d="M122.219 156V147.273H125.27C125.878 147.273 126.379 147.378 126.774 147.588C127.169 147.795 127.463 148.075 127.656 148.428C127.85 148.777 127.946 149.165 127.946 149.591C127.946 149.966 127.879 150.276 127.746 150.52C127.615 150.764 127.442 150.957 127.226 151.099C127.013 151.241 126.781 151.347 126.531 151.415V151.5C126.798 151.517 127.067 151.611 127.337 151.781C127.607 151.952 127.833 152.196 128.014 152.514C128.196 152.832 128.287 153.222 128.287 153.682C128.287 154.119 128.188 154.513 127.989 154.862C127.79 155.212 127.476 155.489 127.047 155.693C126.618 155.898 126.06 156 125.372 156H122.219ZM123.276 155.062H125.372C126.063 155.062 126.553 154.929 126.843 154.662C127.135 154.392 127.281 154.065 127.281 153.682C127.281 153.386 127.206 153.114 127.056 152.864C126.905 152.611 126.691 152.409 126.412 152.259C126.134 152.105 125.804 152.028 125.423 152.028H123.276V155.062ZM123.276 151.108H125.236C125.554 151.108 125.841 151.045 126.097 150.92C126.355 150.795 126.56 150.619 126.71 150.392C126.864 150.165 126.941 149.898 126.941 149.591C126.941 149.207 126.807 148.882 126.54 148.615C126.273 148.345 125.85 148.21 125.27 148.21H123.276V151.108ZM130.62 154.884C130.41 154.884 130.23 154.808 130.079 154.658C129.928 154.507 129.853 154.327 129.853 154.116C129.853 153.906 129.928 153.726 130.079 153.575C130.23 153.425 130.41 153.349 130.62 153.349C130.83 153.349 131.011 153.425 131.161 153.575C131.312 153.726 131.387 153.906 131.387 154.116C131.387 154.256 131.352 154.384 131.281 154.5C131.213 154.616 131.12 154.71 131.004 154.781C130.89 154.849 130.762 154.884 130.62 154.884ZM130.62 150.469C130.41 150.469 130.23 150.393 130.079 150.243C129.928 150.092 129.853 149.912 129.853 149.702C129.853 149.491 129.928 149.311 130.079 149.161C130.23 149.01 130.41 148.935 130.62 148.935C130.83 148.935 131.011 149.01 131.161 149.161C131.312 149.311 131.387 149.491 131.387 149.702C131.387 149.841 131.352 149.969 131.281 150.085C131.213 150.202 131.12 150.295 131.004 150.366C130.89 150.435 130.762 150.469 130.62 150.469ZM133.175 156V155.233L136.056 152.08C136.394 151.71 136.672 151.389 136.891 151.116C137.11 150.841 137.271 150.582 137.377 150.341C137.485 150.097 137.539 149.841 137.539 149.574C137.539 149.267 137.465 149.001 137.317 148.777C137.172 148.553 136.973 148.379 136.72 148.257C136.468 148.135 136.183 148.074 135.868 148.074C135.533 148.074 135.24 148.143 134.99 148.283C134.743 148.419 134.551 148.611 134.415 148.858C134.281 149.105 134.215 149.395 134.215 149.727H133.209C133.209 149.216 133.327 148.767 133.563 148.381C133.798 147.994 134.119 147.693 134.526 147.477C134.935 147.261 135.394 147.153 135.902 147.153C136.414 147.153 136.867 147.261 137.262 147.477C137.656 147.693 137.966 147.984 138.191 148.351C138.415 148.717 138.527 149.125 138.527 149.574C138.527 149.895 138.469 150.209 138.352 150.516C138.239 150.82 138.04 151.159 137.756 151.534C137.475 151.906 137.084 152.361 136.584 152.898L134.624 154.994V155.062H138.681V156H133.175ZM143.168 156.119C142.668 156.119 142.218 156.02 141.817 155.821C141.416 155.622 141.095 155.349 140.854 155.003C140.612 154.656 140.48 154.261 140.458 153.818H141.48C141.52 154.213 141.699 154.54 142.017 154.798C142.338 155.054 142.722 155.182 143.168 155.182C143.526 155.182 143.844 155.098 144.122 154.93C144.404 154.763 144.624 154.533 144.783 154.24C144.945 153.945 145.026 153.611 145.026 153.239C145.026 152.858 144.942 152.518 144.774 152.22C144.61 151.919 144.382 151.682 144.093 151.509C143.803 151.335 143.472 151.247 143.1 151.244C142.833 151.241 142.558 151.283 142.277 151.368C141.996 151.45 141.764 151.557 141.583 151.688L140.594 151.568L141.122 147.273H145.656V148.21H142.009L141.702 150.784H141.753C141.932 150.642 142.156 150.524 142.426 150.43C142.696 150.337 142.977 150.29 143.27 150.29C143.804 150.29 144.28 150.418 144.698 150.673C145.118 150.926 145.448 151.273 145.686 151.713C145.928 152.153 146.048 152.656 146.048 153.222C146.048 153.778 145.923 154.276 145.673 154.713C145.426 155.148 145.085 155.491 144.651 155.744C144.216 155.994 143.722 156.119 143.168 156.119Z" fill="black"/>
<path d="M277.069 156V147.273H280.12C280.728 147.273 281.229 147.378 281.624 147.588C282.019 147.795 282.313 148.075 282.506 148.428C282.699 148.777 282.796 149.165 282.796 149.591C282.796 149.966 282.729 150.276 282.596 150.52C282.465 150.764 282.292 150.957 282.076 151.099C281.863 151.241 281.631 151.347 281.381 151.415V151.5C281.648 151.517 281.917 151.611 282.186 151.781C282.456 151.952 282.682 152.196 282.864 152.514C283.046 152.832 283.137 153.222 283.137 153.682C283.137 154.119 283.037 154.513 282.838 154.862C282.64 155.212 282.326 155.489 281.897 155.693C281.468 155.898 280.909 156 280.222 156H277.069ZM278.125 155.062H280.222C280.912 155.062 281.402 154.929 281.692 154.662C281.985 154.392 282.131 154.065 282.131 153.682C282.131 153.386 282.056 153.114 281.905 152.864C281.755 152.611 281.54 152.409 281.262 152.259C280.983 152.105 280.654 152.028 280.273 152.028H278.125V155.062ZM278.125 151.108H280.086C280.404 151.108 280.691 151.045 280.946 150.92C281.205 150.795 281.409 150.619 281.56 150.392C281.713 150.165 281.79 149.898 281.79 149.591C281.79 149.207 281.657 148.882 281.39 148.615C281.123 148.345 280.699 148.21 280.12 148.21H278.125V151.108ZM285.47 154.884C285.26 154.884 285.079 154.808 284.929 154.658C284.778 154.507 284.703 154.327 284.703 154.116C284.703 153.906 284.778 153.726 284.929 153.575C285.079 153.425 285.26 153.349 285.47 153.349C285.68 153.349 285.86 153.425 286.011 153.575C286.162 153.726 286.237 153.906 286.237 154.116C286.237 154.256 286.201 154.384 286.13 154.5C286.062 154.616 285.97 154.71 285.853 154.781C285.74 154.849 285.612 154.884 285.47 154.884ZM285.47 150.469C285.26 150.469 285.079 150.393 284.929 150.243C284.778 150.092 284.703 149.912 284.703 149.702C284.703 149.491 284.778 149.311 284.929 149.161C285.079 149.01 285.26 148.935 285.47 148.935C285.68 148.935 285.86 149.01 286.011 149.161C286.162 149.311 286.237 149.491 286.237 149.702C286.237 149.841 286.201 149.969 286.13 150.085C286.062 150.202 285.97 150.295 285.853 150.366C285.74 150.435 285.612 150.469 285.47 150.469ZM288.025 156V155.233L290.905 152.08C291.243 151.71 291.522 151.389 291.74 151.116C291.959 150.841 292.121 150.582 292.226 150.341C292.334 150.097 292.388 149.841 292.388 149.574C292.388 149.267 292.314 149.001 292.167 148.777C292.022 148.553 291.823 148.379 291.57 148.257C291.317 148.135 291.033 148.074 290.718 148.074C290.382 148.074 290.09 148.143 289.84 148.283C289.593 148.419 289.401 148.611 289.265 148.858C289.131 149.105 289.064 149.395 289.064 149.727H288.059C288.059 149.216 288.176 148.767 288.412 148.381C288.648 147.994 288.969 147.693 289.375 147.477C289.784 147.261 290.243 147.153 290.752 147.153C291.263 147.153 291.716 147.261 292.111 147.477C292.506 147.693 292.816 147.984 293.04 148.351C293.265 148.717 293.377 149.125 293.377 149.574C293.377 149.895 293.319 150.209 293.202 150.516C293.088 150.82 292.89 151.159 292.605 151.534C292.324 151.906 291.934 152.361 291.434 152.898L289.473 154.994V155.062H293.53V156H288.025ZM298.017 156.119C297.517 156.119 297.067 156.02 296.667 155.821C296.266 155.622 295.945 155.349 295.703 155.003C295.462 154.656 295.33 154.261 295.307 153.818H296.33C296.37 154.213 296.549 154.54 296.867 154.798C297.188 155.054 297.571 155.182 298.017 155.182C298.375 155.182 298.694 155.098 298.972 154.93C299.253 154.763 299.473 154.533 299.632 154.24C299.794 153.945 299.875 153.611 299.875 153.239C299.875 152.858 299.792 152.518 299.624 152.22C299.459 151.919 299.232 151.682 298.942 151.509C298.652 151.335 298.321 151.247 297.949 151.244C297.682 151.241 297.408 151.283 297.127 151.368C296.846 151.45 296.614 151.557 296.432 151.688L295.444 151.568L295.972 147.273H300.506V148.21H296.858L296.551 150.784H296.603C296.782 150.642 297.006 150.524 297.276 150.43C297.546 150.337 297.827 150.29 298.12 150.29C298.654 150.29 299.13 150.418 299.547 150.673C299.968 150.926 300.297 151.273 300.536 151.713C300.777 152.153 300.898 152.656 300.898 153.222C300.898 153.778 300.773 154.276 300.523 154.713C300.276 155.148 299.935 155.491 299.5 155.744C299.066 155.994 298.571 156.119 298.017 156.119ZM305.318 156.119C304.818 156.119 304.368 156.02 303.967 155.821C303.567 155.622 303.246 155.349 303.004 155.003C302.763 154.656 302.631 154.261 302.608 153.818H303.631C303.67 154.213 303.849 154.54 304.168 154.798C304.489 155.054 304.872 155.182 305.318 155.182C305.676 155.182 305.994 155.098 306.273 154.93C306.554 154.763 306.774 154.533 306.933 154.24C307.095 153.945 307.176 153.611 307.176 153.239C307.176 152.858 307.092 152.518 306.925 152.22C306.76 151.919 306.533 151.682 306.243 151.509C305.953 151.335 305.622 151.247 305.25 151.244C304.983 151.241 304.709 151.283 304.428 151.368C304.146 151.45 303.915 151.557 303.733 151.688L302.744 151.568L303.273 147.273H307.807V148.21H304.159L303.852 150.784H303.903C304.082 150.642 304.307 150.524 304.577 150.43C304.847 150.337 305.128 150.29 305.42 150.29C305.955 150.29 306.43 150.418 306.848 150.673C307.268 150.926 307.598 151.273 307.837 151.713C308.078 152.153 308.199 152.656 308.199 153.222C308.199 153.778 308.074 154.276 307.824 154.713C307.577 155.148 307.236 155.491 306.801 155.744C306.366 155.994 305.872 156.119 305.318 156.119Z" fill="black"/>
<path d="M8.52752 131V122.273H9.58434V126.159H14.2377V122.273H15.2946V131H14.2377V127.097H9.58434V131H8.52752ZM17.4103 131V122.273H22.6774V123.21H18.4672V126.159H22.4047V127.097H18.4672V130.062H22.7456V131H17.4103ZM25.0936 122.273L27.3436 125.903H27.4118L29.6618 122.273H30.9061L28.1618 126.636L30.9061 131H29.6618L27.4118 127.438H27.3436L25.0936 131H23.8493L26.6618 126.636L23.8493 122.273H25.0936ZM32.878 129.884C32.6678 129.884 32.4874 129.808 32.3368 129.658C32.1863 129.507 32.111 129.327 32.111 129.116C32.111 128.906 32.1863 128.726 32.3368 128.575C32.4874 128.425 32.6678 128.349 32.878 128.349C33.0882 128.349 33.2686 128.425 33.4192 128.575C33.5698 128.726 33.6451 128.906 33.6451 129.116C33.6451 129.256 33.6096 129.384 33.5385 129.5C33.4703 129.616 33.378 129.71 33.2615 129.781C33.1479 129.849 33.0201 129.884 32.878 129.884ZM32.878 125.469C32.6678 125.469 32.4874 125.393 32.3368 125.243C32.1863 125.092 32.111 124.912 32.111 124.702C32.111 124.491 32.1863 124.311 32.3368 124.161C32.4874 124.01 32.6678 123.935 32.878 123.935C33.0882 123.935 33.2686 124.01 33.4192 124.161C33.5698 124.311 33.6451 124.491 33.6451 124.702C33.6451 124.841 33.6096 124.969 33.5385 125.085C33.4703 125.202 33.378 125.295 33.2615 125.366C33.1479 125.435 33.0201 125.469 32.878 125.469Z" fill="black"/>
<path d="M169.528 131V122.273H170.584V126.159H175.238V122.273H176.295V131H175.238V127.097H170.584V131H169.528ZM178.41 131V122.273H183.677V123.21H179.467V126.159H183.405V127.097H179.467V130.062H183.746V131H178.41ZM186.094 122.273L188.344 125.903H188.412L190.662 122.273H191.906L189.162 126.636L191.906 131H190.662L188.412 127.438H188.344L186.094 131H184.849L187.662 126.636L184.849 122.273H186.094ZM193.878 129.884C193.668 129.884 193.487 129.808 193.337 129.658C193.186 129.507 193.111 129.327 193.111 129.116C193.111 128.906 193.186 128.726 193.337 128.575C193.487 128.425 193.668 128.349 193.878 128.349C194.088 128.349 194.269 128.425 194.419 128.575C194.57 128.726 194.645 128.906 194.645 129.116C194.645 129.256 194.61 129.384 194.539 129.5C194.47 129.616 194.378 129.71 194.262 129.781C194.148 129.849 194.02 129.884 193.878 129.884ZM193.878 125.469C193.668 125.469 193.487 125.393 193.337 125.243C193.186 125.092 193.111 124.912 193.111 124.702C193.111 124.491 193.186 124.311 193.337 124.161C193.487 124.01 193.668 123.935 193.878 123.935C194.088 123.935 194.269 124.01 194.419 124.161C194.57 124.311 194.645 124.491 194.645 124.702C194.645 124.841 194.61 124.969 194.539 125.085C194.47 125.202 194.378 125.295 194.262 125.366C194.148 125.435 194.02 125.469 193.878 125.469Z" fill="black"/>
<path d="M9.20526 156V147.273H12.1541C12.8359 147.273 13.3956 147.389 13.8331 147.622C14.2706 147.852 14.5945 148.169 14.8047 148.572C15.0149 148.976 15.12 149.435 15.12 149.949C15.12 150.463 15.0149 150.919 14.8047 151.317C14.5945 151.714 14.272 152.027 13.8374 152.254C13.4027 152.479 12.8473 152.591 12.1712 152.591H9.7848V151.636H12.1371C12.603 151.636 12.978 151.568 13.2621 151.432C13.549 151.295 13.7564 151.102 13.8842 150.852C14.0149 150.599 14.0803 150.298 14.0803 149.949C14.0803 149.599 14.0149 149.294 13.8842 149.033C13.7536 148.771 13.5447 148.57 13.2578 148.428C12.9709 148.283 12.5916 148.21 12.12 148.21H10.2621V156H9.20526ZM13.3132 152.08L15.4609 156H14.2337L12.12 152.08H13.3132ZM22.8469 150C22.7532 149.713 22.6296 149.456 22.4762 149.229C22.3256 148.999 22.1452 148.803 21.935 148.641C21.7276 148.479 21.4918 148.355 21.2276 148.27C20.9634 148.185 20.6737 148.142 20.3583 148.142C19.8413 148.142 19.3711 148.276 18.9478 148.543C18.5245 148.81 18.1879 149.203 17.9379 149.723C17.6879 150.243 17.5629 150.881 17.5629 151.636C17.5629 152.392 17.6893 153.03 17.9421 153.55C18.195 154.07 18.5373 154.463 18.9691 154.73C19.4009 154.997 19.8867 155.131 20.4265 155.131C20.9265 155.131 21.3668 155.024 21.7475 154.811C22.131 154.595 22.4293 154.291 22.6424 153.899C22.8583 153.504 22.9663 153.04 22.9663 152.506L23.2901 152.574H20.6651V151.636H23.989V152.574C23.989 153.293 23.8356 153.918 23.5288 154.449C23.2248 154.98 22.8043 155.392 22.2674 155.685C21.7333 155.974 21.1197 156.119 20.4265 156.119C19.6538 156.119 18.9748 155.938 18.3896 155.574C17.8072 155.21 17.3526 154.693 17.0259 154.023C16.7021 153.352 16.5401 152.557 16.5401 151.636C16.5401 150.946 16.6325 150.325 16.8171 149.774C17.0046 149.22 17.2688 148.749 17.6097 148.359C17.9506 147.97 18.354 147.672 18.82 147.464C19.2859 147.257 19.7987 147.153 20.3583 147.153C20.8185 147.153 21.2475 147.223 21.6452 147.362C22.0458 147.499 22.4023 147.693 22.7148 147.946C23.0302 148.196 23.293 148.496 23.5032 148.845C23.7134 149.192 23.8583 149.577 23.9379 150H22.8469ZM25.799 156V147.273H28.8501C29.4581 147.273 29.9595 147.378 30.3544 147.588C30.7493 147.795 31.0433 148.075 31.2365 148.428C31.4297 148.777 31.5263 149.165 31.5263 149.591C31.5263 149.966 31.4595 150.276 31.326 150.52C31.1953 150.764 31.022 150.957 30.8061 151.099C30.593 151.241 30.3615 151.347 30.1115 151.415V151.5C30.3786 151.517 30.647 151.611 30.9169 151.781C31.1868 151.952 31.4126 152.196 31.5945 152.514C31.7763 152.832 31.8672 153.222 31.8672 153.682C31.8672 154.119 31.7678 154.513 31.5689 154.862C31.37 155.212 31.0561 155.489 30.6271 155.693C30.1982 155.898 29.6399 156 28.9524 156H25.799ZM26.8558 155.062H28.9524C29.6428 155.062 30.1328 154.929 30.4226 154.662C30.7152 154.392 30.8615 154.065 30.8615 153.682C30.8615 153.386 30.7862 153.114 30.6357 152.864C30.4851 152.611 30.2706 152.409 29.9922 152.259C29.7138 152.105 29.3842 152.028 29.0036 152.028H26.8558V155.062ZM26.8558 151.108H28.8161C29.1342 151.108 29.4212 151.045 29.6768 150.92C29.9354 150.795 30.1399 150.619 30.2905 150.392C30.4439 150.165 30.5206 149.898 30.5206 149.591C30.5206 149.207 30.3871 148.882 30.12 148.615C29.853 148.345 29.4297 148.21 28.8501 148.21H26.8558V151.108ZM34.2003 154.884C33.9901 154.884 33.8097 154.808 33.6591 154.658C33.5085 154.507 33.4332 154.327 33.4332 154.116C33.4332 153.906 33.5085 153.726 33.6591 153.575C33.8097 153.425 33.9901 153.349 34.2003 153.349C34.4105 153.349 34.5909 153.425 34.7415 153.575C34.892 153.726 34.9673 153.906 34.9673 154.116C34.9673 154.256 34.9318 154.384 34.8608 154.5C34.7926 154.616 34.7003 154.71 34.5838 154.781C34.4702 154.849 34.3423 154.884 34.2003 154.884ZM34.2003 150.469C33.9901 150.469 33.8097 150.393 33.6591 150.243C33.5085 150.092 33.4332 149.912 33.4332 149.702C33.4332 149.491 33.5085 149.311 33.6591 149.161C33.8097 149.01 33.9901 148.935 34.2003 148.935C34.4105 148.935 34.5909 149.01 34.7415 149.161C34.892 149.311 34.9673 149.491 34.9673 149.702C34.9673 149.841 34.9318 149.969 34.8608 150.085C34.7926 150.202 34.7003 150.295 34.5838 150.366C34.4702 150.435 34.3423 150.469 34.2003 150.469Z" fill="black"/>
<path d="M170.205 156V147.273H173.154C173.836 147.273 174.396 147.389 174.833 147.622C175.271 147.852 175.594 148.169 175.805 148.572C176.015 148.976 176.12 149.435 176.12 149.949C176.12 150.463 176.015 150.919 175.805 151.317C175.594 151.714 175.272 152.027 174.837 152.254C174.403 152.479 173.847 152.591 173.171 152.591H170.785V151.636H173.137C173.603 151.636 173.978 151.568 174.262 151.432C174.549 151.295 174.756 151.102 174.884 150.852C175.015 150.599 175.08 150.298 175.08 149.949C175.08 149.599 175.015 149.294 174.884 149.033C174.754 148.771 174.545 148.57 174.258 148.428C173.971 148.283 173.592 148.21 173.12 148.21H171.262V156H170.205ZM174.313 152.08L176.461 156H175.234L173.12 152.08H174.313ZM183.847 150C183.753 149.713 183.63 149.456 183.476 149.229C183.326 148.999 183.145 148.803 182.935 148.641C182.728 148.479 182.492 148.355 182.228 148.27C181.963 148.185 181.674 148.142 181.358 148.142C180.841 148.142 180.371 148.276 179.948 148.543C179.525 148.81 179.188 149.203 178.938 149.723C178.688 150.243 178.563 150.881 178.563 151.636C178.563 152.392 178.689 153.03 178.942 153.55C179.195 154.07 179.537 154.463 179.969 154.73C180.401 154.997 180.887 155.131 181.426 155.131C181.926 155.131 182.367 155.024 182.748 154.811C183.131 154.595 183.429 154.291 183.642 153.899C183.858 153.504 183.966 153.04 183.966 152.506L184.29 152.574H181.665V151.636H184.989V152.574C184.989 153.293 184.836 153.918 184.529 154.449C184.225 154.98 183.804 155.392 183.267 155.685C182.733 155.974 182.12 156.119 181.426 156.119C180.654 156.119 179.975 155.938 179.39 155.574C178.807 155.21 178.353 154.693 178.026 154.023C177.702 153.352 177.54 152.557 177.54 151.636C177.54 150.946 177.632 150.325 177.817 149.774C178.005 149.22 178.269 148.749 178.61 148.359C178.951 147.97 179.354 147.672 179.82 147.464C180.286 147.257 180.799 147.153 181.358 147.153C181.819 147.153 182.248 147.223 182.645 147.362C183.046 147.499 183.402 147.693 183.715 147.946C184.03 148.196 184.293 148.496 184.503 148.845C184.713 149.192 184.858 149.577 184.938 150H183.847ZM186.799 156V147.273H189.85C190.458 147.273 190.96 147.378 191.354 147.588C191.749 147.795 192.043 148.075 192.237 148.428C192.43 148.777 192.526 149.165 192.526 149.591C192.526 149.966 192.46 150.276 192.326 150.52C192.195 150.764 192.022 150.957 191.806 151.099C191.593 151.241 191.362 151.347 191.112 151.415V151.5C191.379 151.517 191.647 151.611 191.917 151.781C192.187 151.952 192.413 152.196 192.594 152.514C192.776 152.832 192.867 153.222 192.867 153.682C192.867 154.119 192.768 154.513 192.569 154.862C192.37 155.212 192.056 155.489 191.627 155.693C191.198 155.898 190.64 156 189.952 156H186.799ZM187.856 155.062H189.952C190.643 155.062 191.133 154.929 191.423 154.662C191.715 154.392 191.862 154.065 191.862 153.682C191.862 153.386 191.786 153.114 191.636 152.864C191.485 152.611 191.271 152.409 190.992 152.259C190.714 152.105 190.384 152.028 190.004 152.028H187.856V155.062ZM187.856 151.108H189.816C190.134 151.108 190.421 151.045 190.677 150.92C190.935 150.795 191.14 150.619 191.29 150.392C191.444 150.165 191.521 149.898 191.521 149.591C191.521 149.207 191.387 148.882 191.12 148.615C190.853 148.345 190.43 148.21 189.85 148.21H187.856V151.108ZM195.2 154.884C194.99 154.884 194.81 154.808 194.659 154.658C194.509 154.507 194.433 154.327 194.433 154.116C194.433 153.906 194.509 153.726 194.659 153.575C194.81 153.425 194.99 153.349 195.2 153.349C195.411 153.349 195.591 153.425 195.741 153.575C195.892 153.726 195.967 153.906 195.967 154.116C195.967 154.256 195.932 154.384 195.861 154.5C195.793 154.616 195.7 154.71 195.584 154.781C195.47 154.849 195.342 154.884 195.2 154.884ZM195.2 150.469C194.99 150.469 194.81 150.393 194.659 150.243C194.509 150.092 194.433 149.912 194.433 149.702C194.433 149.491 194.509 149.311 194.659 149.161C194.81 149.01 194.99 148.935 195.2 148.935C195.411 148.935 195.591 149.01 195.741 149.161C195.892 149.311 195.967 149.491 195.967 149.702C195.967 149.841 195.932 149.969 195.861 150.085C195.793 150.202 195.7 150.295 195.584 150.366C195.47 150.435 195.342 150.469 195.2 150.469Z" fill="black"/>
<path d="M109.623 88.0001V80.7273H114.183V81.6719H110.721V83.8878H113.945V84.8289H110.721V87.0555H114.225V88.0001H109.623ZM115.563 88.0001V82.5455H116.59V83.412H116.646C116.746 83.1184 116.921 82.8876 117.172 82.7195C117.425 82.5491 117.712 82.4638 118.031 82.4638C118.098 82.4638 118.176 82.4662 118.266 82.4709C118.358 82.4757 118.43 82.4816 118.482 82.4887V83.5043C118.44 83.4925 118.364 83.4795 118.255 83.4653C118.146 83.4487 118.037 83.4404 117.928 83.4404C117.677 83.4404 117.454 83.4937 117.257 83.6002C117.063 83.7044 116.909 83.85 116.796 84.037C116.682 84.2217 116.625 84.4324 116.625 84.6691V88.0001H115.563ZM119.401 88.0001V82.5455H120.428V83.412H120.484C120.584 83.1184 120.759 82.8876 121.01 82.7195C121.263 82.5491 121.55 82.4638 121.869 82.4638C121.936 82.4638 122.014 82.4662 122.104 82.4709C122.196 82.4757 122.268 82.4816 122.32 82.4887V83.5043C122.278 83.4925 122.202 83.4795 122.093 83.4653C121.984 83.4487 121.875 83.4404 121.766 83.4404C121.515 83.4404 121.292 83.4937 121.095 83.6002C120.901 83.7044 120.747 83.85 120.634 84.037C120.52 84.2217 120.463 84.4324 120.463 84.6691V88.0001H119.401ZM125.341 88.1101C124.83 88.1101 124.384 87.993 124.003 87.7586C123.622 87.5242 123.326 87.1963 123.115 86.7749C122.904 86.3535 122.799 85.8611 122.799 85.2976C122.799 84.7318 122.904 84.237 123.115 83.8133C123.326 83.3895 123.622 83.0604 124.003 82.8261C124.384 82.5917 124.83 82.4745 125.341 82.4745C125.853 82.4745 126.299 82.5917 126.68 82.8261C127.061 83.0604 127.357 83.3895 127.568 83.8133C127.779 84.237 127.884 84.7318 127.884 85.2976C127.884 85.8611 127.779 86.3535 127.568 86.7749C127.357 87.1963 127.061 87.5242 126.68 87.7586C126.299 87.993 125.853 88.1101 125.341 88.1101ZM125.345 87.2188C125.676 87.2188 125.951 87.1312 126.169 86.956C126.387 86.7808 126.548 86.5476 126.652 86.2565C126.758 85.9653 126.812 85.6445 126.812 85.2941C126.812 84.9461 126.758 84.6265 126.652 84.3353C126.548 84.0417 126.387 83.8062 126.169 83.6286C125.951 83.4511 125.676 83.3623 125.345 83.3623C125.011 83.3623 124.734 83.4511 124.514 83.6286C124.296 83.8062 124.134 84.0417 124.028 84.3353C123.923 84.6265 123.871 84.9461 123.871 85.2941C123.871 85.6445 123.923 85.9653 124.028 86.2565C124.134 86.5476 124.296 86.7808 124.514 86.956C124.734 87.1312 125.011 87.2188 125.345 87.2188ZM131.549 86.5796V85.6918L134.692 80.7273H135.391V82.0342H134.947L132.699 85.5924V85.6492H137.007V86.5796H131.549ZM134.997 88.0001V86.3097L135.004 85.9049V80.7273H136.045V88.0001H134.997ZM140.776 88.1208C140.215 88.1184 139.736 87.9705 139.338 87.6769C138.941 87.3833 138.636 86.956 138.426 86.3949C138.215 85.8339 138.11 85.158 138.11 84.3672C138.11 83.5789 138.215 82.9054 138.426 82.3467C138.639 81.7879 138.944 81.3618 139.342 81.0682C139.742 80.7747 140.22 80.6279 140.776 80.6279C141.333 80.6279 141.81 80.7759 142.208 81.0718C142.605 81.3654 142.91 81.7915 143.12 82.3502C143.333 82.9065 143.44 83.5789 143.44 84.3672C143.44 85.1603 143.334 85.8374 143.124 86.3985C142.913 86.9572 142.609 87.3845 142.211 87.6805C141.813 87.974 141.335 88.1208 140.776 88.1208ZM140.776 87.1726C141.269 87.1726 141.654 86.9324 141.931 86.4518C142.21 85.9712 142.35 85.2763 142.35 84.3672C142.35 83.7636 142.286 83.2534 142.158 82.8367C142.032 82.4177 141.851 82.1004 141.615 81.885C141.38 81.6672 141.101 81.5583 140.776 81.5583C140.286 81.5583 139.902 81.7998 139.622 82.2827C139.343 82.7657 139.202 83.4605 139.2 84.3672C139.2 84.9733 139.262 85.4859 139.388 85.9049C139.516 86.3216 139.697 86.6376 139.931 86.853C140.166 87.0661 140.447 87.1726 140.776 87.1726Z" fill="white"/>
<path d="M265.985 88.0001V80.7273H270.544V81.6719H267.082V83.8878H270.306V84.8289H267.082V87.0555H270.587V88.0001H265.985ZM271.925 88.0001V82.5455H272.951V83.412H273.008C273.107 83.1184 273.282 82.8876 273.533 82.7195C273.787 82.5491 274.073 82.4638 274.393 82.4638C274.459 82.4638 274.537 82.4662 274.627 82.4709C274.719 82.4757 274.792 82.4816 274.844 82.4887V83.5043C274.801 83.4925 274.725 83.4795 274.616 83.4653C274.508 83.4487 274.399 83.4404 274.29 83.4404C274.039 83.4404 273.815 83.4937 273.619 83.6002C273.424 83.7044 273.271 83.85 273.157 84.037C273.043 84.2217 272.987 84.4324 272.987 84.6691V88.0001H271.925ZM275.763 88.0001V82.5455H276.789V83.412H276.846C276.945 83.1184 277.12 82.8876 277.371 82.7195C277.625 82.5491 277.911 82.4638 278.231 82.4638C278.297 82.4638 278.375 82.4662 278.465 82.4709C278.557 82.4757 278.63 82.4816 278.682 82.4887V83.5043C278.639 83.4925 278.563 83.4795 278.454 83.4653C278.345 83.4487 278.237 83.4404 278.128 83.4404C277.877 83.4404 277.653 83.4937 277.456 83.6002C277.262 83.7044 277.108 83.85 276.995 84.037C276.881 84.2217 276.824 84.4324 276.824 84.6691V88.0001H275.763ZM281.703 88.1101C281.191 88.1101 280.745 87.993 280.364 87.7586C279.983 87.5242 279.687 87.1963 279.476 86.7749C279.266 86.3535 279.16 85.8611 279.16 85.2976C279.16 84.7318 279.266 84.237 279.476 83.8133C279.687 83.3895 279.983 83.0604 280.364 82.8261C280.745 82.5917 281.191 82.4745 281.703 82.4745C282.214 82.4745 282.66 82.5917 283.042 82.8261C283.423 83.0604 283.719 83.3895 283.929 83.8133C284.14 84.237 284.245 84.7318 284.245 85.2976C284.245 85.8611 284.14 86.3535 283.929 86.7749C283.719 87.1963 283.423 87.5242 283.042 87.7586C282.66 87.993 282.214 88.1101 281.703 88.1101ZM281.706 87.2188C282.038 87.2188 282.312 87.1312 282.53 86.956C282.748 86.7808 282.909 86.5476 283.013 86.2565C283.12 85.9653 283.173 85.6445 283.173 85.2941C283.173 84.9461 283.12 84.6265 283.013 84.3353C282.909 84.0417 282.748 83.8062 282.53 83.6286C282.312 83.4511 282.038 83.3623 281.706 83.3623C281.373 83.3623 281.096 83.4511 280.875 83.6286C280.658 83.8062 280.495 84.0417 280.389 84.3353C280.285 84.6265 280.233 84.9461 280.233 85.2941C280.233 85.6445 280.285 85.9653 280.389 86.2565C280.495 86.5476 280.658 86.7808 280.875 86.956C281.096 87.1312 281.373 87.2188 281.706 87.2188ZM290.822 80.7273V88.0001H289.721V81.8282H289.679L287.939 82.9645V81.9134L289.753 80.7273H290.822ZM295.321 88.1208C294.76 88.1184 294.281 87.9705 293.883 87.6769C293.485 87.3833 293.181 86.956 292.971 86.3949C292.76 85.8339 292.654 85.158 292.654 84.3672C292.654 83.5789 292.76 82.9054 292.971 82.3467C293.184 81.7879 293.489 81.3618 293.887 81.0682C294.287 80.7747 294.765 80.6279 295.321 80.6279C295.878 80.6279 296.355 80.7759 296.752 81.0718C297.15 81.3654 297.454 81.7915 297.665 82.3502C297.878 82.9065 297.985 83.5789 297.985 84.3672C297.985 85.1603 297.879 85.8374 297.669 86.3985C297.458 86.9572 297.154 87.3845 296.756 87.6805C296.358 87.974 295.88 88.1208 295.321 88.1208ZM295.321 87.1726C295.814 87.1726 296.199 86.9324 296.475 86.4518C296.755 85.9712 296.895 85.2763 296.895 84.3672C296.895 83.7636 296.831 83.2534 296.703 82.8367C296.577 82.4177 296.396 82.1004 296.159 81.885C295.925 81.6672 295.646 81.5583 295.321 81.5583C294.831 81.5583 294.447 81.7998 294.167 82.2827C293.888 82.7657 293.747 83.4605 293.745 84.3672C293.745 84.9733 293.807 85.4859 293.933 85.9049C294.061 86.3216 294.242 86.6376 294.476 86.853C294.711 87.0661 294.992 87.1726 295.321 87.1726ZM301.776 88.1208C301.215 88.1184 300.736 87.9705 300.338 87.6769C299.941 87.3833 299.636 86.956 299.426 86.3949C299.215 85.8339 299.11 85.158 299.11 84.3672C299.11 83.5789 299.215 82.9054 299.426 82.3467C299.639 81.7879 299.944 81.3618 300.342 81.0682C300.742 80.7747 301.22 80.6279 301.776 80.6279C302.333 80.6279 302.81 80.7759 303.208 81.0718C303.605 81.3654 303.91 81.7915 304.12 82.3502C304.333 82.9065 304.44 83.5789 304.44 84.3672C304.44 85.1603 304.334 85.8374 304.124 86.3985C303.913 86.9572 303.609 87.3845 303.211 87.6805C302.813 87.974 302.335 88.1208 301.776 88.1208ZM301.776 87.1726C302.269 87.1726 302.654 86.9324 302.931 86.4518C303.21 85.9712 303.35 85.2763 303.35 84.3672C303.35 83.7636 303.286 83.2534 303.158 82.8367C303.032 82.4177 302.851 82.1004 302.615 81.885C302.38 81.6672 302.101 81.5583 301.776 81.5583C301.286 81.5583 300.902 81.7998 300.622 82.2827C300.343 82.7657 300.202 83.4605 300.2 84.3672C300.2 84.9733 300.262 85.4859 300.388 85.9049C300.516 86.3216 300.697 86.6376 300.931 86.853C301.166 87.0661 301.447 87.1726 301.776 87.1726Z" fill="#9A1919"/>
</g>
<defs>
<clipPath id="clip0_18_598">
<rect width="311" height="175" fill="white"/>
</clipPath>
</defs>
</svg>
