<svg width="453" height="410" viewBox="0 0 453 410" fill="none" xmlns="http://www.w3.org/2000/svg">
<rect width="453" height="410" fill="white"/>
<mask id="mask0_60_3145" style="mask-type:alpha" maskUnits="userSpaceOnUse" x="274" y="63" width="20" height="20">
<rect x="274" y="63" width="20" height="20" fill="#D9D9D9"/>
</mask>
<g mask="url(#mask0_60_3145)">
<path d="M280.667 74.6667H287.333V74.2084C287.333 73.5972 287.028 73.1042 286.417 72.7292C285.805 72.3542 285 72.1667 284 72.1667C283 72.1667 282.194 72.3542 281.583 72.7292C280.972 73.1042 280.667 73.5972 280.667 74.2084V74.6667ZM284 71.3334C284.458 71.3334 284.851 71.17 285.177 70.8434C285.503 70.5172 285.667 70.125 285.667 69.6667C285.667 69.2084 285.503 68.8161 285.177 68.49C284.851 68.1634 284.458 68 284 68C283.542 68 283.149 68.1634 282.823 68.49C282.497 68.8161 282.333 69.2084 282.333 69.6667C282.333 70.125 282.497 70.5172 282.823 70.8434C283.149 71.17 283.542 71.3334 284 71.3334ZM275.667 81.3334V66.3334C275.667 65.875 275.83 65.4825 276.157 65.1559C276.483 64.8297 276.875 64.6667 277.333 64.6667H290.667C291.125 64.6667 291.517 64.8297 291.844 65.1559C292.17 65.4825 292.333 65.875 292.333 66.3334V76.3334C292.333 76.7917 292.17 77.1842 291.844 77.5109C291.517 77.837 291.125 78 290.667 78H279L275.667 81.3334ZM277.333 77.3125L278.312 76.3334H290.667V66.3334H277.333V77.3125Z" fill="#002A4E"/>
</g>
<mask id="mask1_60_3145" style="mask-type:alpha" maskUnits="userSpaceOnUse" x="78" y="36" width="16" height="16">
<rect x="78" y="36" width="16" height="16" fill="#D9D9D9"/>
</mask>
<g mask="url(#mask1_60_3145)">
<path d="M79.3335 48V46.6667H92.6668V48H79.3335ZM79.3335 44.6667V43.3333H92.6668V44.6667H79.3335ZM79.3335 41.3333V40H92.6668V41.3333H79.3335Z" fill="#002A4E"/>
</g>
<mask id="mask2_60_3145" style="mask-type:alpha" maskUnits="userSpaceOnUse" x="54" y="65" width="16" height="16">
<rect x="54" y="65" width="16" height="16" fill="#D9D9D9"/>
</mask>
<g mask="url(#mask2_60_3145)">
<path d="M59.3335 77C58.9668 77 58.6531 76.8695 58.3922 76.6086C58.1308 76.3473 58.0002 76.0333 58.0002 75.6666V67.6666C58.0002 67.3 58.1308 66.986 58.3922 66.7246C58.6531 66.4638 58.9668 66.3333 59.3335 66.3333H67.3335C67.7002 66.3333 68.0142 66.4638 68.2755 66.7246C68.5364 66.986 68.6668 67.3 68.6668 67.6666V75.6666C68.6668 76.0333 68.5364 76.3473 68.2755 76.6086C68.0142 76.8695 67.7002 77 67.3335 77H59.3335ZM59.3335 75.6666H67.3335V67.6666H59.3335V75.6666ZM56.6668 79.6666C56.3002 79.6666 55.9864 79.5362 55.7255 79.2753C55.4642 79.014 55.3335 78.7 55.3335 78.3333V69H56.6668V78.3333H66.0002V79.6666H56.6668Z" fill="#A7A7B0"/>
</g>
<mask id="mask3_60_3145" style="mask-type:alpha" maskUnits="userSpaceOnUse" x="210" y="34" width="20" height="20">
<rect x="210" y="34" width="20" height="20" fill="#D9D9D9"/>
</mask>
<g mask="url(#mask3_60_3145)">
<path d="M210 49V47.6875C210 47.0764 210.309 46.5867 210.928 46.2183C211.545 45.8506 212.347 45.6667 213.333 45.6667C213.514 45.6667 213.688 45.67 213.854 45.6767C214.021 45.6839 214.181 45.7014 214.333 45.7292C214.139 46.0069 213.993 46.3056 213.896 46.625C213.799 46.9444 213.75 47.2847 213.75 47.6458V49H210ZM215 49V47.6458C215 46.7431 215.462 46.0139 216.386 45.4583C217.309 44.9028 218.514 44.625 220 44.625C221.5 44.625 222.708 44.9028 223.625 45.4583C224.542 46.0139 225 46.7431 225 47.6458V49H215ZM226.25 49V47.6458C226.25 47.2847 226.205 46.9444 226.114 46.625C226.024 46.3056 225.889 46.0069 225.708 45.7292C225.861 45.7014 226.017 45.6839 226.177 45.6767C226.337 45.67 226.5 45.6667 226.667 45.6667C227.667 45.6667 228.472 45.8506 229.083 46.2183C229.694 46.5867 230 47.0764 230 47.6875V49H226.25ZM220 46.2917C219.208 46.2917 218.5 46.3958 217.875 46.6042C217.25 46.8125 216.882 47.0556 216.771 47.3333H223.25C223.125 47.0556 222.753 46.8125 222.135 46.6042C221.517 46.3958 220.806 46.2917 220 46.2917ZM213.333 44.8333C212.875 44.8333 212.483 44.67 212.157 44.3433C211.83 44.0172 211.667 43.625 211.667 43.1667C211.667 42.6944 211.83 42.2986 212.157 41.9792C212.483 41.6597 212.875 41.5 213.333 41.5C213.806 41.5 214.201 41.6597 214.521 41.9792C214.84 42.2986 215 42.6944 215 43.1667C215 43.625 214.84 44.0172 214.521 44.3433C214.201 44.67 213.806 44.8333 213.333 44.8333ZM226.667 44.8333C226.208 44.8333 225.816 44.67 225.489 44.3433C225.163 44.0172 225 43.625 225 43.1667C225 42.6944 225.163 42.2986 225.489 41.9792C225.816 41.6597 226.208 41.5 226.667 41.5C227.139 41.5 227.535 41.6597 227.854 41.9792C228.174 42.2986 228.333 42.6944 228.333 43.1667C228.333 43.625 228.174 44.0172 227.854 44.3433C227.535 44.67 227.139 44.8333 226.667 44.8333ZM220 44C219.306 44 218.715 43.7569 218.229 43.2708C217.743 42.7847 217.5 42.1944 217.5 41.5C217.5 40.7917 217.743 40.1978 218.229 39.7183C218.715 39.2394 219.306 39 220 39C220.708 39 221.302 39.2394 221.781 39.7183C222.26 40.1978 222.5 40.7917 222.5 41.5C222.5 42.1944 222.26 42.7847 221.781 43.2708C221.302 43.7569 220.708 44 220 44ZM220 40.6667C219.764 40.6667 219.566 40.7464 219.407 40.9058C219.247 41.0658 219.167 41.2639 219.167 41.5C219.167 41.7361 219.247 41.9339 219.407 42.0933C219.566 42.2533 219.764 42.3333 220 42.3333C220.236 42.3333 220.434 42.2533 220.594 42.0933C220.754 41.9339 220.833 41.7361 220.833 41.5C220.833 41.2639 220.754 41.0658 220.594 40.9058C220.434 40.7464 220.236 40.6667 220 40.6667Z" fill="#002A4E"/>
</g>
<mask id="mask4_60_3145" style="mask-type:alpha" maskUnits="userSpaceOnUse" x="182" y="34" width="20" height="20">
<rect x="182" y="34" width="20" height="20" fill="#D9D9D9"/>
</mask>
<g mask="url(#mask4_60_3145)">
<path d="M191.958 49C192.25 49 192.497 48.8992 192.698 48.6975C192.899 48.4964 193 48.25 193 47.9584C193 47.6667 192.899 47.4203 192.698 47.2192C192.497 47.0175 192.25 46.9167 191.958 46.9167C191.667 46.9167 191.42 47.0175 191.218 47.2192C191.017 47.4203 190.917 47.6667 190.917 47.9584C190.917 48.25 191.017 48.4964 191.218 48.6975C191.42 48.8992 191.667 49 191.958 49ZM191.208 45.7917H192.75C192.75 45.3334 192.802 44.9722 192.907 44.7084C193.01 44.4445 193.305 44.0834 193.792 43.625C194.153 43.2639 194.437 42.92 194.646 42.5934C194.854 42.2672 194.958 41.875 194.958 41.4167C194.958 40.6389 194.673 40.0417 194.104 39.625C193.535 39.2084 192.861 39 192.083 39C191.292 39 190.649 39.2084 190.157 39.625C189.663 40.0417 189.319 40.5417 189.125 41.125L190.5 41.6667C190.569 41.4167 190.726 41.1459 190.969 40.8542C191.212 40.5625 191.583 40.4167 192.083 40.4167C192.528 40.4167 192.861 40.5381 193.083 40.7809C193.305 41.0242 193.417 41.2917 193.417 41.5834C193.417 41.8611 193.333 42.1214 193.167 42.3642C193 42.6075 192.792 42.8334 192.542 43.0417C191.93 43.5834 191.555 43.9931 191.417 44.2709C191.278 44.5486 191.208 45.0556 191.208 45.7917ZM192 52.3334C190.847 52.3334 189.764 52.1145 188.75 51.6767C187.736 51.2395 186.854 50.6459 186.104 49.8959C185.354 49.1459 184.76 48.2639 184.323 47.25C183.885 46.2361 183.667 45.1528 183.667 44C183.667 42.8472 183.885 41.7639 184.323 40.75C184.76 39.7361 185.354 38.8542 186.104 38.1042C186.854 37.3542 187.736 36.7603 188.75 36.3225C189.764 35.8853 190.847 35.6667 192 35.6667C193.153 35.6667 194.236 35.8853 195.25 36.3225C196.264 36.7603 197.146 37.3542 197.896 38.1042C198.646 38.8542 199.239 39.7361 199.677 40.75C200.114 41.7639 200.333 42.8472 200.333 44C200.333 45.1528 200.114 46.2361 199.677 47.25C199.239 48.2639 198.646 49.1459 197.896 49.8959C197.146 50.6459 196.264 51.2395 195.25 51.6767C194.236 52.1145 193.153 52.3334 192 52.3334ZM192 50.6667C193.861 50.6667 195.437 50.0209 196.729 48.7292C198.021 47.4375 198.667 45.8611 198.667 44C198.667 42.1389 198.021 40.5625 196.729 39.2709C195.437 37.9792 193.861 37.3334 192 37.3334C190.139 37.3334 188.562 37.9792 187.271 39.2709C185.979 40.5625 185.333 42.1389 185.333 44C185.333 45.8611 185.979 47.4375 187.271 48.7292C188.562 50.0209 190.139 50.6667 192 50.6667Z" fill="#002A4E"/>
</g>
<mask id="mask5_60_3145" style="mask-type:alpha" maskUnits="userSpaceOnUse" x="198" y="65" width="16" height="16">
<rect x="198" y="65" width="16" height="16" fill="#D9D9D9"/>
</mask>
<g mask="url(#mask5_60_3145)">
<path d="M204.267 77L203.333 76.0667L206.4 73L203.333 69.9333L204.267 69L208.267 73L204.267 77Z" fill="#002A4E"/>
</g>
<mask id="mask6_60_3145" style="mask-type:alpha" maskUnits="userSpaceOnUse" x="358" y="63" width="20" height="20">
<rect x="358" y="63" width="20" height="20" fill="#D9D9D9"/>
</mask>
<g mask="url(#mask6_60_3145)">
<path d="M360.833 78L359.667 76.8333L364.083 72.4167C364.569 71.9306 365.16 71.6875 365.854 71.6875C366.548 71.6875 367.139 71.9306 367.625 72.4167L368.583 73.375C368.75 73.5417 368.948 73.625 369.177 73.625C369.406 73.625 369.604 73.5417 369.771 73.375L373.479 69.6667H371.333V68H376.333V73H374.667V70.8542L370.937 74.5625C370.451 75.0486 369.861 75.2917 369.167 75.2917C368.472 75.2917 367.882 75.0486 367.396 74.5625L366.417 73.5833C366.264 73.4306 366.069 73.3542 365.833 73.3542C365.597 73.3542 365.403 73.4306 365.25 73.5833L360.833 78Z" fill="#002A4E"/>
</g>
<mask id="mask7_60_3145" style="mask-type:alpha" maskUnits="userSpaceOnUse" x="54" y="36" width="16" height="16">
<rect x="54" y="36" width="16" height="16" fill="#D9D9D9"/>
</mask>
<g mask="url(#mask7_60_3145)">
<path d="M56.6665 48.6666V47.3333H57.9998V42.6666C57.9998 41.7444 58.2776 40.9249 58.8332 40.208C59.3887 39.4915 60.1109 39.0222 60.9998 38.8V38.3333C60.9998 38.0555 61.0972 37.8195 61.2918 37.6253C61.4861 37.4306 61.7221 37.3333 61.9998 37.3333C62.2776 37.3333 62.5136 37.4306 62.7078 37.6253C62.9025 37.8195 62.9998 38.0555 62.9998 38.3333V38.8C63.8887 39.0222 64.6109 39.4915 65.1665 40.208C65.7221 40.9249 65.9998 41.7444 65.9998 42.6666V47.3333H67.3332V48.6666H56.6665ZM61.9998 50.6666C61.6332 50.6666 61.3194 50.5362 61.0585 50.2753C60.7972 50.014 60.6665 49.7 60.6665 49.3333H63.3332C63.3332 49.7 63.2027 50.014 62.9418 50.2753C62.6805 50.5362 62.3665 50.6666 61.9998 50.6666ZM59.3332 47.3333H64.6665V42.6666C64.6665 41.9333 64.4054 41.3055 63.8832 40.7833C63.3609 40.2611 62.7332 40 61.9998 40C61.2665 40 60.6387 40.2611 60.1165 40.7833C59.5943 41.3055 59.3332 41.9333 59.3332 42.6666V47.3333Z" fill="#002A4E"/>
</g>
<mask id="mask8_60_3145" style="mask-type:alpha" maskUnits="userSpaceOnUse" x="150" y="65" width="16" height="16">
<rect x="150" y="65" width="16" height="16" fill="#D9D9D9"/>
</mask>
<g mask="url(#mask8_60_3145)">
<path d="M163.067 79L158.867 74.8C158.533 75.0667 158.15 75.2778 157.717 75.4333C157.283 75.5889 156.822 75.6667 156.333 75.6667C155.122 75.6667 154.097 75.2473 153.259 74.4087C152.42 73.5696 152 72.5444 152 71.3333C152 70.1222 152.42 69.0971 153.259 68.258C154.097 67.4193 155.122 67 156.333 67C157.544 67 158.57 67.4193 159.409 68.258C160.247 69.0971 160.667 70.1222 160.667 71.3333C160.667 71.8222 160.589 72.2833 160.433 72.7167C160.278 73.15 160.067 73.5333 159.8 73.8667L164 78.0667L163.067 79ZM156.333 74.3333C157.167 74.3333 157.875 74.0418 158.459 73.4587C159.042 72.8751 159.333 72.1667 159.333 71.3333C159.333 70.5 159.042 69.7916 158.459 69.208C157.875 68.6249 157.167 68.3333 156.333 68.3333C155.5 68.3333 154.792 68.6249 154.208 69.208C153.625 69.7916 153.333 70.5 153.333 71.3333C153.333 72.1667 153.625 72.8751 154.208 73.4587C154.792 74.0418 155.5 74.3333 156.333 74.3333Z" fill="#002A4E"/>
</g>
<mask id="mask9_60_3145" style="mask-type:alpha" maskUnits="userSpaceOnUse" x="174" y="65" width="16" height="16">
<rect x="190" y="65" width="16" height="16" transform="rotate(90 190 65)" fill="#D9D9D9"/>
</mask>
<g mask="url(#mask9_60_3145)">
<path d="M176.667 69.6666L180 66.3333L183.333 69.6666L182.383 70.6L180.667 68.8833L180.667 73.6666L179.333 73.6666L179.333 68.8833L177.617 70.6L176.667 69.6666ZM180.667 76.3333L181.617 75.4L183.333 77.1166L183.333 72.3333L184.667 72.3333L184.667 77.1166L186.383 75.4L187.333 76.3333L184 79.6666L180.667 76.3333Z" fill="#002A4E"/>
</g>
<mask id="mask10_60_3145" style="mask-type:alpha" maskUnits="userSpaceOnUse" x="246" y="63" width="20" height="20">
<rect x="246" y="63" width="20" height="20" fill="#D9D9D9"/>
</mask>
<g mask="url(#mask10_60_3145)">
<path d="M246.833 65.5H265.167L256 81.3333L246.833 65.5ZM249.729 67.1667L251.167 69.6667H260.833L262.271 67.1667H249.729ZM252.146 71.3333L253.583 73.8333H258.417L259.854 71.3333H252.146ZM254.563 75.5L256 78L257.438 75.5H254.563Z" fill="#002A4E"/>
</g>
<mask id="mask11_60_3145" style="mask-type:alpha" maskUnits="userSpaceOnUse" x="386" y="63" width="20" height="20">
<rect x="386" y="63" width="20" height="20" fill="#D9D9D9"/>
</mask>
<g mask="url(#mask11_60_3145)">
<path d="M399.333 78V76.3333H401.5L397.167 72.0417L393.833 75.375L387.667 69.1667L388.833 68L393.833 73L397.167 69.6667L402.667 75.1667V73H404.333V78H399.333Z" fill="#002A4E"/>
</g>
<mask id="mask12_60_3145" style="mask-type:alpha" maskUnits="userSpaceOnUse" x="26" y="34" width="20" height="20">
<rect x="26" y="34" width="20" height="20" fill="#D9D9D9"/>
</mask>
<g mask="url(#mask12_60_3145)">
<path d="M29.3332 51.5C28.8748 51.5 28.4826 51.337 28.1565 51.0109C27.8298 50.6842 27.6665 50.2917 27.6665 49.8334V40.6667C27.6665 40.2084 27.8298 39.8161 28.1565 39.49C28.4826 39.1634 28.8748 39 29.3332 39H32.6665V37.3334C32.6665 36.875 32.8298 36.4825 33.1565 36.1559C33.4826 35.8297 33.8748 35.6667 34.3332 35.6667H37.6665C38.1248 35.6667 38.5173 35.8297 38.844 36.1559C39.1701 36.4825 39.3332 36.875 39.3332 37.3334V39H42.6665C43.1248 39 43.5173 39.1634 43.844 39.49C44.1701 39.8161 44.3332 40.2084 44.3332 40.6667V49.8334C44.3332 50.2917 44.1701 50.6842 43.844 51.0109C43.5173 51.337 43.1248 51.5 42.6665 51.5H29.3332ZM29.3332 49.8334H42.6665V40.6667H29.3332V49.8334ZM34.3332 39H37.6665V37.3334H34.3332V39Z" fill="#002A4E"/>
</g>
<mask id="mask13_60_3145" style="mask-type:alpha" maskUnits="userSpaceOnUse" x="102" y="65" width="16" height="16">
<rect x="102" y="65" width="16" height="16" fill="#D9D9D9"/>
</mask>
<g mask="url(#mask13_60_3145)">
<path d="M102.667 79L110 66.3333L117.333 79H102.667ZM104.967 77.6666H115.033L110 69L104.967 77.6666ZM110 77C110.189 77 110.347 76.936 110.475 76.808C110.603 76.6804 110.667 76.5222 110.667 76.3333C110.667 76.1444 110.603 75.9862 110.475 75.8586C110.347 75.7306 110.189 75.6666 110 75.6666C109.811 75.6666 109.653 75.7306 109.525 75.8586C109.397 75.9862 109.333 76.1444 109.333 76.3333C109.333 76.5222 109.397 76.6804 109.525 76.808C109.653 76.936 109.811 77 110 77ZM109.333 75H110.667V71.6666H109.333V75Z" fill="#002A4E"/>
</g>
<mask id="mask14_60_3145" style="mask-type:alpha" maskUnits="userSpaceOnUse" x="154" y="34" width="20" height="20">
<rect x="154" y="34" width="20" height="20" fill="#D9D9D9"/>
</mask>
<g mask="url(#mask14_60_3145)">
<path d="M161.375 48.8542L164 47.2708L166.625 48.875L165.937 45.875L168.25 43.875L165.208 43.6042L164 40.7708L162.792 43.5833L159.75 43.8542L162.062 45.875L161.375 48.8542ZM158.854 52.3333L160.208 46.4792L155.667 42.5417L161.667 42.0208L164 36.5L166.333 42.0208L172.333 42.5417L167.792 46.4792L169.146 52.3333L164 49.2292L158.854 52.3333Z" fill="#002A4E"/>
</g>
<mask id="mask15_60_3145" style="mask-type:alpha" maskUnits="userSpaceOnUse" x="330" y="63" width="20" height="20">
<rect x="330" y="63" width="20" height="20" fill="#D9D9D9"/>
</mask>
<g mask="url(#mask15_60_3145)">
<path d="M332.5 80.5V65.5H347.5V80.5H332.5ZM334.167 74.6667L337.917 70.8958L341.25 74.2292L345.833 69.0833V67.1667H334.167V74.6667ZM334.167 78.8333H345.833V71.5833L341.25 76.7292L337.917 73.3958L334.167 77.1667V78.8333Z" fill="#002A4E"/>
</g>
<mask id="mask16_60_3145" style="mask-type:alpha" maskUnits="userSpaceOnUse" x="302" y="63" width="20" height="20">
<rect x="302" y="63" width="20" height="20" fill="#D9D9D9"/>
</mask>
<g mask="url(#mask16_60_3145)">
<path d="M312 81.3334C310.847 81.3334 309.764 81.1145 308.75 80.6767C307.736 80.2395 306.854 79.6459 306.104 78.8959C305.354 78.1459 304.76 77.2639 304.323 76.25C303.885 75.2361 303.667 74.1528 303.667 73C303.667 71.8472 303.885 70.7639 304.323 69.75C304.76 68.7361 305.354 67.8542 306.104 67.1042C306.854 66.3542 307.736 65.7603 308.75 65.3225C309.764 64.8853 310.847 64.6667 312 64.6667C313.153 64.6667 314.236 64.8853 315.25 65.3225C316.264 65.7603 317.146 66.3542 317.896 67.1042C318.646 67.8542 319.239 68.7361 319.677 69.75C320.114 70.7639 320.333 71.8472 320.333 73C320.333 74.1528 320.114 75.2361 319.677 76.25C319.239 77.2639 318.646 78.1459 317.896 78.8959C317.146 79.6459 316.264 80.2395 315.25 80.6767C314.236 81.1145 313.153 81.3334 312 81.3334ZM311.167 79.625V78C310.708 78 310.316 77.837 309.99 77.5109C309.663 77.1842 309.5 76.7917 309.5 76.3334V75.5L305.5 71.5C305.458 71.75 305.42 72 305.385 72.25C305.35 72.5 305.333 72.75 305.333 73C305.333 74.6806 305.885 76.1528 306.99 77.4167C308.094 78.6806 309.486 79.4167 311.167 79.625ZM316.917 77.5C317.194 77.1945 317.444 76.8645 317.667 76.51C317.889 76.1561 318.073 75.7881 318.219 75.4059C318.365 75.0242 318.476 74.632 318.552 74.2292C318.628 73.8264 318.667 73.4167 318.667 73C318.667 71.6389 318.288 70.3959 317.532 69.2709C316.774 68.1459 315.764 67.3334 314.5 66.8334V67.1667C314.5 67.625 314.337 68.0172 314.011 68.3434C313.684 68.67 313.292 68.8334 312.833 68.8334H311.167V70.5C311.167 70.7361 311.087 70.9339 310.927 71.0934C310.767 71.2534 310.569 71.3334 310.333 71.3334H308.667V73H313.667C313.903 73 314.101 73.0797 314.261 73.2392C314.42 73.3992 314.5 73.5972 314.5 73.8334V76.3334H315.333C315.694 76.3334 316.021 76.4409 316.312 76.6559C316.604 76.8714 316.805 77.1528 316.917 77.5Z" fill="#002A4E"/>
</g>
<mask id="mask17_60_3145" style="mask-type:alpha" maskUnits="userSpaceOnUse" x="78" y="65" width="16" height="16">
<rect x="78" y="65" width="16" height="16" fill="#D9D9D9"/>
</mask>
<g mask="url(#mask17_60_3145)">
<path d="M85.9998 79C85.6332 79 85.3194 78.8696 85.0585 78.6087C84.7972 78.3473 84.6665 78.0333 84.6665 77.6667C84.6665 77.3 84.7972 76.986 85.0585 76.7247C85.3194 76.4638 85.6332 76.3333 85.9998 76.3333C86.3665 76.3333 86.6805 76.4638 86.9418 76.7247C87.2027 76.986 87.3332 77.3 87.3332 77.6667C87.3332 78.0333 87.2027 78.3473 86.9418 78.6087C86.6805 78.8696 86.3665 79 85.9998 79ZM84.6665 75V67H87.3332V75H84.6665Z" fill="#002A4E"/>
</g>
<mask id="mask18_60_3145" style="mask-type:alpha" maskUnits="userSpaceOnUse" x="126" y="34" width="20" height="20">
<rect x="126" y="34" width="20" height="20" fill="#D9D9D9"/>
</mask>
<g mask="url(#mask18_60_3145)">
<path d="M129.333 48.1667V49.8334H142.667V48.1667H129.333ZM131.833 39V37.3334C131.833 36.875 131.997 36.4825 132.323 36.1559C132.649 35.8297 133.042 35.6667 133.5 35.6667H138.5C138.958 35.6667 139.351 35.8297 139.677 36.1559C140.003 36.4825 140.167 36.875 140.167 37.3334V39H142.667C143.125 39 143.517 39.1634 143.844 39.49C144.17 39.8161 144.333 40.2084 144.333 40.6667V49.8334C144.333 50.2917 144.17 50.6842 143.844 51.0109C143.517 51.337 143.125 51.5 142.667 51.5H129.333C128.875 51.5 128.483 51.337 128.157 51.0109C127.83 50.6842 127.667 50.2917 127.667 49.8334V40.6667C127.667 40.2084 127.83 39.8161 128.157 39.49C128.483 39.1634 128.875 39 129.333 39H131.833ZM129.333 45.6667H142.667V40.6667H140.167V42.3334H138.5V40.6667H133.5V42.3334H131.833V40.6667H129.333V45.6667ZM133.5 39H138.5V37.3334H133.5V39Z" fill="#002A4E"/>
</g>
<mask id="mask19_60_3145" style="mask-type:alpha" maskUnits="userSpaceOnUse" x="102" y="36" width="16" height="16">
<rect x="102" y="36" width="16" height="16" fill="#D9D9D9"/>
</mask>
<g mask="url(#mask19_60_3145)">
<path d="M105.333 51.8C104.967 51.8 104.653 51.6693 104.391 51.408C104.13 51.1471 104 50.8333 104 50.4666V41.1333C104 40.7666 104.13 40.4526 104.391 40.1913C104.653 39.9304 104.967 39.8 105.333 39.8H111.283L109.95 41.1333H105.333V50.4666H114.667V45.8333L116 44.5V50.4666C116 50.8333 115.87 51.1471 115.609 51.408C115.347 51.6693 115.033 51.8 114.667 51.8H105.333ZM112.783 40.1833L113.733 41.1166L109.333 45.5166V46.4666H110.267L114.683 42.05L115.633 42.9833L110.833 47.8H108V44.9666L112.783 40.1833ZM115.633 42.9833L112.783 40.1833L114.45 38.5166C114.717 38.25 115.036 38.1166 115.409 38.1166C115.781 38.1166 116.094 38.25 116.35 38.5166L117.283 39.4666C117.539 39.7222 117.667 40.0333 117.667 40.4C117.667 40.7666 117.539 41.0777 117.283 41.3333L115.633 42.9833Z" fill="#002A4E"/>
</g>
<mask id="mask20_60_3145" style="mask-type:alpha" maskUnits="userSpaceOnUse" x="26" y="63" width="20" height="20">
<rect x="26" y="63" width="20" height="20" fill="#D9D9D9"/>
</mask>
<g mask="url(#mask20_60_3145)">
<path d="M29.3335 79.6666V70.5H32.6668V79.6666H29.3335ZM34.3335 79.6666V66.3333H37.6668V79.6666H34.3335ZM39.3335 79.6666V73.8333H42.6668V79.6666H39.3335Z" fill="#002A4E"/>
</g>
<mask id="mask21_60_3145" style="mask-type:alpha" maskUnits="userSpaceOnUse" x="126" y="65" width="16" height="16">
<rect x="126" y="65" width="16" height="16" fill="#D9D9D9"/>
</mask>
<g mask="url(#mask21_60_3145)">
<path d="M133.333 76.3333H134.667V72.3333H133.333V76.3333ZM134 71C134.189 71 134.347 70.936 134.475 70.808C134.603 70.6804 134.667 70.5222 134.667 70.3333C134.667 70.1444 134.603 69.986 134.475 69.858C134.347 69.7304 134.189 69.6666 134 69.6666C133.811 69.6666 133.653 69.7304 133.525 69.858C133.397 69.986 133.333 70.1444 133.333 70.3333C133.333 70.5222 133.397 70.6804 133.525 70.808C133.653 70.936 133.811 71 134 71ZM134 79.6666C133.078 79.6666 132.211 79.4915 131.4 79.1413C130.589 78.7915 129.883 78.3166 129.283 77.7166C128.683 77.1166 128.209 76.4111 127.859 75.6C127.509 74.7889 127.333 73.9222 127.333 73C127.333 72.0778 127.509 71.2111 127.859 70.4C128.209 69.5889 128.683 68.8833 129.283 68.2833C129.883 67.6833 130.589 67.2082 131.4 66.858C132.211 66.5082 133.078 66.3333 134 66.3333C134.922 66.3333 135.789 66.5082 136.6 66.858C137.411 67.2082 138.117 67.6833 138.717 68.2833C139.317 68.8833 139.792 69.5889 140.141 70.4C140.492 71.2111 140.667 72.0778 140.667 73C140.667 73.9222 140.492 74.7889 140.141 75.6C139.792 76.4111 139.317 77.1166 138.717 77.7166C138.117 78.3166 137.411 78.7915 136.6 79.1413C135.789 79.4915 134.922 79.6666 134 79.6666ZM134 78.3333C135.489 78.3333 136.75 77.8166 137.783 76.7833C138.817 75.75 139.333 74.4889 139.333 73C139.333 71.5111 138.817 70.25 137.783 69.2166C136.75 68.1833 135.489 67.6666 134 67.6666C132.511 67.6666 131.25 68.1833 130.217 69.2166C129.183 70.25 128.667 71.5111 128.667 73C128.667 74.4889 129.183 75.75 130.217 76.7833C131.25 77.8166 132.511 78.3333 134 78.3333Z" fill="#A1A2B8"/>
</g>
<mask id="mask22_60_3145" style="mask-type:alpha" maskUnits="userSpaceOnUse" x="266" y="34" width="20" height="20">
<rect x="266" y="34" width="20" height="20" fill="#D9D9D9"/>
</mask>
<g mask="url(#mask22_60_3145)">
<path d="M276 49C275.222 49 274.479 49.1217 273.771 49.365C273.062 49.6078 272.417 49.9722 271.833 50.4584V50.6667H280.167V50.4584C279.583 49.9722 278.938 49.6078 278.229 49.365C277.521 49.1217 276.778 49 276 49ZM270.167 49.7084C270.917 48.9722 271.788 48.3922 272.782 47.9684C273.774 47.545 274.847 47.3334 276 47.3334C277.153 47.3334 278.226 47.545 279.219 47.9684C280.212 48.3922 281.083 48.9722 281.833 49.7084V39H270.167V49.7084ZM276 45.6667C275.194 45.6667 274.507 45.382 273.937 44.8125C273.368 44.2431 273.083 43.5556 273.083 42.75C273.083 41.9445 273.368 41.257 273.937 40.6875C274.507 40.1181 275.194 39.8334 276 39.8334C276.806 39.8334 277.493 40.1181 278.062 40.6875C278.632 41.257 278.917 41.9445 278.917 42.75C278.917 43.5556 278.632 44.2431 278.062 44.8125C277.493 45.382 276.806 45.6667 276 45.6667ZM276 44C276.347 44 276.642 43.8784 276.885 43.635C277.128 43.3922 277.25 43.0972 277.25 42.75C277.25 42.4028 277.128 42.1078 276.885 41.865C276.642 41.6217 276.347 41.5 276 41.5C275.653 41.5 275.358 41.6217 275.115 41.865C274.872 42.1078 274.75 42.4028 274.75 42.75C274.75 43.0972 274.872 43.3922 275.115 43.635C275.358 43.8784 275.653 44 276 44ZM270.167 52.3334C269.708 52.3334 269.316 52.1703 268.989 51.8442C268.663 51.5175 268.5 51.125 268.5 50.6667V39C268.5 38.5417 268.663 38.1495 268.989 37.8234C269.316 37.4967 269.708 37.3334 270.167 37.3334H271V35.6667H272.667V37.3334H279.333V35.6667H281V37.3334H281.833C282.292 37.3334 282.684 37.4967 283.011 37.8234C283.337 38.1495 283.5 38.5417 283.5 39V50.6667C283.5 51.125 283.337 51.5175 283.011 51.8442C282.684 52.1703 282.292 52.3334 281.833 52.3334H270.167Z" fill="#002A4E"/>
</g>
<mask id="mask23_60_3145" style="mask-type:alpha" maskUnits="userSpaceOnUse" x="238" y="34" width="20" height="20">
<rect x="238" y="34" width="20" height="20" fill="#D9D9D9"/>
</mask>
<g mask="url(#mask23_60_3145)">
<path d="M248 49C247.222 49 246.479 49.1217 245.771 49.365C245.062 49.6078 244.417 49.9722 243.833 50.4584V50.6667H252.167V50.4584C251.583 49.9722 250.938 49.6078 250.229 49.365C249.521 49.1217 248.778 49 248 49ZM242.167 49.7084C242.917 48.9722 243.788 48.3922 244.782 47.9684C245.774 47.545 246.847 47.3334 248 47.3334C249.153 47.3334 250.226 47.545 251.219 47.9684C252.212 48.3922 253.083 48.9722 253.833 49.7084V39H242.167V49.7084ZM248 45.6667C247.194 45.6667 246.507 45.382 245.937 44.8125C245.368 44.2431 245.083 43.5556 245.083 42.75C245.083 41.9445 245.368 41.257 245.937 40.6875C246.507 40.1181 247.194 39.8334 248 39.8334C248.806 39.8334 249.493 40.1181 250.062 40.6875C250.632 41.257 250.917 41.9445 250.917 42.75C250.917 43.5556 250.632 44.2431 250.062 44.8125C249.493 45.382 248.806 45.6667 248 45.6667ZM248 44C248.347 44 248.642 43.8784 248.885 43.635C249.128 43.3922 249.25 43.0972 249.25 42.75C249.25 42.4028 249.128 42.1078 248.885 41.865C248.642 41.6217 248.347 41.5 248 41.5C247.653 41.5 247.358 41.6217 247.115 41.865C246.872 42.1078 246.75 42.4028 246.75 42.75C246.75 43.0972 246.872 43.3922 247.115 43.635C247.358 43.8784 247.653 44 248 44ZM242.167 52.3334C241.708 52.3334 241.316 52.1703 240.989 51.8442C240.663 51.5175 240.5 51.125 240.5 50.6667V39C240.5 38.5417 240.663 38.1495 240.989 37.8234C241.316 37.4967 241.708 37.3334 242.167 37.3334H243V35.6667H244.667V37.3334H251.333V35.6667H253V37.3334H253.833C254.292 37.3334 254.684 37.4967 255.011 37.8234C255.337 38.1495 255.5 38.5417 255.5 39V50.6667C255.5 51.125 255.337 51.5175 255.011 51.8442C254.684 52.1703 254.292 52.3334 253.833 52.3334H242.167Z" fill="#002A4E"/>
</g>
<mask id="mask24_60_3145" style="mask-type:alpha" maskUnits="userSpaceOnUse" x="293" y="33" width="20" height="20">
<rect x="293" y="33" width="20" height="20" fill="#D9D9D9"/>
</mask>
<g mask="url(#mask24_60_3145)">
<path d="M297.167 51.3334C296.708 51.3334 296.316 51.1703 295.989 50.8442C295.663 50.5175 295.5 50.125 295.5 49.6667V38C295.5 37.5417 295.663 37.1495 295.989 36.8234C296.316 36.4967 296.708 36.3334 297.167 36.3334H298V34.6667H299.667V36.3334H306.333V34.6667H308V36.3334H308.833C309.292 36.3334 309.684 36.4967 310.011 36.8234C310.337 37.1495 310.5 37.5417 310.5 38V49.6667C310.5 50.125 310.337 50.5175 310.011 50.8442C309.684 51.1703 309.292 51.3334 308.833 51.3334H297.167ZM297.167 49.6667H308.833V41.3334H297.167V49.6667ZM297.167 39.6667H308.833V38H297.167V39.6667ZM298.833 44.6667V43H307.167V44.6667H298.833ZM298.833 48V46.3334H304.667V48H298.833Z" fill="#002A4E"/>
</g>
<mask id="mask25_60_3145" style="mask-type:alpha" maskUnits="userSpaceOnUse" x="317" y="33" width="20" height="20">
<rect x="317" y="33" width="20" height="20" fill="#D9D9D9"/>
</mask>
<g mask="url(#mask25_60_3145)">
<path d="M326.125 48.2917L323.167 45.3334L324.375 44.125L326.125 45.875L329.625 42.375L330.833 43.5834L326.125 48.2917ZM321.167 51.3334C320.708 51.3334 320.316 51.1703 319.989 50.8442C319.663 50.5175 319.5 50.125 319.5 49.6667V38C319.5 37.5417 319.663 37.1495 319.989 36.8234C320.316 36.4967 320.708 36.3334 321.167 36.3334H322V34.6667H323.667V36.3334H330.333V34.6667H332V36.3334H332.833C333.292 36.3334 333.684 36.4967 334.011 36.8234C334.337 37.1495 334.5 37.5417 334.5 38V49.6667C334.5 50.125 334.337 50.5175 334.011 50.8442C333.684 51.1703 333.292 51.3334 332.833 51.3334H321.167ZM321.167 49.6667H332.833V41.3334H321.167V49.6667ZM321.167 39.6667H332.833V38H321.167V39.6667Z" fill="#002A4E"/>
</g>
<mask id="mask26_60_3145" style="mask-type:alpha" maskUnits="userSpaceOnUse" x="341" y="33" width="20" height="20">
<rect x="341" y="33" width="20" height="20" fill="#D9D9D9"/>
</mask>
<g mask="url(#mask26_60_3145)">
<path d="M349.083 48.5834L347.917 47.4167L349.833 45.5L347.917 43.5834L349.083 42.4167L351 44.3334L352.917 42.4167L354.083 43.5834L352.167 45.5L354.083 47.4167L352.917 48.5834L351 46.6667L349.083 48.5834ZM345.167 51.3334C344.708 51.3334 344.316 51.1703 343.989 50.8442C343.663 50.5175 343.5 50.125 343.5 49.6667V38C343.5 37.5417 343.663 37.1495 343.989 36.8234C344.316 36.4967 344.708 36.3334 345.167 36.3334H346V34.6667H347.667V36.3334H354.333V34.6667H356V36.3334H356.833C357.292 36.3334 357.684 36.4967 358.011 36.8234C358.337 37.1495 358.5 37.5417 358.5 38V49.6667C358.5 50.125 358.337 50.5175 358.011 50.8442C357.684 51.1703 357.292 51.3334 356.833 51.3334H345.167ZM345.167 49.6667H356.833V41.3334H345.167V49.6667ZM345.167 39.6667H356.833V38H345.167V39.6667Z" fill="#002A4E"/>
</g>
<rect x="273.5" y="13.5" width="111" height="63" rx="4.5" stroke="white" stroke-dasharray="10 5"/>
<path d="M40 205C40 199.477 44.4772 195 50 195H126C131.523 195 136 199.477 136 205V216C136 221.523 131.523 226 126 226H50C44.4772 226 40 221.523 40 216V205Z" fill="#002A4E"/>
<path d="M55.3348 211.145H53.1609L53.1492 210.072H55.0477C55.368 210.072 55.6395 210.025 55.8621 209.932C56.0887 209.834 56.2605 209.695 56.3777 209.516C56.4949 209.332 56.5535 209.111 56.5535 208.854C56.5535 208.568 56.4988 208.336 56.3895 208.156C56.2801 207.977 56.1121 207.846 55.8855 207.764C55.6629 207.682 55.3777 207.641 55.0301 207.641H53.6063V215H52.1355V206.469H55.0301C55.4988 206.469 55.9168 206.514 56.284 206.604C56.6551 206.693 56.9695 206.834 57.2273 207.025C57.4891 207.213 57.6863 207.451 57.8191 207.74C57.9559 208.029 58.0242 208.373 58.0242 208.771C58.0242 209.123 57.9402 209.445 57.7723 209.738C57.6043 210.027 57.3563 210.264 57.0281 210.447C56.7 210.631 56.2918 210.74 55.8035 210.775L55.3348 211.145ZM55.2703 215H52.698L53.3602 213.834H55.2703C55.6023 213.834 55.8797 213.779 56.1023 213.67C56.325 213.557 56.491 213.402 56.6004 213.207C56.7137 213.008 56.7703 212.775 56.7703 212.51C56.7703 212.232 56.7215 211.992 56.6238 211.789C56.5262 211.582 56.3719 211.424 56.1609 211.314C55.95 211.201 55.6746 211.145 55.3348 211.145H53.6824L53.6941 210.072H55.8445L56.1785 210.477C56.6473 210.492 57.032 210.596 57.3328 210.787C57.6375 210.979 57.8641 211.227 58.0125 211.531C58.1609 211.836 58.2352 212.164 58.2352 212.516C58.2352 213.059 58.116 213.514 57.8777 213.881C57.6434 214.248 57.3055 214.527 56.8641 214.719C56.4227 214.906 55.8914 215 55.2703 215ZM59.4074 211.9V211.766C59.4074 211.309 59.4738 210.885 59.6066 210.494C59.7395 210.1 59.9309 209.758 60.1809 209.469C60.4348 209.176 60.7434 208.949 61.1066 208.789C61.4738 208.625 61.8879 208.543 62.3488 208.543C62.8137 208.543 63.2277 208.625 63.591 208.789C63.9582 208.949 64.2688 209.176 64.5227 209.469C64.7766 209.758 64.9699 210.1 65.1027 210.494C65.2355 210.885 65.302 211.309 65.302 211.766V211.9C65.302 212.357 65.2355 212.781 65.1027 213.172C64.9699 213.562 64.7766 213.904 64.5227 214.197C64.2688 214.486 63.9602 214.713 63.5969 214.877C63.2336 215.037 62.8215 215.117 62.3605 215.117C61.8957 215.117 61.4797 215.037 61.1125 214.877C60.7492 214.713 60.4406 214.486 60.1867 214.197C59.9328 213.904 59.7395 213.562 59.6066 213.172C59.4738 212.781 59.4074 212.357 59.4074 211.9ZM60.8195 211.766V211.9C60.8195 212.186 60.8488 212.455 60.9074 212.709C60.966 212.963 61.0578 213.186 61.1828 213.377C61.3078 213.568 61.468 213.719 61.6633 213.828C61.8586 213.938 62.091 213.992 62.3605 213.992C62.6223 213.992 62.8488 213.938 63.0402 213.828C63.2355 213.719 63.3957 213.568 63.5207 213.377C63.6457 213.186 63.7375 212.963 63.7961 212.709C63.8586 212.455 63.8898 212.186 63.8898 211.9V211.766C63.8898 211.484 63.8586 211.219 63.7961 210.969C63.7375 210.715 63.6438 210.49 63.5148 210.295C63.3898 210.1 63.2297 209.947 63.0344 209.838C62.843 209.725 62.6145 209.668 62.3488 209.668C62.0832 209.668 61.8527 209.725 61.6574 209.838C61.466 209.947 61.3078 210.1 61.1828 210.295C61.0578 210.49 60.966 210.715 60.9074 210.969C60.8488 211.219 60.8195 211.484 60.8195 211.766ZM69.4918 208.66V209.691H65.9176V208.66H69.4918ZM66.9488 207.107H68.3609V213.248C68.3609 213.443 68.3883 213.594 68.443 213.699C68.5016 213.801 68.5816 213.869 68.6832 213.904C68.7848 213.939 68.9039 213.957 69.0406 213.957C69.1383 213.957 69.232 213.951 69.3219 213.939C69.4117 213.928 69.484 213.916 69.5387 213.904L69.5445 214.982C69.4273 215.018 69.2906 215.049 69.1344 215.076C68.982 215.104 68.8063 215.117 68.607 215.117C68.2828 215.117 67.9957 215.061 67.7457 214.947C67.4957 214.83 67.3004 214.641 67.1598 214.379C67.0191 214.117 66.9488 213.77 66.9488 213.336V207.107ZM74.2559 213.729V210.705C74.2559 210.479 74.2148 210.283 74.1328 210.119C74.0508 209.955 73.9258 209.828 73.7578 209.738C73.5938 209.648 73.3867 209.604 73.1367 209.604C72.9062 209.604 72.707 209.643 72.5391 209.721C72.3711 209.799 72.2402 209.904 72.1465 210.037C72.0527 210.17 72.0059 210.32 72.0059 210.488H70.5996C70.5996 210.238 70.6602 209.996 70.7812 209.762C70.9023 209.527 71.0781 209.318 71.3086 209.135C71.5391 208.951 71.8145 208.807 72.1348 208.701C72.4551 208.596 72.8145 208.543 73.2129 208.543C73.6895 208.543 74.1113 208.623 74.4785 208.783C74.8496 208.943 75.1406 209.186 75.3516 209.51C75.5664 209.83 75.6738 210.232 75.6738 210.717V213.535C75.6738 213.824 75.6934 214.084 75.7324 214.314C75.7754 214.541 75.8359 214.738 75.9141 214.906V215H74.4668C74.4004 214.848 74.3477 214.654 74.3086 214.42C74.2734 214.182 74.2559 213.951 74.2559 213.729ZM74.4609 211.145L74.4727 212.018H73.459C73.1973 212.018 72.9668 212.043 72.7676 212.094C72.5684 212.141 72.4023 212.211 72.2695 212.305C72.1367 212.398 72.0371 212.512 71.9707 212.645C71.9043 212.777 71.8711 212.928 71.8711 213.096C71.8711 213.264 71.9102 213.418 71.9883 213.559C72.0664 213.695 72.1797 213.803 72.3281 213.881C72.4805 213.959 72.6641 213.998 72.8789 213.998C73.168 213.998 73.4199 213.939 73.6348 213.822C73.8535 213.701 74.0254 213.555 74.1504 213.383C74.2754 213.207 74.3418 213.041 74.3496 212.885L74.8066 213.512C74.7598 213.672 74.6797 213.844 74.5664 214.027C74.4531 214.211 74.3047 214.387 74.1211 214.555C73.9414 214.719 73.7246 214.854 73.4707 214.959C73.2207 215.064 72.9316 215.117 72.6035 215.117C72.1895 215.117 71.8203 215.035 71.4961 214.871C71.1719 214.703 70.918 214.479 70.7344 214.197C70.5508 213.912 70.459 213.59 70.459 213.23C70.459 212.895 70.5215 212.598 70.6465 212.34C70.7754 212.078 70.9629 211.859 71.209 211.684C71.459 211.508 71.7637 211.375 72.123 211.285C72.4824 211.191 72.8926 211.145 73.3535 211.145H74.4609ZM74.5488 206.07L75.4102 206.135C75.4102 206.42 75.3535 206.676 75.2402 206.902C75.127 207.125 74.9727 207.301 74.7773 207.43C74.582 207.559 74.3613 207.623 74.1152 207.623C73.9238 207.623 73.7617 207.596 73.6289 207.541C73.4961 207.486 73.375 207.424 73.2656 207.354C73.1562 207.283 73.043 207.223 72.9258 207.172C72.8125 207.117 72.6777 207.09 72.5215 207.09C72.373 207.09 72.2461 207.145 72.1406 207.254C72.0391 207.363 71.9883 207.51 71.9883 207.693L71.1211 207.646C71.1211 207.365 71.1777 207.111 71.291 206.885C71.4043 206.658 71.5586 206.479 71.7539 206.346C71.9492 206.213 72.1699 206.146 72.416 206.146C72.5762 206.146 72.7207 206.174 72.8496 206.229C72.9824 206.279 73.1074 206.34 73.2246 206.41C73.3457 206.48 73.4688 206.543 73.5938 206.598C73.7188 206.652 73.8574 206.68 74.0098 206.68C74.1582 206.68 74.2852 206.623 74.3906 206.51C74.4961 206.396 74.5488 206.25 74.5488 206.07ZM76.9809 211.9V211.766C76.9809 211.309 77.0473 210.885 77.1801 210.494C77.3129 210.1 77.5043 209.758 77.7543 209.469C78.0082 209.176 78.3168 208.949 78.6801 208.789C79.0473 208.625 79.4613 208.543 79.9223 208.543C80.3871 208.543 80.8012 208.625 81.1645 208.789C81.5316 208.949 81.8422 209.176 82.0961 209.469C82.35 209.758 82.5434 210.1 82.6762 210.494C82.809 210.885 82.8754 211.309 82.8754 211.766V211.9C82.8754 212.357 82.809 212.781 82.6762 213.172C82.5434 213.562 82.35 213.904 82.0961 214.197C81.8422 214.486 81.5336 214.713 81.1703 214.877C80.807 215.037 80.3949 215.117 79.934 215.117C79.4691 215.117 79.0531 215.037 78.6859 214.877C78.3227 214.713 78.0141 214.486 77.7602 214.197C77.5063 213.904 77.3129 213.562 77.1801 213.172C77.0473 212.781 76.9809 212.357 76.9809 211.9ZM78.393 211.766V211.9C78.393 212.186 78.4223 212.455 78.4809 212.709C78.5395 212.963 78.6313 213.186 78.7563 213.377C78.8813 213.568 79.0414 213.719 79.2367 213.828C79.432 213.938 79.6645 213.992 79.934 213.992C80.1957 213.992 80.4223 213.938 80.6137 213.828C80.809 213.719 80.9691 213.568 81.0941 213.377C81.2191 213.186 81.3109 212.963 81.3695 212.709C81.432 212.455 81.4633 212.186 81.4633 211.9V211.766C81.4633 211.484 81.432 211.219 81.3695 210.969C81.3109 210.715 81.2172 210.49 81.0883 210.295C80.9633 210.1 80.8031 209.947 80.6078 209.838C80.4164 209.725 80.1879 209.668 79.9223 209.668C79.6566 209.668 79.4262 209.725 79.2309 209.838C79.0395 209.947 78.8813 210.1 78.7563 210.295C78.6313 210.49 78.5395 210.715 78.4809 210.969C78.4223 211.219 78.393 211.484 78.393 211.766ZM88.6477 210.014V215H87.2355V208.66H88.5656L88.6477 210.014ZM88.3957 211.596L87.9387 211.59C87.9426 211.141 88.0051 210.729 88.1262 210.354C88.2512 209.979 88.423 209.656 88.6418 209.387C88.8645 209.117 89.1301 208.91 89.4387 208.766C89.7473 208.617 90.091 208.543 90.4699 208.543C90.7746 208.543 91.05 208.586 91.2961 208.672C91.5461 208.754 91.759 208.889 91.9348 209.076C92.1145 209.264 92.2512 209.508 92.3449 209.809C92.4387 210.105 92.4855 210.471 92.4855 210.904V215H91.0676V210.898C91.0676 210.594 91.0227 210.354 90.9328 210.178C90.8469 209.998 90.7199 209.871 90.552 209.797C90.3879 209.719 90.1828 209.68 89.9367 209.68C89.6945 209.68 89.4777 209.73 89.2863 209.832C89.0949 209.934 88.9328 210.072 88.8 210.248C88.6711 210.424 88.5715 210.627 88.5012 210.857C88.4309 211.088 88.3957 211.334 88.3957 211.596ZM93.7574 211.9V211.766C93.7574 211.309 93.8238 210.885 93.9566 210.494C94.0895 210.1 94.2809 209.758 94.5309 209.469C94.7848 209.176 95.0934 208.949 95.4566 208.789C95.8238 208.625 96.2379 208.543 96.6988 208.543C97.1637 208.543 97.5777 208.625 97.941 208.789C98.3082 208.949 98.6188 209.176 98.8727 209.469C99.1266 209.758 99.3199 210.1 99.4527 210.494C99.5855 210.885 99.652 211.309 99.652 211.766V211.9C99.652 212.357 99.5855 212.781 99.4527 213.172C99.3199 213.562 99.1266 213.904 98.8727 214.197C98.6188 214.486 98.3102 214.713 97.9469 214.877C97.5836 215.037 97.1715 215.117 96.7105 215.117C96.2457 215.117 95.8297 215.037 95.4625 214.877C95.0992 214.713 94.7906 214.486 94.5367 214.197C94.2828 213.904 94.0895 213.562 93.9566 213.172C93.8238 212.781 93.7574 212.357 93.7574 211.9ZM95.1695 211.766V211.9C95.1695 212.186 95.1988 212.455 95.2574 212.709C95.316 212.963 95.4078 213.186 95.5328 213.377C95.6578 213.568 95.818 213.719 96.0133 213.828C96.2086 213.938 96.441 213.992 96.7105 213.992C96.9723 213.992 97.1988 213.938 97.3902 213.828C97.5855 213.719 97.7457 213.568 97.8707 213.377C97.9957 213.186 98.0875 212.963 98.1461 212.709C98.2086 212.455 98.2398 212.186 98.2398 211.9V211.766C98.2398 211.484 98.2086 211.219 98.1461 210.969C98.0875 210.715 97.9938 210.49 97.8648 210.295C97.7398 210.1 97.5797 209.947 97.3844 209.838C97.193 209.725 96.9645 209.668 96.6988 209.668C96.4332 209.668 96.2027 209.725 96.0074 209.838C95.816 209.947 95.6578 210.1 95.5328 210.295C95.4078 210.49 95.316 210.715 95.2574 210.969C95.1988 211.219 95.1695 211.484 95.1695 211.766ZM102.354 209.867V215H100.941V208.66H102.289L102.354 209.867ZM104.293 208.619L104.281 209.932C104.195 209.916 104.102 209.904 104 209.896C103.902 209.889 103.805 209.885 103.707 209.885C103.465 209.885 103.252 209.92 103.068 209.99C102.885 210.057 102.73 210.154 102.605 210.283C102.484 210.408 102.391 210.561 102.324 210.74C102.258 210.92 102.219 211.121 102.207 211.344L101.885 211.367C101.885 210.969 101.924 210.6 102.002 210.26C102.08 209.92 102.197 209.621 102.354 209.363C102.514 209.105 102.713 208.904 102.951 208.76C103.193 208.615 103.473 208.543 103.789 208.543C103.875 208.543 103.967 208.551 104.064 208.566C104.166 208.582 104.242 208.6 104.293 208.619ZM106.69 209.949V215H105.278V208.66H106.608L106.69 209.949ZM106.461 211.596L105.981 211.59C105.981 211.152 106.036 210.748 106.145 210.377C106.254 210.006 106.414 209.684 106.625 209.41C106.836 209.133 107.098 208.92 107.411 208.771C107.727 208.619 108.092 208.543 108.506 208.543C108.795 208.543 109.059 208.586 109.297 208.672C109.539 208.754 109.748 208.885 109.924 209.064C110.104 209.244 110.241 209.475 110.334 209.756C110.432 210.037 110.481 210.377 110.481 210.775V215H109.069V210.898C109.069 210.59 109.022 210.348 108.928 210.172C108.838 209.996 108.707 209.871 108.536 209.797C108.368 209.719 108.166 209.68 107.932 209.68C107.666 209.68 107.44 209.73 107.252 209.832C107.069 209.934 106.918 210.072 106.801 210.248C106.684 210.424 106.598 210.627 106.543 210.857C106.489 211.088 106.461 211.334 106.461 211.596ZM110.393 211.221L109.731 211.367C109.731 210.984 109.784 210.623 109.889 210.283C109.998 209.939 110.157 209.639 110.364 209.381C110.575 209.119 110.834 208.914 111.143 208.766C111.452 208.617 111.805 208.543 112.204 208.543C112.528 208.543 112.817 208.588 113.071 208.678C113.329 208.764 113.547 208.9 113.727 209.088C113.907 209.275 114.043 209.52 114.137 209.82C114.231 210.117 114.278 210.477 114.278 210.898V215H112.86V210.893C112.86 210.572 112.813 210.324 112.719 210.148C112.629 209.973 112.5 209.852 112.332 209.785C112.164 209.715 111.963 209.68 111.729 209.68C111.51 209.68 111.317 209.721 111.149 209.803C110.985 209.881 110.846 209.992 110.733 210.137C110.62 210.277 110.534 210.439 110.475 210.623C110.42 210.807 110.393 211.006 110.393 211.221ZM119.405 213.729V210.705C119.405 210.479 119.364 210.283 119.282 210.119C119.2 209.955 119.075 209.828 118.907 209.738C118.743 209.648 118.536 209.604 118.286 209.604C118.055 209.604 117.856 209.643 117.688 209.721C117.52 209.799 117.389 209.904 117.296 210.037C117.202 210.17 117.155 210.32 117.155 210.488H115.749C115.749 210.238 115.809 209.996 115.93 209.762C116.052 209.527 116.227 209.318 116.458 209.135C116.688 208.951 116.964 208.807 117.284 208.701C117.604 208.596 117.964 208.543 118.362 208.543C118.839 208.543 119.261 208.623 119.628 208.783C119.999 208.943 120.29 209.186 120.501 209.51C120.716 209.83 120.823 210.232 120.823 210.717V213.535C120.823 213.824 120.843 214.084 120.882 214.314C120.925 214.541 120.985 214.738 121.063 214.906V215H119.616C119.55 214.848 119.497 214.654 119.458 214.42C119.423 214.182 119.405 213.951 119.405 213.729ZM119.61 211.145L119.622 212.018H118.608C118.346 212.018 118.116 212.043 117.917 212.094C117.718 212.141 117.552 212.211 117.419 212.305C117.286 212.398 117.186 212.512 117.12 212.645C117.054 212.777 117.02 212.928 117.02 213.096C117.02 213.264 117.059 213.418 117.137 213.559C117.216 213.695 117.329 213.803 117.477 213.881C117.63 213.959 117.813 213.998 118.028 213.998C118.317 213.998 118.569 213.939 118.784 213.822C119.003 213.701 119.175 213.555 119.3 213.383C119.425 213.207 119.491 213.041 119.499 212.885L119.956 213.512C119.909 213.672 119.829 213.844 119.716 214.027C119.602 214.211 119.454 214.387 119.27 214.555C119.091 214.719 118.874 214.854 118.62 214.959C118.37 215.064 118.081 215.117 117.753 215.117C117.339 215.117 116.97 215.035 116.645 214.871C116.321 214.703 116.067 214.479 115.884 214.197C115.7 213.912 115.608 213.59 115.608 213.23C115.608 212.895 115.671 212.598 115.796 212.34C115.925 212.078 116.112 211.859 116.358 211.684C116.608 211.508 116.913 211.375 117.272 211.285C117.632 211.191 118.042 211.145 118.503 211.145H119.61ZM123.911 206V215H122.493V206H123.911Z" fill="white"/>
<path d="M172 205C172 199.477 176.477 195 182 195H258C263.523 195 268 199.477 268 205V216C268 221.523 263.523 226 258 226H182C176.477 226 172 221.523 172 216V205Z" fill="#3C4560"/>
<rect x="310" y="195" width="96" height="31" rx="10" fill="#E3E3E4"/>
<path d="M326.346 215H323.252V206.273H326.372C327.25 206.273 328.005 206.447 328.639 206.797C329.272 207.143 329.759 207.642 330.1 208.293C330.444 208.943 330.616 209.722 330.616 210.628C330.616 211.537 330.444 212.318 330.1 212.972C329.759 213.625 329.269 214.126 328.63 214.476C327.994 214.825 327.232 215 326.346 215ZM325.098 213.419H326.269C326.815 213.419 327.274 213.322 327.646 213.129C328.021 212.933 328.302 212.631 328.49 212.222C328.68 211.81 328.775 211.278 328.775 210.628C328.775 209.983 328.68 209.456 328.49 209.047C328.302 208.638 328.022 208.337 327.65 208.143C327.278 207.95 326.819 207.854 326.274 207.854H325.098V213.419ZM334.692 215.128C334.018 215.128 333.439 214.991 332.953 214.719C332.47 214.443 332.098 214.054 331.837 213.551C331.575 213.045 331.445 212.447 331.445 211.757C331.445 211.084 331.575 210.493 331.837 209.984C332.098 209.476 332.466 209.08 332.94 208.795C333.418 208.511 333.977 208.369 334.619 208.369C335.051 208.369 335.453 208.439 335.825 208.578C336.2 208.714 336.527 208.92 336.805 209.196C337.087 209.472 337.305 209.818 337.462 210.236C337.618 210.651 337.696 211.136 337.696 211.693V212.192H332.169V211.067H335.987C335.987 210.805 335.93 210.574 335.817 210.372C335.703 210.17 335.545 210.013 335.344 209.899C335.145 209.783 334.913 209.724 334.649 209.724C334.374 209.724 334.129 209.788 333.916 209.916C333.706 210.041 333.541 210.21 333.422 210.423C333.302 210.634 333.241 210.868 333.239 211.126V212.196C333.239 212.52 333.298 212.8 333.418 213.036C333.54 213.271 333.712 213.453 333.933 213.581C334.155 213.709 334.418 213.773 334.722 213.773C334.923 213.773 335.108 213.744 335.275 213.688C335.443 213.631 335.587 213.545 335.706 213.432C335.825 213.318 335.916 213.179 335.979 213.014L337.658 213.125C337.572 213.528 337.398 213.881 337.133 214.182C336.872 214.48 336.534 214.713 336.119 214.881C335.707 215.045 335.231 215.128 334.692 215.128ZM344.087 210.321L342.425 210.423C342.396 210.281 342.335 210.153 342.241 210.04C342.148 209.923 342.024 209.831 341.871 209.763C341.72 209.692 341.54 209.656 341.33 209.656C341.048 209.656 340.811 209.716 340.618 209.835C340.425 209.952 340.328 210.108 340.328 210.304C340.328 210.46 340.391 210.592 340.516 210.7C340.641 210.808 340.855 210.895 341.159 210.96L342.344 211.199C342.98 211.33 343.455 211.54 343.767 211.83C344.08 212.119 344.236 212.5 344.236 212.972C344.236 213.401 344.109 213.777 343.857 214.101C343.607 214.425 343.263 214.678 342.825 214.859C342.391 215.038 341.889 215.128 341.321 215.128C340.455 215.128 339.764 214.947 339.25 214.587C338.739 214.223 338.439 213.729 338.351 213.104L340.136 213.01C340.19 213.274 340.321 213.476 340.528 213.615C340.736 213.751 341.001 213.82 341.325 213.82C341.643 213.82 341.899 213.759 342.092 213.636C342.288 213.511 342.388 213.351 342.391 213.155C342.388 212.99 342.318 212.855 342.182 212.75C342.045 212.642 341.835 212.56 341.551 212.503L340.418 212.277C339.778 212.149 339.303 211.928 338.99 211.612C338.68 211.297 338.526 210.895 338.526 210.406C338.526 209.986 338.639 209.624 338.866 209.32C339.097 209.016 339.419 208.781 339.834 208.616C340.251 208.452 340.74 208.369 341.3 208.369C342.126 208.369 342.777 208.544 343.251 208.893C343.729 209.243 344.007 209.719 344.087 210.321ZM347.005 215.124C346.588 215.124 346.216 215.051 345.889 214.906C345.562 214.759 345.304 214.541 345.113 214.254C344.926 213.964 344.832 213.604 344.832 213.172C344.832 212.808 344.899 212.503 345.032 212.256C345.166 212.009 345.348 211.81 345.578 211.659C345.808 211.509 346.069 211.395 346.362 211.318C346.657 211.241 346.967 211.188 347.291 211.156C347.672 211.116 347.978 211.08 348.211 211.045C348.444 211.009 348.613 210.955 348.718 210.884C348.824 210.812 348.876 210.707 348.876 210.568V210.543C348.876 210.273 348.791 210.064 348.62 209.916C348.453 209.768 348.214 209.695 347.905 209.695C347.578 209.695 347.318 209.767 347.125 209.912C346.931 210.054 346.804 210.233 346.741 210.449L345.062 210.312C345.147 209.915 345.315 209.571 345.565 209.281C345.815 208.989 346.137 208.764 346.532 208.608C346.93 208.449 347.39 208.369 347.913 208.369C348.277 208.369 348.625 208.412 348.957 208.497C349.292 208.582 349.589 208.714 349.848 208.893C350.109 209.072 350.315 209.303 350.466 209.584C350.616 209.862 350.691 210.196 350.691 210.585V215H348.97V214.092H348.919C348.814 214.297 348.673 214.477 348.497 214.634C348.321 214.787 348.109 214.908 347.862 214.996C347.615 215.081 347.329 215.124 347.005 215.124ZM347.525 213.871C347.792 213.871 348.028 213.818 348.233 213.713C348.437 213.605 348.598 213.46 348.714 213.278C348.831 213.097 348.889 212.891 348.889 212.661V211.966C348.832 212.003 348.754 212.037 348.655 212.068C348.558 212.097 348.449 212.124 348.326 212.149C348.204 212.172 348.082 212.193 347.96 212.213C347.838 212.23 347.727 212.246 347.628 212.26C347.414 212.291 347.228 212.341 347.069 212.409C346.91 212.477 346.787 212.57 346.699 212.686C346.61 212.8 346.566 212.942 346.566 213.112C346.566 213.359 346.656 213.548 346.835 213.679C347.017 213.807 347.247 213.871 347.525 213.871ZM351.894 215V206.273H353.709V209.554H353.765C353.844 209.378 353.959 209.199 354.11 209.017C354.263 208.832 354.462 208.679 354.706 208.557C354.954 208.432 355.26 208.369 355.627 208.369C356.104 208.369 356.544 208.494 356.948 208.744C357.351 208.991 357.674 209.365 357.915 209.865C358.157 210.362 358.277 210.986 358.277 211.736C358.277 212.466 358.16 213.082 357.924 213.585C357.691 214.085 357.373 214.464 356.969 214.723C356.569 214.979 356.12 215.107 355.623 215.107C355.27 215.107 354.971 215.048 354.723 214.932C354.479 214.815 354.279 214.669 354.123 214.493C353.966 214.314 353.847 214.134 353.765 213.952H353.684V215H351.894ZM353.671 211.727C353.671 212.116 353.725 212.456 353.833 212.746C353.941 213.036 354.097 213.261 354.302 213.423C354.506 213.582 354.755 213.662 355.047 213.662C355.343 213.662 355.593 213.581 355.797 213.419C356.002 213.254 356.157 213.027 356.262 212.737C356.37 212.445 356.424 212.108 356.424 211.727C356.424 211.349 356.371 211.017 356.266 210.73C356.161 210.443 356.006 210.219 355.802 210.057C355.597 209.895 355.346 209.814 355.047 209.814C354.752 209.814 354.502 209.892 354.297 210.048C354.096 210.205 353.941 210.426 353.833 210.713C353.725 211 353.671 211.338 353.671 211.727ZM359.249 215V208.455H361.064V215H359.249ZM360.161 207.611C359.891 207.611 359.659 207.521 359.466 207.342C359.276 207.161 359.181 206.943 359.181 206.69C359.181 206.44 359.276 206.226 359.466 206.047C359.659 205.865 359.891 205.774 360.161 205.774C360.431 205.774 360.661 205.865 360.851 206.047C361.044 206.226 361.141 206.44 361.141 206.69C361.141 206.943 361.044 207.161 360.851 207.342C360.661 207.521 360.431 207.611 360.161 207.611ZM364.094 206.273V215H362.278V206.273H364.094ZM365.308 215V208.455H367.123V215H365.308ZM366.22 207.611C365.95 207.611 365.718 207.521 365.525 207.342C365.335 207.161 365.24 206.943 365.24 206.69C365.24 206.44 365.335 206.226 365.525 206.047C365.718 205.865 365.95 205.774 366.22 205.774C366.49 205.774 366.72 205.865 366.91 206.047C367.103 206.226 367.2 206.44 367.2 206.69C367.2 206.943 367.103 207.161 366.91 207.342C366.72 207.521 366.49 207.611 366.22 207.611ZM371.819 208.455V209.818H367.877V208.455H371.819ZM368.772 206.886H370.587V212.989C370.587 213.156 370.613 213.287 370.664 213.381C370.715 213.472 370.786 213.536 370.877 213.572C370.971 213.609 371.079 213.628 371.201 213.628C371.286 213.628 371.371 213.621 371.457 213.607C371.542 213.589 371.607 213.577 371.653 213.568L371.938 214.919C371.847 214.947 371.719 214.98 371.555 215.017C371.39 215.057 371.19 215.081 370.954 215.089C370.516 215.107 370.133 215.048 369.803 214.915C369.477 214.781 369.222 214.574 369.04 214.293C368.859 214.011 368.769 213.656 368.772 213.227V206.886ZM374.628 215.124C374.21 215.124 373.838 215.051 373.511 214.906C373.185 214.759 372.926 214.541 372.736 214.254C372.548 213.964 372.455 213.604 372.455 213.172C372.455 212.808 372.521 212.503 372.655 212.256C372.788 212.009 372.97 211.81 373.2 211.659C373.43 211.509 373.692 211.395 373.984 211.318C374.28 211.241 374.59 211.188 374.913 211.156C375.294 211.116 375.601 211.08 375.834 211.045C376.067 211.009 376.236 210.955 376.341 210.884C376.446 210.812 376.499 210.707 376.499 210.568V210.543C376.499 210.273 376.413 210.064 376.243 209.916C376.075 209.768 375.837 209.695 375.527 209.695C375.2 209.695 374.94 209.767 374.747 209.912C374.554 210.054 374.426 210.233 374.364 210.449L372.685 210.312C372.77 209.915 372.938 209.571 373.188 209.281C373.438 208.989 373.76 208.764 374.155 208.608C374.553 208.449 375.013 208.369 375.536 208.369C375.899 208.369 376.247 208.412 376.58 208.497C376.915 208.582 377.212 208.714 377.47 208.893C377.732 209.072 377.938 209.303 378.088 209.584C378.239 209.862 378.314 210.196 378.314 210.585V215H376.592V214.092H376.541C376.436 214.297 376.295 214.477 376.119 214.634C375.943 214.787 375.732 214.908 375.484 214.996C375.237 215.081 374.952 215.124 374.628 215.124ZM375.148 213.871C375.415 213.871 375.651 213.818 375.855 213.713C376.06 213.605 376.22 213.46 376.337 213.278C376.453 213.097 376.511 212.891 376.511 212.661V211.966C376.455 212.003 376.376 212.037 376.277 212.068C376.18 212.097 376.071 212.124 375.949 212.149C375.827 212.172 375.705 212.193 375.582 212.213C375.46 212.23 375.349 212.246 375.25 212.26C375.037 212.291 374.851 212.341 374.692 212.409C374.533 212.477 374.409 212.57 374.321 212.686C374.233 212.8 374.189 212.942 374.189 213.112C374.189 213.359 374.278 213.548 374.457 213.679C374.639 213.807 374.869 213.871 375.148 213.871ZM381.894 215.107C381.397 215.107 380.947 214.979 380.543 214.723C380.143 214.464 379.825 214.085 379.589 213.585C379.356 213.082 379.239 212.466 379.239 211.736C379.239 210.986 379.36 210.362 379.602 209.865C379.843 209.365 380.164 208.991 380.565 208.744C380.968 208.494 381.41 208.369 381.89 208.369C382.256 208.369 382.562 208.432 382.806 208.557C383.053 208.679 383.252 208.832 383.403 209.017C383.556 209.199 383.673 209.378 383.752 209.554H383.808V206.273H385.619V215H383.829V213.952H383.752C383.667 214.134 383.546 214.314 383.39 214.493C383.237 214.669 383.036 214.815 382.789 214.932C382.545 215.048 382.247 215.107 381.894 215.107ZM382.47 213.662C382.762 213.662 383.009 213.582 383.211 213.423C383.416 213.261 383.572 213.036 383.68 212.746C383.791 212.456 383.846 212.116 383.846 211.727C383.846 211.338 383.792 211 383.684 210.713C383.576 210.426 383.42 210.205 383.215 210.048C383.011 209.892 382.762 209.814 382.47 209.814C382.171 209.814 381.92 209.895 381.715 210.057C381.511 210.219 381.356 210.443 381.251 210.73C381.146 211.017 381.093 211.349 381.093 211.727C381.093 212.108 381.146 212.445 381.251 212.737C381.359 213.027 381.514 213.254 381.715 213.419C381.92 213.581 382.171 213.662 382.47 213.662ZM389.829 215.128C389.167 215.128 388.594 214.987 388.111 214.706C387.631 214.422 387.26 214.027 386.999 213.521C386.738 213.013 386.607 212.423 386.607 211.753C386.607 211.077 386.738 210.486 386.999 209.98C387.26 209.472 387.631 209.077 388.111 208.795C388.594 208.511 389.167 208.369 389.829 208.369C390.491 208.369 391.062 208.511 391.542 208.795C392.025 209.077 392.397 209.472 392.658 209.98C392.92 210.486 393.05 211.077 393.05 211.753C393.05 212.423 392.92 213.013 392.658 213.521C392.397 214.027 392.025 214.422 391.542 214.706C391.062 214.987 390.491 215.128 389.829 215.128ZM389.837 213.722C390.138 213.722 390.39 213.636 390.591 213.466C390.793 213.293 390.945 213.057 391.047 212.759C391.152 212.46 391.205 212.121 391.205 211.74C391.205 211.359 391.152 211.02 391.047 210.722C390.945 210.423 390.793 210.187 390.591 210.014C390.39 209.841 390.138 209.754 389.837 209.754C389.533 209.754 389.277 209.841 389.07 210.014C388.866 210.187 388.711 210.423 388.606 210.722C388.503 211.02 388.452 211.359 388.452 211.74C388.452 212.121 388.503 212.46 388.606 212.759C388.711 213.057 388.866 213.293 389.07 213.466C389.277 213.636 389.533 213.722 389.837 213.722Z" fill="#989799"/>
<rect x="20.5" y="175.5" width="401" height="70" rx="4.5" stroke="white" stroke-dasharray="10 5"/>
<rect width="402" height="38" transform="translate(20 105)" fill="white"/>
<rect x="20.5" y="105.5" width="401" height="37" rx="18.5" stroke="#002A4E"/>
<mask id="mask27_60_3145" style="mask-type:alpha" maskUnits="userSpaceOnUse" x="222" y="65" width="16" height="16">
<rect x="222" y="65" width="16" height="16" fill="#D9D9D9"/>
</mask>
<g mask="url(#mask27_60_3145)">
<path d="M226.267 77.6666L225.333 76.7333L229.067 73L225.333 69.2666L226.267 68.3333L230 72.0666L233.733 68.3333L234.667 69.2666L230.933 73L234.667 76.7333L233.733 77.6666L230 73.9333L226.267 77.6666Z" fill="#002A4E"/>
</g>
<g clip-path="url(#clip0_60_3145)">
<rect x="316" y="261" width="106" height="32" rx="8" fill="#002A4E"/>
<path d="M330.75 280.128L327.623 277L326.558 278.058L330.75 282.25L339.75 273.25L338.693 272.193L330.75 280.128Z" fill="white"/>
<path d="M355.073 277.502H352.537L352.524 276.251H354.738C355.112 276.251 355.429 276.196 355.689 276.087C355.953 275.973 356.154 275.811 356.29 275.602C356.427 275.387 356.495 275.13 356.495 274.829C356.495 274.496 356.432 274.225 356.304 274.016C356.176 273.806 355.98 273.653 355.716 273.558C355.456 273.462 355.124 273.414 354.718 273.414H353.057V282H351.341V272.047H354.718C355.265 272.047 355.752 272.099 356.181 272.204C356.614 272.309 356.981 272.473 357.281 272.696C357.587 272.915 357.817 273.193 357.972 273.53C358.131 273.868 358.211 274.269 358.211 274.733C358.211 275.144 358.113 275.52 357.917 275.861C357.721 276.199 357.432 276.474 357.049 276.688C356.666 276.903 356.19 277.03 355.62 277.071L355.073 277.502ZM354.998 282H351.997L352.77 280.64H354.998C355.386 280.64 355.709 280.576 355.969 280.448C356.229 280.316 356.422 280.136 356.55 279.908C356.682 279.676 356.748 279.405 356.748 279.095C356.748 278.771 356.691 278.491 356.577 278.254C356.463 278.012 356.283 277.828 356.037 277.7C355.791 277.568 355.47 277.502 355.073 277.502H353.146L353.159 276.251H355.668L356.058 276.723C356.605 276.741 357.054 276.862 357.404 277.085C357.76 277.308 358.024 277.598 358.197 277.953C358.371 278.309 358.457 278.691 358.457 279.102C358.457 279.735 358.318 280.266 358.04 280.694C357.767 281.123 357.373 281.449 356.858 281.672C356.343 281.891 355.723 282 354.998 282ZM359.808 278.384V278.227C359.808 277.693 359.886 277.199 360.041 276.743C360.196 276.283 360.419 275.884 360.711 275.547C361.007 275.205 361.367 274.941 361.791 274.754C362.219 274.562 362.702 274.467 363.24 274.467C363.782 274.467 364.265 274.562 364.689 274.754C365.117 274.941 365.48 275.205 365.776 275.547C366.072 275.884 366.298 276.283 366.453 276.743C366.608 277.199 366.685 277.693 366.685 278.227V278.384C366.685 278.917 366.608 279.411 366.453 279.867C366.298 280.323 366.072 280.722 365.776 281.063C365.48 281.401 365.12 281.665 364.696 281.856C364.272 282.043 363.791 282.137 363.254 282.137C362.711 282.137 362.226 282.043 361.797 281.856C361.374 281.665 361.014 281.401 360.717 281.063C360.421 280.722 360.196 280.323 360.041 279.867C359.886 279.411 359.808 278.917 359.808 278.384ZM361.456 278.227V278.384C361.456 278.716 361.49 279.031 361.558 279.327C361.627 279.623 361.734 279.883 361.879 280.106C362.025 280.33 362.212 280.505 362.44 280.633C362.668 280.76 362.939 280.824 363.254 280.824C363.559 280.824 363.823 280.76 364.046 280.633C364.274 280.505 364.461 280.33 364.607 280.106C364.753 279.883 364.86 279.623 364.928 279.327C365.001 279.031 365.038 278.716 365.038 278.384V278.227C365.038 277.898 365.001 277.589 364.928 277.297C364.86 277.001 364.751 276.739 364.6 276.511C364.454 276.283 364.268 276.105 364.04 275.978C363.816 275.845 363.55 275.779 363.24 275.779C362.93 275.779 362.661 275.845 362.433 275.978C362.21 276.105 362.025 276.283 361.879 276.511C361.734 276.739 361.627 277.001 361.558 277.297C361.49 277.589 361.456 277.898 361.456 278.227ZM371.557 274.604V275.807H367.387V274.604H371.557ZM368.59 272.792H370.237V279.956C370.237 280.184 370.269 280.359 370.333 280.482C370.401 280.601 370.495 280.681 370.613 280.722C370.732 280.763 370.871 280.783 371.03 280.783C371.144 280.783 371.254 280.776 371.358 280.763C371.463 280.749 371.548 280.735 371.611 280.722L371.618 281.979C371.481 282.021 371.322 282.057 371.14 282.089C370.962 282.121 370.757 282.137 370.524 282.137C370.146 282.137 369.811 282.071 369.52 281.938C369.228 281.802 369 281.581 368.836 281.275C368.672 280.97 368.59 280.564 368.59 280.059V272.792ZM377.098 280.517V276.989C377.098 276.725 377.05 276.497 376.954 276.306C376.859 276.114 376.713 275.966 376.517 275.861C376.326 275.757 376.084 275.704 375.792 275.704C375.524 275.704 375.291 275.75 375.095 275.841C374.899 275.932 374.746 276.055 374.637 276.21C374.528 276.365 374.473 276.54 374.473 276.736H372.832C372.832 276.445 372.903 276.162 373.044 275.889C373.186 275.615 373.391 275.371 373.66 275.157C373.928 274.943 374.25 274.774 374.623 274.651C374.997 274.528 375.416 274.467 375.881 274.467C376.437 274.467 376.929 274.56 377.358 274.747C377.791 274.934 378.13 275.216 378.376 275.595C378.627 275.968 378.752 276.438 378.752 277.003V280.291C378.752 280.628 378.775 280.931 378.821 281.2C378.871 281.465 378.941 281.695 379.033 281.891V282H377.344C377.267 281.822 377.205 281.597 377.16 281.323C377.119 281.045 377.098 280.776 377.098 280.517ZM377.337 277.502L377.351 278.521H376.168C375.863 278.521 375.594 278.55 375.362 278.609C375.129 278.664 374.936 278.746 374.781 278.855C374.626 278.965 374.51 279.097 374.432 279.252C374.355 279.407 374.316 279.582 374.316 279.778C374.316 279.974 374.361 280.154 374.453 280.318C374.544 280.478 374.676 280.603 374.849 280.694C375.027 280.785 375.241 280.831 375.492 280.831C375.829 280.831 376.123 280.763 376.373 280.626C376.629 280.485 376.829 280.314 376.975 280.113C377.121 279.908 377.198 279.715 377.207 279.532L377.741 280.264C377.686 280.451 377.593 280.651 377.46 280.865C377.328 281.079 377.155 281.285 376.941 281.48C376.731 281.672 376.478 281.829 376.182 281.952C375.89 282.075 375.553 282.137 375.17 282.137C374.687 282.137 374.257 282.041 373.878 281.85C373.5 281.654 373.204 281.392 372.99 281.063C372.775 280.731 372.668 280.355 372.668 279.936C372.668 279.544 372.741 279.197 372.887 278.896C373.037 278.591 373.256 278.336 373.543 278.131C373.835 277.926 374.19 277.771 374.61 277.666C375.029 277.557 375.508 277.502 376.045 277.502H377.337ZM377.44 271.582L378.445 271.657C378.445 271.99 378.379 272.288 378.246 272.553C378.114 272.812 377.934 273.018 377.706 273.168C377.479 273.318 377.221 273.394 376.934 273.394C376.711 273.394 376.522 273.362 376.367 273.298C376.212 273.234 376.07 273.161 375.943 273.079C375.815 272.997 375.683 272.926 375.546 272.867C375.414 272.803 375.257 272.771 375.075 272.771C374.901 272.771 374.753 272.835 374.63 272.963C374.512 273.09 374.453 273.261 374.453 273.476L373.441 273.421C373.441 273.093 373.507 272.797 373.639 272.532C373.771 272.268 373.951 272.058 374.179 271.903C374.407 271.748 374.664 271.671 374.952 271.671C375.138 271.671 375.307 271.703 375.457 271.767C375.612 271.826 375.758 271.896 375.895 271.979C376.036 272.061 376.18 272.133 376.326 272.197C376.471 272.261 376.633 272.293 376.811 272.293C376.984 272.293 377.132 272.227 377.255 272.095C377.378 271.963 377.44 271.792 377.44 271.582ZM380.261 278.384V278.227C380.261 277.693 380.338 277.199 380.493 276.743C380.648 276.283 380.871 275.884 381.163 275.547C381.459 275.205 381.819 274.941 382.243 274.754C382.671 274.562 383.154 274.467 383.692 274.467C384.235 274.467 384.718 274.562 385.141 274.754C385.57 274.941 385.932 275.205 386.228 275.547C386.525 275.884 386.75 276.283 386.905 276.743C387.06 277.199 387.137 277.693 387.137 278.227V278.384C387.137 278.917 387.06 279.411 386.905 279.867C386.75 280.323 386.525 280.722 386.228 281.063C385.932 281.401 385.572 281.665 385.148 281.856C384.724 282.043 384.244 282.137 383.706 282.137C383.164 282.137 382.678 282.043 382.25 281.856C381.826 281.665 381.466 281.401 381.17 281.063C380.874 280.722 380.648 280.323 380.493 279.867C380.338 279.411 380.261 278.917 380.261 278.384ZM381.908 278.227V278.384C381.908 278.716 381.942 279.031 382.011 279.327C382.079 279.623 382.186 279.883 382.332 280.106C382.478 280.33 382.665 280.505 382.892 280.633C383.12 280.76 383.391 280.824 383.706 280.824C384.011 280.824 384.276 280.76 384.499 280.633C384.727 280.505 384.914 280.33 385.059 280.106C385.205 279.883 385.312 279.623 385.381 279.327C385.454 279.031 385.49 278.716 385.49 278.384V278.227C385.49 277.898 385.454 277.589 385.381 277.297C385.312 277.001 385.203 276.739 385.053 276.511C384.907 276.283 384.72 276.105 384.492 275.978C384.269 275.845 384.002 275.779 383.692 275.779C383.382 275.779 383.113 275.845 382.886 275.978C382.662 276.105 382.478 276.283 382.332 276.511C382.186 276.739 382.079 277.001 382.011 277.297C381.942 277.589 381.908 277.898 381.908 278.227Z" fill="white"/>
<path d="M401.25 275.5L405 279.25L408.75 275.5H401.25Z" fill="white"/>
</g>
<g clip-path="url(#clip1_60_3145)">
<rect x="206" y="261" width="88" height="32" rx="8" fill="#FFFBFE"/>
<rect width="88" height="32" transform="translate(206 261)" fill="#003461"/>
<rect width="88" height="32" transform="translate(206 261)" fill="black" fill-opacity="0.2"/>
<path d="M227.073 277.502H224.537L224.524 276.251H226.738C227.112 276.251 227.429 276.196 227.689 276.087C227.953 275.973 228.154 275.811 228.29 275.602C228.427 275.387 228.495 275.13 228.495 274.829C228.495 274.496 228.432 274.225 228.304 274.016C228.176 273.806 227.98 273.653 227.716 273.558C227.456 273.462 227.124 273.414 226.718 273.414H225.057V282H223.341V272.047H226.718C227.265 272.047 227.752 272.099 228.181 272.204C228.614 272.309 228.981 272.473 229.281 272.696C229.587 272.915 229.817 273.193 229.972 273.53C230.131 273.868 230.211 274.269 230.211 274.733C230.211 275.144 230.113 275.52 229.917 275.861C229.721 276.199 229.432 276.474 229.049 276.688C228.666 276.903 228.19 277.03 227.62 277.071L227.073 277.502ZM226.998 282H223.997L224.77 280.64H226.998C227.386 280.64 227.709 280.576 227.969 280.448C228.229 280.316 228.422 280.136 228.55 279.908C228.682 279.676 228.748 279.405 228.748 279.095C228.748 278.771 228.691 278.491 228.577 278.254C228.463 278.012 228.283 277.828 228.037 277.7C227.791 277.568 227.47 277.502 227.073 277.502H225.146L225.159 276.251H227.668L228.058 276.723C228.605 276.741 229.054 276.862 229.404 277.085C229.76 277.308 230.024 277.598 230.197 277.953C230.371 278.309 230.457 278.691 230.457 279.102C230.457 279.735 230.318 280.266 230.04 280.694C229.767 281.123 229.373 281.449 228.858 281.672C228.343 281.891 227.723 282 226.998 282ZM231.808 278.384V278.227C231.808 277.693 231.886 277.199 232.041 276.743C232.196 276.283 232.419 275.884 232.711 275.547C233.007 275.205 233.367 274.941 233.791 274.754C234.219 274.562 234.702 274.467 235.24 274.467C235.782 274.467 236.265 274.562 236.689 274.754C237.117 274.941 237.48 275.205 237.776 275.547C238.072 275.884 238.298 276.283 238.453 276.743C238.608 277.199 238.685 277.693 238.685 278.227V278.384C238.685 278.917 238.608 279.411 238.453 279.867C238.298 280.323 238.072 280.722 237.776 281.063C237.48 281.401 237.12 281.665 236.696 281.856C236.272 282.043 235.791 282.137 235.254 282.137C234.711 282.137 234.226 282.043 233.797 281.856C233.374 281.665 233.014 281.401 232.717 281.063C232.421 280.722 232.196 280.323 232.041 279.867C231.886 279.411 231.808 278.917 231.808 278.384ZM233.456 278.227V278.384C233.456 278.716 233.49 279.031 233.558 279.327C233.627 279.623 233.734 279.883 233.879 280.106C234.025 280.33 234.212 280.505 234.44 280.633C234.668 280.76 234.939 280.824 235.254 280.824C235.559 280.824 235.823 280.76 236.046 280.633C236.274 280.505 236.461 280.33 236.607 280.106C236.753 279.883 236.86 279.623 236.928 279.327C237.001 279.031 237.038 278.716 237.038 278.384V278.227C237.038 277.898 237.001 277.589 236.928 277.297C236.86 277.001 236.751 276.739 236.6 276.511C236.454 276.283 236.268 276.105 236.04 275.978C235.816 275.845 235.55 275.779 235.24 275.779C234.93 275.779 234.661 275.845 234.433 275.978C234.21 276.105 234.025 276.283 233.879 276.511C233.734 276.739 233.627 277.001 233.558 277.297C233.49 277.589 233.456 277.898 233.456 278.227ZM243.557 274.604V275.807H239.387V274.604H243.557ZM240.59 272.792H242.237V279.956C242.237 280.184 242.269 280.359 242.333 280.482C242.401 280.601 242.495 280.681 242.613 280.722C242.732 280.763 242.871 280.783 243.03 280.783C243.144 280.783 243.254 280.776 243.358 280.763C243.463 280.749 243.548 280.735 243.611 280.722L243.618 281.979C243.481 282.021 243.322 282.057 243.14 282.089C242.962 282.121 242.757 282.137 242.524 282.137C242.146 282.137 241.811 282.071 241.52 281.938C241.228 281.802 241 281.581 240.836 281.275C240.672 280.97 240.59 280.564 240.59 280.059V272.792ZM249.098 280.517V276.989C249.098 276.725 249.05 276.497 248.954 276.306C248.859 276.114 248.713 275.966 248.517 275.861C248.326 275.757 248.084 275.704 247.792 275.704C247.524 275.704 247.291 275.75 247.095 275.841C246.899 275.932 246.746 276.055 246.637 276.21C246.528 276.365 246.473 276.54 246.473 276.736H244.832C244.832 276.445 244.903 276.162 245.044 275.889C245.186 275.615 245.391 275.371 245.66 275.157C245.928 274.943 246.25 274.774 246.623 274.651C246.997 274.528 247.416 274.467 247.881 274.467C248.437 274.467 248.929 274.56 249.358 274.747C249.791 274.934 250.13 275.216 250.376 275.595C250.627 275.968 250.752 276.438 250.752 277.003V280.291C250.752 280.628 250.775 280.931 250.821 281.2C250.871 281.465 250.941 281.695 251.033 281.891V282H249.344C249.267 281.822 249.205 281.597 249.16 281.323C249.119 281.045 249.098 280.776 249.098 280.517ZM249.337 277.502L249.351 278.521H248.168C247.863 278.521 247.594 278.55 247.362 278.609C247.129 278.664 246.936 278.746 246.781 278.855C246.626 278.965 246.51 279.097 246.432 279.252C246.355 279.407 246.316 279.582 246.316 279.778C246.316 279.974 246.361 280.154 246.453 280.318C246.544 280.478 246.676 280.603 246.849 280.694C247.027 280.785 247.241 280.831 247.492 280.831C247.829 280.831 248.123 280.763 248.373 280.626C248.629 280.485 248.829 280.314 248.975 280.113C249.121 279.908 249.198 279.715 249.207 279.532L249.741 280.264C249.686 280.451 249.593 280.651 249.46 280.865C249.328 281.079 249.155 281.285 248.941 281.48C248.731 281.672 248.478 281.829 248.182 281.952C247.89 282.075 247.553 282.137 247.17 282.137C246.687 282.137 246.257 282.041 245.878 281.85C245.5 281.654 245.204 281.392 244.99 281.063C244.775 280.731 244.668 280.355 244.668 279.936C244.668 279.544 244.741 279.197 244.887 278.896C245.037 278.591 245.256 278.336 245.543 278.131C245.835 277.926 246.19 277.771 246.61 277.666C247.029 277.557 247.508 277.502 248.045 277.502H249.337ZM249.44 271.582L250.445 271.657C250.445 271.99 250.379 272.288 250.246 272.553C250.114 272.812 249.934 273.018 249.706 273.168C249.479 273.318 249.221 273.394 248.934 273.394C248.711 273.394 248.522 273.362 248.367 273.298C248.212 273.234 248.07 273.161 247.943 273.079C247.815 272.997 247.683 272.926 247.546 272.867C247.414 272.803 247.257 272.771 247.075 272.771C246.901 272.771 246.753 272.835 246.63 272.963C246.512 273.09 246.453 273.261 246.453 273.476L245.441 273.421C245.441 273.093 245.507 272.797 245.639 272.532C245.771 272.268 245.951 272.058 246.179 271.903C246.407 271.748 246.664 271.671 246.952 271.671C247.138 271.671 247.307 271.703 247.457 271.767C247.612 271.826 247.758 271.896 247.895 271.979C248.036 272.061 248.18 272.133 248.326 272.197C248.471 272.261 248.633 272.293 248.811 272.293C248.984 272.293 249.132 272.227 249.255 272.095C249.378 271.963 249.44 271.792 249.44 271.582ZM252.261 278.384V278.227C252.261 277.693 252.338 277.199 252.493 276.743C252.648 276.283 252.871 275.884 253.163 275.547C253.459 275.205 253.819 274.941 254.243 274.754C254.671 274.562 255.154 274.467 255.692 274.467C256.235 274.467 256.718 274.562 257.141 274.754C257.57 274.941 257.932 275.205 258.228 275.547C258.525 275.884 258.75 276.283 258.905 276.743C259.06 277.199 259.137 277.693 259.137 278.227V278.384C259.137 278.917 259.06 279.411 258.905 279.867C258.75 280.323 258.525 280.722 258.228 281.063C257.932 281.401 257.572 281.665 257.148 281.856C256.724 282.043 256.244 282.137 255.706 282.137C255.164 282.137 254.678 282.043 254.25 281.856C253.826 281.665 253.466 281.401 253.17 281.063C252.874 280.722 252.648 280.323 252.493 279.867C252.338 279.411 252.261 278.917 252.261 278.384ZM253.908 278.227V278.384C253.908 278.716 253.942 279.031 254.011 279.327C254.079 279.623 254.186 279.883 254.332 280.106C254.478 280.33 254.665 280.505 254.892 280.633C255.12 280.76 255.391 280.824 255.706 280.824C256.011 280.824 256.276 280.76 256.499 280.633C256.727 280.505 256.914 280.33 257.059 280.106C257.205 279.883 257.312 279.623 257.381 279.327C257.454 279.031 257.49 278.716 257.49 278.384V278.227C257.49 277.898 257.454 277.589 257.381 277.297C257.312 277.001 257.203 276.739 257.053 276.511C256.907 276.283 256.72 276.105 256.492 275.978C256.269 275.845 256.002 275.779 255.692 275.779C255.382 275.779 255.113 275.845 254.886 275.978C254.662 276.105 254.478 276.283 254.332 276.511C254.186 276.739 254.079 277.001 254.011 277.297C253.942 277.589 253.908 277.898 253.908 278.227Z" fill="white"/>
<path d="M273.25 275.5L277 279.25L280.75 275.5H273.25Z" fill="white"/>
</g>
<rect x="24" y="309" width="396" height="70" fill="#002A4E" fill-opacity="0.1"/>
<mask id="mask28_60_3145" style="mask-type:alpha" maskUnits="userSpaceOnUse" x="133" y="332" width="22" height="22">
<rect x="133" y="332" width="22" height="22" fill="#D9D9D9"/>
</mask>
<g mask="url(#mask28_60_3145)">
<path d="M136.667 347.583V349.417H151.333V347.583H136.667ZM139.417 337.5V335.667C139.417 335.163 139.596 334.731 139.956 334.371C140.315 334.013 140.746 333.833 141.25 333.833H146.75C147.254 333.833 147.686 334.013 148.045 334.371C148.404 334.731 148.583 335.163 148.583 335.667V337.5H151.333C151.838 337.5 152.269 337.68 152.629 338.039C152.987 338.398 153.167 338.829 153.167 339.333V349.417C153.167 349.921 152.987 350.353 152.629 350.712C152.269 351.071 151.838 351.25 151.333 351.25H136.667C136.163 351.25 135.731 351.071 135.372 350.712C135.013 350.353 134.833 349.921 134.833 349.417V339.333C134.833 338.829 135.013 338.398 135.372 338.039C135.731 337.68 136.163 337.5 136.667 337.5H139.417ZM136.667 344.833H151.333V339.333H148.583V341.167H146.75V339.333H141.25V341.167H139.417V339.333H136.667V344.833ZM141.25 337.5H146.75V335.667H141.25V337.5Z" fill="#002A4E"/>
</g>
<mask id="mask29_60_3145" style="mask-type:alpha" maskUnits="userSpaceOnUse" x="212" y="332" width="22" height="22">
<rect x="212" y="332" width="22" height="22" fill="#D9D9D9"/>
</mask>
<g mask="url(#mask29_60_3145)">
<path d="M215.667 350.333V340.25H219.333V350.333H215.667ZM221.167 350.333V335.667H224.833V350.333H221.167ZM226.667 350.333V343.917H230.333V350.333H226.667Z" fill="#002A4E"/>
</g>
<mask id="mask30_60_3145" style="mask-type:alpha" maskUnits="userSpaceOnUse" x="291" y="332" width="22" height="22">
<rect x="291" y="332" width="22" height="22" fill="#D9D9D9"/>
</mask>
<g mask="url(#mask30_60_3145)">
<path d="M299.113 348.34L302 346.598L304.888 348.363L304.131 345.062L306.675 342.863L303.329 342.565L302 339.448L300.671 342.542L297.325 342.84L299.869 345.062L299.113 348.34ZM296.34 352.167L297.829 345.727L292.833 341.396L299.433 340.823L302 334.75L304.567 340.823L311.167 341.396L306.171 345.727L307.661 352.167L302 348.752L296.34 352.167Z" fill="#002A4E"/>
</g>
<mask id="mask31_60_3145" style="mask-type:alpha" maskUnits="userSpaceOnUse" x="371" y="332" width="22" height="22">
<rect x="371" y="332" width="22" height="22" fill="#D9D9D9"/>
</mask>
<g mask="url(#mask31_60_3145)">
<path d="M381.954 348.5C382.275 348.5 382.546 348.389 382.768 348.167C382.99 347.946 383.1 347.675 383.1 347.354C383.1 347.033 382.99 346.762 382.768 346.541C382.546 346.319 382.275 346.208 381.954 346.208C381.633 346.208 381.362 346.319 381.14 346.541C380.919 346.762 380.808 347.033 380.808 347.354C380.808 347.675 380.919 347.946 381.14 348.167C381.362 348.389 381.633 348.5 381.954 348.5ZM381.129 344.971H382.825C382.825 344.467 382.883 344.069 382.997 343.779C383.112 343.489 383.436 343.092 383.971 342.588C384.368 342.19 384.681 341.812 384.911 341.453C385.14 341.094 385.254 340.663 385.254 340.158C385.254 339.303 384.941 338.646 384.315 338.188C383.688 337.729 382.947 337.5 382.092 337.5C381.221 337.5 380.515 337.729 379.972 338.188C379.43 338.646 379.052 339.196 378.838 339.838L380.35 340.433C380.427 340.158 380.599 339.86 380.866 339.54C381.133 339.219 381.542 339.058 382.092 339.058C382.581 339.058 382.947 339.192 383.192 339.459C383.436 339.727 383.558 340.021 383.558 340.342C383.558 340.647 383.467 340.934 383.283 341.201C383.1 341.468 382.871 341.717 382.596 341.946C381.924 342.542 381.511 342.992 381.358 343.298C381.206 343.604 381.129 344.161 381.129 344.971ZM382 352.167C380.732 352.167 379.54 351.926 378.425 351.444C377.31 350.963 376.34 350.31 375.515 349.485C374.69 348.66 374.037 347.69 373.556 346.575C373.074 345.46 372.833 344.268 372.833 343C372.833 341.732 373.074 340.54 373.556 339.425C374.037 338.31 374.69 337.34 375.515 336.515C376.34 335.69 377.31 335.036 378.425 334.555C379.54 334.074 380.732 333.833 382 333.833C383.268 333.833 384.46 334.074 385.575 334.555C386.69 335.036 387.661 335.69 388.486 336.515C389.311 337.34 389.964 338.31 390.444 339.425C390.926 340.54 391.167 341.732 391.167 343C391.167 344.268 390.926 345.46 390.444 346.575C389.964 347.69 389.311 348.66 388.486 349.485C387.661 350.31 386.69 350.963 385.575 351.444C384.46 351.926 383.268 352.167 382 352.167ZM382 350.333C384.047 350.333 385.781 349.623 387.202 348.202C388.623 346.781 389.333 345.047 389.333 343C389.333 340.953 388.623 339.219 387.202 337.798C385.781 336.377 384.047 335.667 382 335.667C379.953 335.667 378.219 336.377 376.798 337.798C375.377 339.219 374.667 340.953 374.667 343C374.667 345.047 375.377 346.781 376.798 348.202C378.219 349.623 379.953 350.333 382 350.333Z" fill="#002A4E"/>
</g>
<ellipse cx="222.5" cy="343.5" rx="24.5" ry="18.5" fill="#002A4E" fill-opacity="0.15"/>
<mask id="mask32_60_3145" style="mask-type:alpha" maskUnits="userSpaceOnUse" x="54" y="332" width="21" height="22">
<rect x="54" y="332" width="21" height="22" fill="#D9D9D9"/>
</mask>
<g mask="url(#mask32_60_3145)">
<path d="M55.75 351.25V349.417H63.625V339.173C63.2458 339.035 62.9177 338.822 62.6406 338.531C62.3635 338.241 62.1594 337.897 62.0281 337.5H59.25L61.875 343.917C61.875 344.681 61.576 345.33 60.9781 345.865C60.3802 346.399 59.6583 346.667 58.8125 346.667C57.9667 346.667 57.2448 346.399 56.6469 345.865C56.049 345.33 55.75 344.681 55.75 343.917L58.375 337.5H56.625V335.667H62.0281C62.2031 335.132 62.5167 334.693 62.9688 334.349C63.4208 334.005 63.9312 333.833 64.5 333.833C65.0688 333.833 65.5792 334.005 66.0312 334.349C66.4833 334.693 66.7969 335.132 66.9719 335.667H72.375V337.5H70.625L73.25 343.917C73.25 344.681 72.951 345.33 72.3531 345.865C71.7552 346.399 71.0333 346.667 70.1875 346.667C69.3417 346.667 68.6198 346.399 68.0219 345.865C67.424 345.33 67.125 344.681 67.125 343.917L69.75 337.5H66.9719C66.8406 337.897 66.6365 338.241 66.3594 338.531C66.0823 338.822 65.7542 339.035 65.375 339.173V349.417H73.25V351.25H55.75ZM68.5469 343.917H71.8281L70.1875 339.929L68.5469 343.917ZM57.1719 343.917H60.4531L58.8125 339.929L57.1719 343.917ZM64.5 337.5C64.7479 337.5 64.9559 337.412 65.1239 337.237C65.2913 337.061 65.375 336.843 65.375 336.583C65.375 336.324 65.2913 336.106 65.1239 335.93C64.9559 335.754 64.7479 335.667 64.5 335.667C64.2521 335.667 64.0444 335.754 63.877 335.93C63.709 336.106 63.625 336.324 63.625 336.583C63.625 336.843 63.709 337.061 63.877 337.237C64.0444 337.412 64.2521 337.5 64.5 337.5Z" fill="#002A4E"/>
</g>
<path d="M178.509 206.469H179.822L182.289 213.049L184.75 206.469H186.062L182.804 215H181.761L178.509 206.469ZM177.912 206.469H179.16L179.377 212.164V215H177.912V206.469ZM185.412 206.469H186.666V215H185.195V212.164L185.412 206.469ZM188.102 211.9V211.766C188.102 211.309 188.168 210.885 188.301 210.494C188.434 210.1 188.625 209.758 188.875 209.469C189.129 209.176 189.438 208.949 189.801 208.789C190.168 208.625 190.582 208.543 191.043 208.543C191.508 208.543 191.922 208.625 192.285 208.789C192.652 208.949 192.963 209.176 193.217 209.469C193.471 209.758 193.664 210.1 193.797 210.494C193.93 210.885 193.996 211.309 193.996 211.766V211.9C193.996 212.357 193.93 212.781 193.797 213.172C193.664 213.562 193.471 213.904 193.217 214.197C192.963 214.486 192.654 214.713 192.291 214.877C191.928 215.037 191.516 215.117 191.055 215.117C190.59 215.117 190.174 215.037 189.807 214.877C189.443 214.713 189.135 214.486 188.881 214.197C188.627 213.904 188.434 213.562 188.301 213.172C188.168 212.781 188.102 212.357 188.102 211.9ZM189.514 211.766V211.9C189.514 212.186 189.543 212.455 189.602 212.709C189.66 212.963 189.752 213.186 189.877 213.377C190.002 213.568 190.162 213.719 190.357 213.828C190.553 213.938 190.785 213.992 191.055 213.992C191.316 213.992 191.543 213.938 191.734 213.828C191.93 213.719 192.09 213.568 192.215 213.377C192.34 213.186 192.432 212.963 192.49 212.709C192.553 212.455 192.584 212.186 192.584 211.9V211.766C192.584 211.484 192.553 211.219 192.49 210.969C192.432 210.715 192.338 210.49 192.209 210.295C192.084 210.1 191.924 209.947 191.729 209.838C191.537 209.725 191.309 209.668 191.043 209.668C190.777 209.668 190.547 209.725 190.352 209.838C190.16 209.947 190.002 210.1 189.877 210.295C189.752 210.49 189.66 210.715 189.602 210.969C189.543 211.219 189.514 211.484 189.514 211.766ZM199.094 213.506V208.66H200.512V215H199.176L199.094 213.506ZM199.293 212.188L199.768 212.176C199.768 212.602 199.721 212.994 199.627 213.354C199.534 213.709 199.389 214.02 199.194 214.285C198.998 214.547 198.748 214.752 198.444 214.9C198.139 215.045 197.774 215.117 197.348 215.117C197.039 215.117 196.756 215.072 196.498 214.982C196.241 214.893 196.018 214.754 195.83 214.566C195.647 214.379 195.504 214.135 195.403 213.834C195.301 213.533 195.25 213.174 195.25 212.756V208.66H196.663V212.768C196.663 212.998 196.69 213.191 196.745 213.348C196.799 213.5 196.873 213.623 196.967 213.717C197.061 213.811 197.17 213.877 197.295 213.916C197.42 213.955 197.553 213.975 197.694 213.975C198.096 213.975 198.413 213.896 198.643 213.74C198.877 213.58 199.043 213.365 199.141 213.096C199.243 212.826 199.293 212.523 199.293 212.188ZM205.616 213.283C205.616 213.143 205.581 213.016 205.511 212.902C205.44 212.785 205.305 212.68 205.106 212.586C204.911 212.492 204.622 212.406 204.239 212.328C203.903 212.254 203.595 212.166 203.313 212.064C203.036 211.959 202.798 211.832 202.598 211.684C202.399 211.535 202.245 211.359 202.136 211.156C202.026 210.953 201.971 210.719 201.971 210.453C201.971 210.195 202.028 209.951 202.141 209.721C202.255 209.49 202.417 209.287 202.628 209.111C202.839 208.936 203.095 208.797 203.395 208.695C203.7 208.594 204.04 208.543 204.415 208.543C204.946 208.543 205.401 208.633 205.78 208.812C206.163 208.988 206.456 209.229 206.659 209.533C206.862 209.834 206.964 210.174 206.964 210.553H205.552C205.552 210.385 205.509 210.229 205.423 210.084C205.341 209.936 205.216 209.816 205.048 209.727C204.88 209.633 204.669 209.586 204.415 209.586C204.173 209.586 203.971 209.625 203.811 209.703C203.655 209.777 203.538 209.875 203.46 209.996C203.386 210.117 203.348 210.25 203.348 210.395C203.348 210.5 203.368 210.596 203.407 210.682C203.45 210.764 203.52 210.84 203.618 210.91C203.716 210.977 203.848 211.039 204.016 211.098C204.188 211.156 204.403 211.213 204.661 211.268C205.145 211.369 205.561 211.5 205.909 211.66C206.261 211.816 206.53 212.02 206.718 212.27C206.905 212.516 206.999 212.828 206.999 213.207C206.999 213.488 206.938 213.746 206.817 213.98C206.7 214.211 206.528 214.412 206.302 214.584C206.075 214.752 205.804 214.883 205.487 214.977C205.175 215.07 204.823 215.117 204.432 215.117C203.858 215.117 203.372 215.016 202.973 214.812C202.575 214.605 202.272 214.342 202.065 214.021C201.862 213.697 201.761 213.361 201.761 213.014H203.126C203.141 213.275 203.214 213.484 203.343 213.641C203.475 213.793 203.639 213.904 203.835 213.975C204.034 214.041 204.239 214.074 204.45 214.074C204.704 214.074 204.917 214.041 205.089 213.975C205.261 213.904 205.391 213.811 205.481 213.693C205.571 213.572 205.616 213.436 205.616 213.283ZM211.13 215.117C210.661 215.117 210.238 215.041 209.859 214.889C209.484 214.732 209.163 214.516 208.898 214.238C208.636 213.961 208.435 213.635 208.294 213.26C208.154 212.885 208.083 212.48 208.083 212.047V211.812C208.083 211.316 208.155 210.867 208.3 210.465C208.445 210.062 208.646 209.719 208.904 209.434C209.161 209.145 209.466 208.924 209.818 208.771C210.169 208.619 210.55 208.543 210.96 208.543C211.413 208.543 211.81 208.619 212.15 208.771C212.489 208.924 212.771 209.139 212.993 209.416C213.22 209.689 213.388 210.016 213.497 210.395C213.611 210.773 213.667 211.191 213.667 211.648V212.252H208.769V211.238H212.273V211.127C212.265 210.873 212.214 210.635 212.12 210.412C212.03 210.189 211.892 210.01 211.704 209.873C211.517 209.736 211.267 209.668 210.954 209.668C210.72 209.668 210.511 209.719 210.327 209.82C210.148 209.918 209.997 210.061 209.876 210.248C209.755 210.436 209.661 210.662 209.595 210.928C209.532 211.189 209.501 211.484 209.501 211.812V212.047C209.501 212.324 209.538 212.582 209.613 212.82C209.691 213.055 209.804 213.26 209.952 213.436C210.101 213.611 210.28 213.75 210.491 213.852C210.702 213.949 210.943 213.998 211.212 213.998C211.552 213.998 211.855 213.93 212.12 213.793C212.386 213.656 212.616 213.463 212.812 213.213L213.556 213.934C213.419 214.133 213.241 214.324 213.023 214.508C212.804 214.688 212.536 214.834 212.22 214.947C211.907 215.061 211.544 215.117 211.13 215.117ZM220.752 215.117C220.283 215.117 219.859 215.041 219.48 214.889C219.105 214.732 218.785 214.516 218.52 214.238C218.258 213.961 218.057 213.635 217.916 213.26C217.775 212.885 217.705 212.48 217.705 212.047V211.812C217.705 211.316 217.777 210.867 217.922 210.465C218.066 210.062 218.268 209.719 218.525 209.434C218.783 209.145 219.088 208.924 219.439 208.771C219.791 208.619 220.172 208.543 220.582 208.543C221.035 208.543 221.432 208.619 221.771 208.771C222.111 208.924 222.393 209.139 222.615 209.416C222.842 209.689 223.01 210.016 223.119 210.395C223.232 210.773 223.289 211.191 223.289 211.648V212.252H218.391V211.238H221.895V211.127C221.887 210.873 221.836 210.635 221.742 210.412C221.652 210.189 221.514 210.01 221.326 209.873C221.139 209.736 220.889 209.668 220.576 209.668C220.342 209.668 220.133 209.719 219.949 209.82C219.77 209.918 219.619 210.061 219.498 210.248C219.377 210.436 219.283 210.662 219.217 210.928C219.154 211.189 219.123 211.484 219.123 211.812V212.047C219.123 212.324 219.16 212.582 219.234 212.82C219.312 213.055 219.426 213.26 219.574 213.436C219.723 213.611 219.902 213.75 220.113 213.852C220.324 213.949 220.564 213.998 220.834 213.998C221.174 213.998 221.477 213.93 221.742 213.793C222.008 213.656 222.238 213.463 222.434 213.213L223.178 213.934C223.041 214.133 222.863 214.324 222.645 214.508C222.426 214.688 222.158 214.834 221.842 214.947C221.529 215.061 221.166 215.117 220.752 215.117ZM225.903 209.949V215H224.491V208.66H225.821L225.903 209.949ZM225.674 211.596L225.194 211.59C225.194 211.152 225.248 210.748 225.358 210.377C225.467 210.006 225.627 209.684 225.838 209.41C226.049 209.133 226.311 208.92 226.623 208.771C226.94 208.619 227.305 208.543 227.719 208.543C228.008 208.543 228.272 208.586 228.51 208.672C228.752 208.754 228.961 208.885 229.137 209.064C229.317 209.244 229.454 209.475 229.547 209.756C229.645 210.037 229.694 210.377 229.694 210.775V215H228.282V210.898C228.282 210.59 228.235 210.348 228.141 210.172C228.051 209.996 227.92 209.871 227.748 209.797C227.58 209.719 227.379 209.68 227.145 209.68C226.879 209.68 226.653 209.73 226.465 209.832C226.282 209.934 226.131 210.072 226.014 210.248C225.897 210.424 225.811 210.627 225.756 210.857C225.702 211.088 225.674 211.334 225.674 211.596ZM229.606 211.221L228.944 211.367C228.944 210.984 228.996 210.623 229.102 210.283C229.211 209.939 229.37 209.639 229.577 209.381C229.788 209.119 230.047 208.914 230.356 208.766C230.664 208.617 231.018 208.543 231.416 208.543C231.741 208.543 232.03 208.588 232.284 208.678C232.541 208.764 232.76 208.9 232.94 209.088C233.12 209.275 233.256 209.52 233.35 209.82C233.444 210.117 233.491 210.477 233.491 210.898V215H232.073V210.893C232.073 210.572 232.026 210.324 231.932 210.148C231.842 209.973 231.713 209.852 231.545 209.785C231.377 209.715 231.176 209.68 230.942 209.68C230.723 209.68 230.53 209.721 230.362 209.803C230.198 209.881 230.059 209.992 229.946 210.137C229.832 210.277 229.746 210.439 229.688 210.623C229.633 210.807 229.606 211.006 229.606 211.221ZM240.722 213.992C240.952 213.992 241.159 213.947 241.343 213.857C241.53 213.764 241.681 213.635 241.794 213.471C241.911 213.307 241.976 213.117 241.988 212.902H243.318C243.31 213.312 243.189 213.686 242.954 214.021C242.72 214.357 242.409 214.625 242.023 214.824C241.636 215.02 241.208 215.117 240.739 215.117C240.255 215.117 239.833 215.035 239.474 214.871C239.114 214.703 238.816 214.473 238.577 214.18C238.339 213.887 238.159 213.549 238.038 213.166C237.921 212.783 237.863 212.373 237.863 211.936V211.73C237.863 211.293 237.921 210.883 238.038 210.5C238.159 210.113 238.339 209.773 238.577 209.48C238.816 209.188 239.114 208.959 239.474 208.795C239.833 208.627 240.253 208.543 240.734 208.543C241.241 208.543 241.687 208.645 242.07 208.848C242.452 209.047 242.753 209.326 242.972 209.686C243.195 210.041 243.31 210.455 243.318 210.928H241.988C241.976 210.693 241.917 210.482 241.812 210.295C241.71 210.104 241.566 209.951 241.378 209.838C241.195 209.725 240.974 209.668 240.716 209.668C240.431 209.668 240.195 209.727 240.007 209.844C239.82 209.957 239.673 210.113 239.568 210.312C239.462 210.508 239.386 210.729 239.339 210.975C239.296 211.217 239.275 211.469 239.275 211.73V211.936C239.275 212.197 239.296 212.451 239.339 212.697C239.382 212.943 239.456 213.164 239.562 213.359C239.671 213.551 239.82 213.705 240.007 213.822C240.195 213.936 240.433 213.992 240.722 213.992ZM246.013 208.66V215H244.595V208.66H246.013ZM244.502 206.996C244.502 206.781 244.572 206.604 244.713 206.463C244.857 206.318 245.056 206.246 245.31 206.246C245.56 206.246 245.757 206.318 245.902 206.463C246.046 206.604 246.119 206.781 246.119 206.996C246.119 207.207 246.046 207.383 245.902 207.523C245.757 207.664 245.56 207.734 245.31 207.734C245.056 207.734 244.857 207.664 244.713 207.523C244.572 207.383 244.502 207.207 244.502 206.996ZM249.072 209.949V215H247.66V208.66H248.99L249.072 209.949ZM248.844 211.596L248.363 211.59C248.363 211.152 248.418 210.748 248.527 210.377C248.637 210.006 248.797 209.684 249.008 209.41C249.219 209.133 249.48 208.92 249.793 208.771C250.109 208.619 250.475 208.543 250.889 208.543C251.178 208.543 251.441 208.586 251.68 208.672C251.922 208.754 252.131 208.885 252.307 209.064C252.486 209.244 252.623 209.475 252.717 209.756C252.814 210.037 252.863 210.377 252.863 210.775V215H251.451V210.898C251.451 210.59 251.404 210.348 251.311 210.172C251.221 209.996 251.09 209.871 250.918 209.797C250.75 209.719 250.549 209.68 250.314 209.68C250.049 209.68 249.822 209.73 249.635 209.832C249.451 209.934 249.301 210.072 249.184 210.248C249.066 210.424 248.98 210.627 248.926 210.857C248.871 211.088 248.844 211.334 248.844 211.596ZM252.775 211.221L252.113 211.367C252.113 210.984 252.166 210.623 252.271 210.283C252.381 209.939 252.539 209.639 252.746 209.381C252.957 209.119 253.217 208.914 253.525 208.766C253.834 208.617 254.188 208.543 254.586 208.543C254.91 208.543 255.199 208.588 255.453 208.678C255.711 208.764 255.93 208.9 256.109 209.088C256.289 209.275 256.426 209.52 256.52 209.82C256.613 210.117 256.66 210.477 256.66 210.898V215H255.242V210.893C255.242 210.572 255.195 210.324 255.102 210.148C255.012 209.973 254.883 209.852 254.715 209.785C254.547 209.715 254.346 209.68 254.111 209.68C253.893 209.68 253.699 209.721 253.531 209.803C253.367 209.881 253.229 209.992 253.115 210.137C253.002 210.277 252.916 210.439 252.857 210.623C252.803 210.807 252.775 211.006 252.775 211.221ZM261.787 213.729V210.705C261.787 210.479 261.746 210.283 261.664 210.119C261.582 209.955 261.457 209.828 261.289 209.738C261.125 209.648 260.918 209.604 260.668 209.604C260.438 209.604 260.239 209.643 260.071 209.721C259.903 209.799 259.772 209.904 259.678 210.037C259.584 210.17 259.537 210.32 259.537 210.488H258.131C258.131 210.238 258.192 209.996 258.313 209.762C258.434 209.527 258.61 209.318 258.84 209.135C259.071 208.951 259.346 208.807 259.666 208.701C259.987 208.596 260.346 208.543 260.745 208.543C261.221 208.543 261.643 208.623 262.01 208.783C262.381 208.943 262.672 209.186 262.883 209.51C263.098 209.83 263.205 210.232 263.205 210.717V213.535C263.205 213.824 263.225 214.084 263.264 214.314C263.307 214.541 263.368 214.738 263.446 214.906V215H261.998C261.932 214.848 261.879 214.654 261.84 214.42C261.805 214.182 261.787 213.951 261.787 213.729ZM261.993 211.145L262.004 212.018H260.991C260.729 212.018 260.498 212.043 260.299 212.094C260.1 212.141 259.934 212.211 259.801 212.305C259.668 212.398 259.569 212.512 259.502 212.645C259.436 212.777 259.403 212.928 259.403 213.096C259.403 213.264 259.442 213.418 259.52 213.559C259.598 213.695 259.711 213.803 259.86 213.881C260.012 213.959 260.196 213.998 260.411 213.998C260.7 213.998 260.952 213.939 261.166 213.822C261.385 213.701 261.557 213.555 261.682 213.383C261.807 213.207 261.873 213.041 261.881 212.885L262.338 213.512C262.291 213.672 262.211 213.844 262.098 214.027C261.985 214.211 261.836 214.387 261.653 214.555C261.473 214.719 261.256 214.854 261.002 214.959C260.752 215.064 260.463 215.117 260.135 215.117C259.721 215.117 259.352 215.035 259.028 214.871C258.704 214.703 258.45 214.479 258.266 214.197C258.082 213.912 257.991 213.59 257.991 213.23C257.991 212.895 258.053 212.598 258.178 212.34C258.307 212.078 258.495 211.859 258.741 211.684C258.991 211.508 259.295 211.375 259.655 211.285C260.014 211.191 260.424 211.145 260.885 211.145H261.993Z" fill="white"/>
<defs>
<clipPath id="clip0_60_3145">
<rect x="316" y="261" width="106" height="32" rx="8" fill="white"/>
</clipPath>
<clipPath id="clip1_60_3145">
<rect x="206" y="261" width="88" height="32" rx="8" fill="white"/>
</clipPath>
</defs>
</svg>
